<svg style="fill:none;stroke:#000000;" xmlns="http://www.w3.org/2000/svg" width="1056" height="816"><path stroke="red" stroke-width="2" d="M 29.999999999999993 337.8460969082653 L 246.0 337.8460969082653 Q 258 337.8460969082653 258.0 321.8460969082653 L 258.0 261.8460969082653 Q 258 257.8460969082653 252.0 247.45379206285202 L 144.0 60.392304845413264 Q 138.0 50 132.0 60.392304845413264 L 23.999999999999996 247.45379206285202 Q 18 257.8460969082653 17.999999999999996 261.8460969082653 L 17.999999999999996 321.8460969082653 Q 18 337.8460969082653 29.999999999999993 337.8460969082653 Z " fill="none"/> <polygon points="58.0 239.37088829419724 54.0 241.68028937095576 50.0 239.37088829419724 50.0 234.75208614068026 54.0 232.44268506392174 58.0 234.75208614068026"/> <polygon points="62.0 241.68028937095576 54.0 246.29909152447277 46.0 241.68028937095576 46.0 232.44268506392174 54.0 227.82388291040473 62.0 232.44268506392174"/> <polygon points="66.0 243.98969044771425 54.0 250.91789367798978 42.0 243.98969044771428 42.0 230.13328398716325 54.0 223.20508075688772 66.0 230.13328398716325"/> <polygon points="82.00000000000001 239.37088829419724 78.00000000000001 241.68028937095576 74.00000000000001 239.37088829419724 74.00000000000001 234.75208614068026 78.00000000000001 232.44268506392174 82.00000000000001 234.75208614068026"/> <polygon points="86.00000000000001 241.68028937095576 78.00000000000001 246.29909152447277 70.00000000000001 241.68028937095576 70.00000000000001 232.44268506392174 78.00000000000001 227.82388291040473 86.00000000000001 232.44268506392174"/> <polygon points="90.00000000000001 243.98969044771425 78.00000000000001 250.91789367798978 66.00000000000001 243.98969044771428 66.00000000000001 230.13328398716325 78.00000000000001 223.20508075688772 90.00000000000001 230.13328398716325"/> <polygon points="78.0 223.20508075688772 66.0 230.13328398716325 54.0 223.20508075688775 54.0 209.34867429633672 66.0 202.4204710660612 78.0 209.34867429633672"/> <polygon points="106.0 239.37088829419724 102.0 241.68028937095576 98.0 239.37088829419724 98.0 234.75208614068026 102.0 232.44268506392174 106.0 234.75208614068026"/> <polygon points="110.0 241.68028937095576 102.0 246.29909152447277 94.0 241.68028937095576 94.0 232.44268506392174 102.0 227.82388291040473 110.0 232.44268506392174"/> <polygon points="114.0 243.98969044771425 102.0 250.91789367798978 90.0 243.98969044771428 90.0 230.13328398716325 102.0 223.20508075688772 114.0 230.13328398716325"/> <polygon points="94.0 218.58627860337072 90.0 220.89567968012923 86.0 218.58627860337072 86.0 213.96747644985373 90.0 211.65807537309522 94.0 213.96747644985373"/> <polygon points="98.0 220.89567968012923 90.0 225.51448183364624 82.0 220.89567968012923 82.0 211.65807537309522 90.0 207.0392732195782 98.0 211.65807537309522"/> <polygon points="102.0 223.20508075688772 90.0 230.13328398716325 78.0 223.20508075688775 78.0 209.34867429633672 90.0 202.4204710660612 102.0 209.34867429633672"/> <polygon points="82.00000000000001 197.8016689125442 78.00000000000001 200.1110699893027 74.00000000000001 197.8016689125442 74.00000000000001 193.1828667590272 78.00000000000001 190.8734656822687 82.00000000000001 193.1828667590272"/> <polygon points="86.00000000000001 200.1110699893027 78.00000000000001 204.72987214281972 70.00000000000001 200.1110699893027 70.00000000000001 190.8734656822687 78.00000000000001 186.25466352875168 86.00000000000001 190.8734656822687"/> <polygon points="90.00000000000001 202.4204710660612 78.00000000000001 209.34867429633672 66.00000000000001 202.42047106606122 66.00000000000001 188.5640646055102 78.00000000000001 181.63586137523467 90.00000000000001 188.5640646055102"/> <polygon points="138.0 243.98969044771425 126.0 250.91789367798978 114.0 243.98969044771428 114.0 230.13328398716325 126.0 223.20508075688772 138.0 230.13328398716325"/> <polygon points="118.00000000000001 218.58627860337072 114.00000000000001 220.89567968012923 110.00000000000001 218.58627860337072 110.00000000000001 213.96747644985373 114.00000000000001 211.65807537309522 118.00000000000001 213.96747644985373"/> <polygon points="122.00000000000001 220.89567968012923 114.00000000000001 225.51448183364624 106.00000000000001 220.89567968012923 106.00000000000001 211.65807537309522 114.00000000000001 207.0392732195782 122.00000000000001 211.65807537309522"/> <polygon points="126.00000000000001 223.20508075688772 114.00000000000001 230.13328398716325 102.00000000000001 223.20508075688775 102.00000000000001 209.34867429633672 114.00000000000001 202.4204710660612 126.00000000000001 209.34867429633672"/> <polygon points="106.0 197.8016689125442 102.0 200.1110699893027 98.0 197.8016689125442 98.0 193.1828667590272 102.0 190.8734656822687 106.0 193.1828667590272"/> <polygon points="110.0 200.1110699893027 102.0 204.72987214281972 94.0 200.1110699893027 94.0 190.8734656822687 102.0 186.25466352875168 110.0 190.8734656822687"/> <polygon points="114.0 202.4204710660612 102.0 209.34867429633672 90.0 202.42047106606122 90.0 188.5640646055102 102.0 181.63586137523467 114.0 188.5640646055102"/> <polygon points="94.0 177.01705922171766 90.0 179.32646029847618 86.0 177.01705922171766 86.0 172.39825706820068 90.0 170.08885599144216 94.0 172.39825706820068"/> <polygon points="98.0 179.32646029847618 90.0 183.9452624519932 82.0 179.32646029847618 82.0 170.08885599144216 90.0 165.47005383792515 98.0 170.08885599144216"/> <polygon points="102.0 181.63586137523467 90.0 188.5640646055102 78.0 181.6358613752347 78.0 167.77945491468367 90.0 160.85125168440814 102.0 167.77945491468367"/> <polygon points="154.0 239.37088829419724 150.0 241.68028937095576 146.0 239.37088829419724 146.0 234.75208614068026 150.0 232.44268506392174 154.0 234.75208614068026"/> <polygon points="158.0 241.68028937095576 150.0 246.29909152447277 142.0 241.68028937095576 142.0 232.44268506392174 150.0 227.82388291040473 158.0 232.44268506392174"/> <polygon points="162.0 243.98969044771425 150.0 250.91789367798978 138.0 243.98969044771428 138.0 230.13328398716325 150.0 223.20508075688772 162.0 230.13328398716325"/> <polygon points="150.0 223.20508075688772 138.0 230.13328398716325 126.0 223.20508075688775 126.0 209.34867429633672 138.0 202.4204710660612 150.0 209.34867429633672"/> <polygon points="138.0 202.4204710660612 126.0 209.34867429633672 114.0 202.42047106606122 114.0 188.5640646055102 126.0 181.63586137523467 138.0 188.5640646055102"/> <polygon points="118.00000000000001 177.01705922171766 114.00000000000001 179.32646029847618 110.00000000000001 177.01705922171766 110.00000000000001 172.39825706820068 114.00000000000001 170.08885599144216 118.00000000000001 172.39825706820068"/> <polygon points="122.00000000000001 179.32646029847618 114.00000000000001 183.9452624519932 106.00000000000001 179.32646029847618 106.00000000000001 170.08885599144216 114.00000000000001 165.47005383792515 122.00000000000001 170.08885599144216"/> <polygon points="126.00000000000001 181.63586137523467 114.00000000000001 188.5640646055102 102.00000000000001 181.6358613752347 102.00000000000001 167.77945491468367 114.00000000000001 160.85125168440814 126.00000000000001 167.77945491468367"/> <polygon points="106.0 156.23244953089113 102.0 158.54185060764965 98.0 156.23244953089113 98.0 151.61364737737415 102.0 149.30424630061563 106.0 151.61364737737415"/> <polygon points="110.0 158.54185060764965 102.0 163.16065276116666 94.0 158.54185060764965 94.0 149.30424630061563 102.0 144.68544414709862 110.0 149.30424630061563"/> <polygon points="114.0 160.85125168440814 102.0 167.77945491468367 90.0 160.85125168440817 90.0 146.99484522385714 102.0 140.0666419935816 114.0 146.99484522385714"/> <polygon points="186.0 243.98969044771425 174.0 250.91789367798978 162.0 243.98969044771428 162.0 230.13328398716325 174.0 223.20508075688772 186.0 230.13328398716325"/> <polygon points="174.0 223.20508075688772 162.0 230.13328398716325 150.0 223.20508075688775 150.0 209.34867429633672 162.0 202.4204710660612 174.0 209.34867429633672"/> <polygon points="154.0 197.8016689125442 150.0 200.1110699893027 146.0 197.8016689125442 146.0 193.1828667590272 150.0 190.8734656822687 154.0 193.1828667590272"/> <polygon points="158.0 200.1110699893027 150.0 204.72987214281972 142.0 200.1110699893027 142.0 190.8734656822687 150.0 186.25466352875168 158.0 190.8734656822687"/> <polygon points="162.0 202.4204710660612 150.0 209.34867429633672 138.0 202.42047106606122 138.0 188.5640646055102 150.0 181.63586137523467 162.0 188.5640646055102"/> <polygon points="142.0 177.01705922171766 138.0 179.32646029847618 134.0 177.01705922171766 134.0 172.39825706820068 138.0 170.08885599144216 142.0 172.39825706820068"/> <polygon points="146.0 179.32646029847618 138.0 183.9452624519932 130.0 179.32646029847618 130.0 170.08885599144216 138.0 165.47005383792515 146.0 170.08885599144216"/> <polygon points="150.0 181.63586137523467 138.0 188.5640646055102 126.0 181.6358613752347 126.0 167.77945491468367 138.0 160.85125168440814 150.0 167.77945491468367"/> <polygon points="138.0 160.85125168440814 126.0 167.77945491468367 114.0 160.85125168440817 114.0 146.99484522385714 126.0 140.0666419935816 138.0 146.99484522385714"/> <polygon points="118.00000000000001 135.44783984006457 114.00000000000001 137.7572409168231 110.00000000000001 135.4478398400646 110.00000000000001 130.8290376865476 114.00000000000001 128.51963660978907 118.00000000000001 130.8290376865476"/> <polygon points="122.00000000000001 137.7572409168231 114.00000000000001 142.3760430703401 106.00000000000001 137.7572409168231 106.00000000000001 128.51963660978907 114.00000000000001 123.90083445627207 122.00000000000001 128.51963660978907"/> <polygon points="126.00000000000001 140.06664199358158 114.00000000000001 146.9948452238571 102.00000000000001 140.06664199358158 102.00000000000001 126.21023553303057 114.00000000000001 119.28203230275507 126.00000000000001 126.21023553303058"/> <polygon points="202.0 239.37088829419724 198.0 241.68028937095576 194.0 239.37088829419724 194.0 234.75208614068026 198.0 232.44268506392174 202.0 234.75208614068026"/> <polygon points="206.0 241.68028937095576 198.0 246.29909152447277 190.0 241.68028937095576 190.0 232.44268506392174 198.0 227.82388291040473 206.0 232.44268506392174"/> <polygon points="210.0 243.98969044771425 198.0 250.91789367798978 186.0 243.98969044771428 186.0 230.13328398716325 198.0 223.20508075688772 210.0 230.13328398716325"/> <polygon points="198.0 223.20508075688772 186.0 230.13328398716325 174.0 223.20508075688775 174.0 209.34867429633672 186.0 202.4204710660612 198.0 209.34867429633672"/> <polygon points="178.0 197.8016689125442 174.0 200.1110699893027 170.0 197.8016689125442 170.0 193.1828667590272 174.0 190.8734656822687 178.0 193.1828667590272"/> <polygon points="182.0 200.1110699893027 174.0 204.72987214281972 166.0 200.1110699893027 166.0 190.8734656822687 174.0 186.25466352875168 182.0 190.8734656822687"/> <polygon points="186.0 202.4204710660612 174.0 209.34867429633672 162.0 202.42047106606122 162.0 188.5640646055102 174.0 181.63586137523467 186.0 188.5640646055102"/> <polygon points="174.0 181.63586137523467 162.0 188.5640646055102 150.0 181.6358613752347 150.0 167.77945491468367 162.0 160.85125168440814 174.0 167.77945491468367"/> <polygon points="162.0 160.85125168440814 150.0 167.77945491468367 138.0 160.85125168440817 138.0 146.99484522385714 150.0 140.0666419935816 162.0 146.99484522385714"/> <polygon points="142.0 135.44783984006457 138.0 137.7572409168231 134.0 135.4478398400646 134.0 130.8290376865476 138.0 128.51963660978907 142.0 130.8290376865476"/> <polygon points="146.0 137.7572409168231 138.0 142.3760430703401 130.0 137.7572409168231 130.0 128.51963660978907 138.0 123.90083445627207 146.0 128.51963660978907"/> <polygon points="150.0 140.06664199358158 138.0 146.9948452238571 126.0 140.06664199358158 126.0 126.21023553303057 138.0 119.28203230275507 150.0 126.21023553303058"/> <polygon points="130.0 114.66323014923807 126.0 116.97263122599658 122.0 114.66323014923807 122.0 110.04442799572107 126.0 107.73502691896256 130.0 110.04442799572107"/> <polygon points="134.0 116.97263122599658 126.0 121.59143337951359 118.0 116.97263122599658 118.0 107.73502691896256 126.0 103.11622476544555 134.0 107.73502691896256"/> <polygon points="138.0 119.28203230275508 126.0 126.21023553303058 114.0 119.28203230275508 114.0 105.42562584220406 126.0 98.49742261192856 138.0 105.42562584220407"/> <polygon points="226.0 239.37088829419724 222.0 241.68028937095576 218.0 239.37088829419724 218.0 234.75208614068026 222.0 232.44268506392174 226.0 234.75208614068026"/> <polygon points="230.0 241.68028937095576 222.0 246.29909152447277 214.0 241.68028937095576 214.0 232.44268506392174 222.0 227.82388291040473 230.0 232.44268506392174"/> <polygon points="234.0 243.98969044771425 222.0 250.91789367798978 210.0 243.98969044771428 210.0 230.13328398716325 222.0 223.20508075688772 234.0 230.13328398716325"/> <polygon points="214.0 218.58627860337072 210.0 220.89567968012923 206.0 218.58627860337072 206.0 213.96747644985373 210.0 211.65807537309522 214.0 213.96747644985373"/> <polygon points="218.0 220.89567968012923 210.0 225.51448183364624 202.0 220.89567968012923 202.0 211.65807537309522 210.0 207.0392732195782 218.0 211.65807537309522"/> <polygon points="222.0 223.20508075688772 210.0 230.13328398716325 198.0 223.20508075688775 198.0 209.34867429633672 210.0 202.4204710660612 222.0 209.34867429633672"/> <polygon points="202.0 197.8016689125442 198.0 200.1110699893027 194.0 197.8016689125442 194.0 193.1828667590272 198.0 190.8734656822687 202.0 193.1828667590272"/> <polygon points="206.0 200.1110699893027 198.0 204.72987214281972 190.0 200.1110699893027 190.0 190.8734656822687 198.0 186.25466352875168 206.0 190.8734656822687"/> <polygon points="210.0 202.4204710660612 198.0 209.34867429633672 186.0 202.42047106606122 186.0 188.5640646055102 198.0 181.63586137523467 210.0 188.5640646055102"/> <polygon points="190.0 177.01705922171766 186.0 179.32646029847618 182.0 177.01705922171766 182.0 172.39825706820068 186.0 170.08885599144216 190.0 172.39825706820068"/> <polygon points="194.0 179.32646029847618 186.0 183.9452624519932 178.0 179.32646029847618 178.0 170.08885599144216 186.0 165.47005383792515 194.0 170.08885599144216"/> <polygon points="198.0 181.63586137523467 186.0 188.5640646055102 174.0 181.6358613752347 174.0 167.77945491468367 186.0 160.85125168440814 198.0 167.77945491468367"/> <polygon points="178.0 156.23244953089113 174.0 158.54185060764965 170.0 156.23244953089113 170.0 151.61364737737415 174.0 149.30424630061563 178.0 151.61364737737415"/> <polygon points="182.0 158.54185060764965 174.0 163.16065276116666 166.0 158.54185060764965 166.0 149.30424630061563 174.0 144.68544414709862 182.0 149.30424630061563"/> <polygon points="186.0 160.85125168440814 174.0 167.77945491468367 162.0 160.85125168440817 162.0 146.99484522385714 174.0 140.0666419935816 186.0 146.99484522385714"/> <polygon points="166.0 135.44783984006457 162.0 137.7572409168231 158.0 135.4478398400646 158.0 130.8290376865476 162.0 128.51963660978907 166.0 130.8290376865476"/> <polygon points="170.0 137.7572409168231 162.0 142.3760430703401 154.0 137.7572409168231 154.0 128.51963660978907 162.0 123.90083445627207 170.0 128.51963660978907"/> <polygon points="174.0 140.06664199358158 162.0 146.9948452238571 150.0 140.06664199358158 150.0 126.21023553303057 162.0 119.28203230275507 174.0 126.21023553303058"/> <polygon points="154.0 114.66323014923807 150.0 116.97263122599658 146.0 114.66323014923807 146.0 110.04442799572107 150.0 107.73502691896256 154.0 110.04442799572107"/> <polygon points="158.0 116.97263122599658 150.0 121.59143337951359 142.0 116.97263122599658 142.0 107.73502691896256 150.0 103.11622476544555 158.0 107.73502691896256"/> <polygon points="162.0 119.28203230275508 150.0 126.21023553303058 138.0 119.28203230275508 138.0 105.42562584220406 150.0 98.49742261192856 162.0 105.42562584220407"/> <polygon points="150.0 98.49742261192857 138.0 105.42562584220407 126.0 98.49742261192857 126.0 84.64101615137754 138.0 77.71281292110204 150.0 84.64101615137756"/><text dominant-baseline="middle" text-anchor="middle" font-family="SquareFont" font-size="56" x="138" y="297.8460969082653">A006255</text></svg>