<?xml version="1.0" encoding="UTF-8" standalone="no"?>
<svg
   style="fill:none;stroke:#000000;"
   width="1056"
   height="816"
   version="1.1"
   id="svg678"
   sodipodi:docname="A186230.svg"
   inkscape:version="1.2.2 (b0a84865, 2022-12-01)"
   xmlns:inkscape="http://www.inkscape.org/namespaces/inkscape"
   xmlns:sodipodi="http://sodipodi.sourceforge.net/DTD/sodipodi-0.dtd"
   xmlns="http://www.w3.org/2000/svg"
   xmlns:svg="http://www.w3.org/2000/svg">
  <defs
     id="defs682" />
  <sodipodi:namedview
     id="namedview680"
     pagecolor="#ffffff"
     bordercolor="#000000"
     borderopacity="0.25"
     inkscape:showpageshadow="2"
     inkscape:pageopacity="0.0"
     inkscape:pagecheckerboard="0"
     inkscape:deskcolor="#d1d1d1"
     showgrid="false"
     inkscape:zoom="1.2250417"
     inkscape:cx="140.81153"
     inkscape:cy="116.73072"
     inkscape:window-width="1512"
     inkscape:window-height="916"
     inkscape:window-x="0"
     inkscape:window-y="38"
     inkscape:window-maximized="0"
     inkscape:current-layer="svg678" />
  <path
     stroke="#ff0000"
     stroke-width="2"
     d="m 30,337.8461 h 216 q 12,0 12,-16 v -60 q 0,-4 -6,-14.39231 L 144,60.392305 q -6,-10.392305 -12,0 L 24,247.45379 q -6,10.39231 -6,14.39231 v 60 q 0,16 12,16 z"
     fill="none"
     id="path186"
     style="display:none" />
  <g
     id="g2897"
     style="display:inline">
    <polygon
       points="39.529412,245.41609 39.529412,241.74821 42.705882,239.91428 45.882353,241.74821 45.882353,245.41609 42.705882,247.25002 "
       id="polygon188" />
    <polygon
       points="36.352941,247.25002 36.352941,239.91428 42.705882,236.2464 49.058824,239.91428 49.058824,247.25002 42.705882,250.91789 "
       id="polygon190" />
    <polygon
       points="52.235294,245.41609 52.235294,241.74821 55.411765,239.91428 58.588235,241.74821 58.588235,245.41609 55.411765,247.25002 "
       id="polygon192" />
    <polygon
       points="49.058824,247.25002 49.058824,239.91428 55.411765,236.2464 61.764706,239.91428 61.764706,247.25002 55.411765,250.91789 "
       id="polygon194" />
    <polygon
       points="46.941388,233.80103 46.941388,231.35603 49.058824,230.13353 51.176259,231.35603 51.176259,233.80103 49.058824,235.02354 "
       id="polygon196" />
    <polygon
       points="42.705882,236.2464 42.705882,228.91066 49.058824,225.24279 55.411765,228.91066 55.411765,236.2464 49.058824,239.91428 "
       id="polygon198" />
    <polygon
       points="61.764706,247.25002 61.764706,239.91428 68.117647,236.2464 74.470588,239.91428 74.470588,247.25002 68.117647,250.91789 "
       id="polygon200" />
    <polygon
       points="55.411765,236.2464 55.411765,228.91066 61.764706,225.24279 68.117647,228.91066 68.117647,236.2464 61.764706,239.91428 "
       id="polygon202" />
    <polygon
       points="53.294329,222.79742 53.294329,220.35241 55.411765,219.12991 57.5292,220.35241 57.5292,222.79742 55.411765,224.01992 "
       id="polygon204" />
    <polygon
       points="49.058824,225.24279 49.058824,217.90704 55.411765,214.23917 61.764706,217.90704 61.764706,225.24279 55.411765,228.91066 "
       id="polygon206" />
    <polygon
       points="78.706094,244.80465 78.706094,242.35965 80.823529,241.13715 82.940965,242.35965 82.940965,244.80465 80.823529,246.02715 "
       id="polygon208" />
    <polygon
       points="74.470588,247.25002 74.470588,239.91428 80.823529,236.2464 87.176471,239.91428 87.176471,247.25002 80.823529,250.91789 "
       id="polygon210" />
    <polygon
       points="71.294118,234.41247 71.294118,230.7446 74.470588,228.91066 77.647059,230.7446 77.647059,234.41247 74.470588,236.2464 "
       id="polygon212" />
    <polygon
       points="68.117647,236.2464 68.117647,228.91066 74.470588,225.24279 80.823529,228.91066 80.823529,236.2464 74.470588,239.91428 "
       id="polygon214" />
    <polygon
       points="66.000212,222.79742 66.000212,220.35241 68.117647,219.12991 70.235082,220.35241 70.235082,222.79742 68.117647,224.01992 "
       id="polygon216" />
    <polygon
       points="61.764706,225.24279 61.764706,217.90704 68.117647,214.23917 74.470588,217.90704 74.470588,225.24279 68.117647,228.91066 "
       id="polygon218" />
    <polygon
       points="59.647271,211.7938 59.647271,209.3488 61.764706,208.12629 63.882141,209.3488 63.882141,211.7938 61.764706,213.0163 "
       id="polygon220" />
    <polygon
       points="55.411765,214.23917 55.411765,206.90343 61.764706,203.23555 68.117647,206.90343 68.117647,214.23917 61.764706,217.90704 "
       id="polygon222" />
    <polygon
       points="90.352941,245.41609 90.352941,241.74821 93.529412,239.91428 96.705882,241.74821 96.705882,245.41609 93.529412,247.25002 "
       id="polygon224" />
    <polygon
       points="87.176471,247.25002 87.176471,239.91428 93.529412,236.2464 99.882353,239.91428 99.882353,247.25002 93.529412,250.91789 "
       id="polygon226" />
    <polygon
       points="80.823529,236.2464 80.823529,228.91066 87.176471,225.24279 93.529412,228.91066 93.529412,236.2464 87.176471,239.91428 "
       id="polygon228" />
    <polygon
       points="74.470588,225.24279 74.470588,217.90704 80.823529,214.23917 87.176471,217.90704 87.176471,225.24279 80.823529,228.91066 "
       id="polygon230" />
    <polygon
       points="68.117647,214.23917 68.117647,206.90343 74.470588,203.23555 80.823529,206.90343 80.823529,214.23917 74.470588,217.90704 "
       id="polygon232" />
    <polygon
       points="64.941176,201.40162 64.941176,197.73375 68.117647,195.89981 71.294118,197.73375 71.294118,201.40162 68.117647,203.23555 "
       id="polygon234" />
    <polygon
       points="61.764706,203.23555 61.764706,195.89981 68.117647,192.23194 74.470588,195.89981 74.470588,203.23555 68.117647,206.90343 "
       id="polygon236" />
    <polygon
       points="103.05882,245.41609 103.05882,241.74821 106.23529,239.91428 109.41176,241.74821 109.41176,245.41609 106.23529,247.25002 "
       id="polygon238" />
    <polygon
       points="99.882353,247.25002 99.882353,239.91428 106.23529,236.2464 112.58824,239.91428 112.58824,247.25002 106.23529,250.91789 "
       id="polygon240" />
    <polygon
       points="97.764918,233.80103 97.764918,231.35603 99.882353,230.13353 101.99979,231.35603 101.99979,233.80103 99.882353,235.02354 "
       id="polygon242" />
    <polygon
       points="93.529412,236.2464 93.529412,228.91066 99.882353,225.24279 106.23529,228.91066 106.23529,236.2464 99.882353,239.91428 "
       id="polygon244" />
    <polygon
       points="90.352941,223.40885 90.352941,219.74098 93.529412,217.90704 96.705882,219.74098 96.705882,223.40885 93.529412,225.24279 "
       id="polygon246" />
    <polygon
       points="87.176471,225.24279 87.176471,217.90704 93.529412,214.23917 99.882353,217.90704 99.882353,225.24279 93.529412,228.91066 "
       id="polygon248" />
    <polygon
       points="84,212.40523 84,208.73736 87.176471,206.90343 90.352941,208.73736 90.352941,212.40523 87.176471,214.23917 "
       id="polygon250" />
    <polygon
       points="80.823529,214.23917 80.823529,206.90343 87.176471,203.23555 93.529412,206.90343 93.529412,214.23917 87.176471,217.90704 "
       id="polygon252" />
    <polygon
       points="78.706094,200.79018 78.706094,198.34518 80.823529,197.12268 82.940965,198.34518 82.940965,200.79018 80.823529,202.01269 "
       id="polygon254" />
    <polygon
       points="74.470588,203.23555 74.470588,195.89981 80.823529,192.23194 87.176471,195.89981 87.176471,203.23555 80.823529,206.90343 "
       id="polygon256" />
    <polygon
       points="71.294118,190.398 71.294118,186.73013 74.470588,184.89619 77.647059,186.73013 77.647059,190.398 74.470588,192.23194 "
       id="polygon258" />
    <polygon
       points="68.117647,192.23194 68.117647,184.89619 74.470588,181.22832 80.823529,184.89619 80.823529,192.23194 74.470588,195.89981 "
       id="polygon260" />
    <polygon
       points="112.58824,247.25002 112.58824,239.91428 118.94118,236.2464 125.29412,239.91428 125.29412,247.25002 118.94118,250.91789 "
       id="polygon262" />
    <polygon
       points="110.4708,233.80103 110.4708,231.35603 112.58824,230.13353 114.70567,231.35603 114.70567,233.80103 112.58824,235.02354 "
       id="polygon264" />
    <polygon
       points="106.23529,236.2464 106.23529,228.91066 112.58824,225.24279 118.94118,228.91066 118.94118,236.2464 112.58824,239.91428 "
       id="polygon266" />
    <polygon
       points="103.05882,223.40885 103.05882,219.74098 106.23529,217.90704 109.41176,219.74098 109.41176,223.40885 106.23529,225.24279 "
       id="polygon268" />
    <polygon
       points="99.882353,225.24279 99.882353,217.90704 106.23529,214.23917 112.58824,217.90704 112.58824,225.24279 106.23529,228.91066 "
       id="polygon270" />
    <polygon
       points="97.764918,211.7938 97.764918,209.3488 99.882353,208.12629 101.99979,209.3488 101.99979,211.7938 99.882353,213.0163 "
       id="polygon272" />
    <polygon
       points="93.529412,214.23917 93.529412,206.90343 99.882353,203.23555 106.23529,206.90343 106.23529,214.23917 99.882353,217.90704 "
       id="polygon274" />
    <polygon
       points="90.352941,201.40162 90.352941,197.73375 93.529412,195.89981 96.705882,197.73375 96.705882,201.40162 93.529412,203.23555 "
       id="polygon276" />
    <polygon
       points="87.176471,203.23555 87.176471,195.89981 93.529412,192.23194 99.882353,195.89981 99.882353,203.23555 93.529412,206.90343 "
       id="polygon278" />
    <polygon
       points="80.823529,192.23194 80.823529,184.89619 87.176471,181.22832 93.529412,184.89619 93.529412,192.23194 87.176471,195.89981 "
       id="polygon280" />
    <polygon
       points="77.647059,179.39438 77.647059,175.72651 80.823529,173.89258 84,175.72651 84,179.39438 80.823529,181.22832 "
       id="polygon282" />
    <polygon
       points="74.470588,181.22832 74.470588,173.89258 80.823529,170.2247 87.176471,173.89258 87.176471,181.22832 80.823529,184.89619 "
       id="polygon284" />
    <polygon
       points="129.52962,244.80465 129.52962,242.35965 131.64706,241.13715 133.76449,242.35965 133.76449,244.80465 131.64706,246.02715 "
       id="polygon286" />
    <polygon
       points="125.29412,247.25002 125.29412,239.91428 131.64706,236.2464 138,239.91428 138,247.25002 131.64706,250.91789 "
       id="polygon288" />
    <polygon
       points="118.94118,236.2464 118.94118,228.91066 125.29412,225.24279 131.64706,228.91066 131.64706,236.2464 125.29412,239.91428 "
       id="polygon290" />
    <polygon
       points="116.82374,222.79742 116.82374,220.35241 118.94118,219.12991 121.05861,220.35241 121.05861,222.79742 118.94118,224.01992 "
       id="polygon292" />
    <polygon
       points="112.58824,225.24279 112.58824,217.90704 118.94118,214.23917 125.29412,217.90704 125.29412,225.24279 118.94118,228.91066 "
       id="polygon294" />
    <polygon
       points="109.41176,212.40523 109.41176,208.73736 112.58824,206.90343 115.76471,208.73736 115.76471,212.40523 112.58824,214.23917 "
       id="polygon296" />
    <polygon
       points="106.23529,214.23917 106.23529,206.90343 112.58824,203.23555 118.94118,206.90343 118.94118,214.23917 112.58824,217.90704 "
       id="polygon298" />
    <polygon
       points="104.11786,200.79018 104.11786,198.34518 106.23529,197.12268 108.35273,198.34518 108.35273,200.79018 106.23529,202.01269 "
       id="polygon300" />
    <polygon
       points="99.882353,203.23555 99.882353,195.89981 106.23529,192.23194 112.58824,195.89981 112.58824,203.23555 106.23529,206.90343 "
       id="polygon302" />
    <polygon
       points="96.705882,190.398 96.705882,186.73013 99.882353,184.89619 103.05882,186.73013 103.05882,190.398 99.882353,192.23194 "
       id="polygon304" />
    <polygon
       points="93.529412,192.23194 93.529412,184.89619 99.882353,181.22832 106.23529,184.89619 106.23529,192.23194 99.882353,195.89981 "
       id="polygon306" />
    <polygon
       points="90.352941,179.39438 90.352941,175.72651 93.529412,173.89258 96.705882,175.72651 96.705882,179.39438 93.529412,181.22832 "
       id="polygon308" />
    <polygon
       points="87.176471,181.22832 87.176471,173.89258 93.529412,170.2247 99.882353,173.89258 99.882353,181.22832 93.529412,184.89619 "
       id="polygon310" />
    <polygon
       points="85.059035,167.77933 85.059035,165.33433 87.176471,164.11183 89.293906,165.33433 89.293906,167.77933 87.176471,169.00183 "
       id="polygon312" />
    <polygon
       points="80.823529,170.2247 80.823529,162.88896 87.176471,159.22109 93.529412,162.88896 93.529412,170.2247 87.176471,173.89258 "
       id="polygon314" />
    <polygon
       points="138,247.25002 138,239.91428 144.35294,236.2464 150.70588,239.91428 150.70588,247.25002 144.35294,250.91789 "
       id="polygon316" />
    <polygon
       points="135.88256,233.80103 135.88256,231.35603 138,230.13353 140.11744,231.35603 140.11744,233.80103 138,235.02354 "
       id="polygon318" />
    <polygon
       points="131.64706,236.2464 131.64706,228.91066 138,225.24279 144.35294,228.91066 144.35294,236.2464 138,239.91428 "
       id="polygon320" />
    <polygon
       points="129.52962,222.79742 129.52962,220.35241 131.64706,219.12991 133.76449,220.35241 133.76449,222.79742 131.64706,224.01992 "
       id="polygon322" />
    <polygon
       points="125.29412,225.24279 125.29412,217.90704 131.64706,214.23917 138,217.90704 138,225.24279 131.64706,228.91066 "
       id="polygon324" />
    <polygon
       points="123.17668,211.7938 123.17668,209.3488 125.29412,208.12629 127.41155,209.3488 127.41155,211.7938 125.29412,213.0163 "
       id="polygon326" />
    <polygon
       points="118.94118,214.23917 118.94118,206.90343 125.29412,203.23555 131.64706,206.90343 131.64706,214.23917 125.29412,217.90704 "
       id="polygon328" />
    <polygon
       points="112.58824,203.23555 112.58824,195.89981 118.94118,192.23194 125.29412,195.89981 125.29412,203.23555 118.94118,206.90343 "
       id="polygon330" />
    <polygon
       points="109.41176,190.398 109.41176,186.73013 112.58824,184.89619 115.76471,186.73013 115.76471,190.398 112.58824,192.23194 "
       id="polygon332" />
    <polygon
       points="106.23529,192.23194 106.23529,184.89619 112.58824,181.22832 118.94118,184.89619 118.94118,192.23194 112.58824,195.89981 "
       id="polygon334" />
    <polygon
       points="99.882353,181.22832 99.882353,173.89258 106.23529,170.2247 112.58824,173.89258 112.58824,181.22832 106.23529,184.89619 "
       id="polygon336" />
    <polygon
       points="93.529412,170.2247 93.529412,162.88896 99.882353,159.22109 106.23529,162.88896 106.23529,170.2247 99.882353,173.89258 "
       id="polygon338" />
    <polygon
       points="91.411976,156.77572 91.411976,154.33071 93.529412,153.10821 95.646847,154.33071 95.646847,156.77572 93.529412,157.99822 "
       id="polygon340" />
    <polygon
       points="87.176471,159.22109 87.176471,151.88534 93.529412,148.21747 99.882353,151.88534 99.882353,159.22109 93.529412,162.88896 "
       id="polygon342" />
    <polygon
       points="154.94139,244.80465 154.94139,242.35965 157.05882,241.13715 159.17626,242.35965 159.17626,244.80465 157.05882,246.02715 "
       id="polygon344" />
    <polygon
       points="150.70588,247.25002 150.70588,239.91428 157.05882,236.2464 163.41176,239.91428 163.41176,247.25002 157.05882,250.91789 "
       id="polygon346" />
    <polygon
       points="148.58845,233.80103 148.58845,231.35603 150.70588,230.13353 152.82332,231.35603 152.82332,233.80103 150.70588,235.02354 "
       id="polygon348" />
    <polygon
       points="144.35294,236.2464 144.35294,228.91066 150.70588,225.24279 157.05882,228.91066 157.05882,236.2464 150.70588,239.91428 "
       id="polygon350" />
    <polygon
       points="141.17647,223.40885 141.17647,219.74098 144.35294,217.90704 147.52941,219.74098 147.52941,223.40885 144.35294,225.24279 "
       id="polygon352" />
    <polygon
       points="138,225.24279 138,217.90704 144.35294,214.23917 150.70588,217.90704 150.70588,225.24279 144.35294,228.91066 "
       id="polygon354" />
    <polygon
       points="135.88256,211.7938 135.88256,209.3488 138,208.12629 140.11744,209.3488 140.11744,211.7938 138,213.0163 "
       id="polygon356" />
    <polygon
       points="131.64706,214.23917 131.64706,206.90343 138,203.23555 144.35294,206.90343 144.35294,214.23917 138,217.90704 "
       id="polygon358" />
    <polygon
       points="128.47059,201.40162 128.47059,197.73375 131.64706,195.89981 134.82353,197.73375 134.82353,201.40162 131.64706,203.23555 "
       id="polygon360" />
    <polygon
       points="125.29412,203.23555 125.29412,195.89981 131.64706,192.23194 138,195.89981 138,203.23555 131.64706,206.90343 "
       id="polygon362" />
    <polygon
       points="122.11765,190.398 122.11765,186.73013 125.29412,184.89619 128.47059,186.73013 128.47059,190.398 125.29412,192.23194 "
       id="polygon364" />
    <polygon
       points="118.94118,192.23194 118.94118,184.89619 125.29412,181.22832 131.64706,184.89619 131.64706,192.23194 125.29412,195.89981 "
       id="polygon366" />
    <polygon
       points="115.76471,179.39438 115.76471,175.72651 118.94118,173.89258 122.11765,175.72651 122.11765,179.39438 118.94118,181.22832 "
       id="polygon368" />
    <polygon
       points="112.58824,181.22832 112.58824,173.89258 118.94118,170.2247 125.29412,173.89258 125.29412,181.22832 118.94118,184.89619 "
       id="polygon370" />
    <polygon
       points="110.4708,167.77933 110.4708,165.33433 112.58824,164.11183 114.70567,165.33433 114.70567,167.77933 112.58824,169.00183 "
       id="polygon372" />
    <polygon
       points="106.23529,170.2247 106.23529,162.88896 112.58824,159.22109 118.94118,162.88896 118.94118,170.2247 112.58824,173.89258 "
       id="polygon374" />
    <polygon
       points="103.05882,157.38715 103.05882,153.71928 106.23529,151.88534 109.41176,153.71928 109.41176,157.38715 106.23529,159.22109 "
       id="polygon376" />
    <polygon
       points="99.882353,159.22109 99.882353,151.88534 106.23529,148.21747 112.58824,151.88534 112.58824,159.22109 106.23529,162.88896 "
       id="polygon378" />
    <polygon
       points="97.764918,145.7721 97.764918,143.3271 99.882353,142.10459 101.99979,143.3271 101.99979,145.7721 99.882353,146.9946 "
       id="polygon380" />
    <polygon
       points="93.529412,148.21747 93.529412,140.88172 99.882353,137.21385 106.23529,140.88172 106.23529,148.21747 99.882353,151.88534 "
       id="polygon382" />
    <polygon
       points="163.41176,247.25002 163.41176,239.91428 169.76471,236.2464 176.11765,239.91428 176.11765,247.25002 169.76471,250.91789 "
       id="polygon384" />
    <polygon
       points="161.29433,233.80103 161.29433,231.35603 163.41176,230.13353 165.5292,231.35603 165.5292,233.80103 163.41176,235.02354 "
       id="polygon386" />
    <polygon
       points="157.05882,236.2464 157.05882,228.91066 163.41176,225.24279 169.76471,228.91066 169.76471,236.2464 163.41176,239.91428 "
       id="polygon388" />
    <polygon
       points="154.94139,222.79742 154.94139,220.35241 157.05882,219.12991 159.17626,220.35241 159.17626,222.79742 157.05882,224.01992 "
       id="polygon390" />
    <polygon
       points="150.70588,225.24279 150.70588,217.90704 157.05882,214.23917 163.41176,217.90704 163.41176,225.24279 157.05882,228.91066 "
       id="polygon392" />
    <polygon
       points="148.58845,211.7938 148.58845,209.3488 150.70588,208.12629 152.82332,209.3488 152.82332,211.7938 150.70588,213.0163 "
       id="polygon394" />
    <polygon
       points="144.35294,214.23917 144.35294,206.90343 150.70588,203.23555 157.05882,206.90343 157.05882,214.23917 150.70588,217.90704 "
       id="polygon396" />
    <polygon
       points="142.23551,200.79018 142.23551,198.34518 144.35294,197.12268 146.47038,198.34518 146.47038,200.79018 144.35294,202.01269 "
       id="polygon398" />
    <polygon
       points="138,203.23555 138,195.89981 144.35294,192.23194 150.70588,195.89981 150.70588,203.23555 144.35294,206.90343 "
       id="polygon400" />
    <polygon
       points="134.82353,190.398 134.82353,186.73013 138,184.89619 141.17647,186.73013 141.17647,190.398 138,192.23194 "
       id="polygon402" />
    <polygon
       points="131.64706,192.23194 131.64706,184.89619 138,181.22832 144.35294,184.89619 144.35294,192.23194 138,195.89981 "
       id="polygon404" />
    <polygon
       points="129.52962,178.78295 129.52962,176.33795 131.64706,175.11544 133.76449,176.33795 133.76449,178.78295 131.64706,180.00545 "
       id="polygon406" />
    <polygon
       points="125.29412,181.22832 125.29412,173.89258 131.64706,170.2247 138,173.89258 138,181.22832 131.64706,184.89619 "
       id="polygon408" />
    <polygon
       points="118.94118,170.2247 118.94118,162.88896 125.29412,159.22109 131.64706,162.88896 131.64706,170.2247 125.29412,173.89258 "
       id="polygon410" />
    <polygon
       points="112.58824,159.22109 112.58824,151.88534 118.94118,148.21747 125.29412,151.88534 125.29412,159.22109 118.94118,162.88896 "
       id="polygon412" />
    <polygon
       points="106.23529,148.21747 106.23529,140.88172 112.58824,137.21385 118.94118,140.88172 118.94118,148.21747 112.58824,151.88534 "
       id="polygon414" />
    <polygon
       points="103.05882,135.37992 103.05882,131.71204 106.23529,129.87811 109.41176,131.71204 109.41176,135.37992 106.23529,137.21385 "
       id="polygon416" />
    <polygon
       points="99.882353,137.21385 99.882353,129.87811 106.23529,126.21024 112.58824,129.87811 112.58824,137.21385 106.23529,140.88172 "
       id="polygon418" />
    <polygon
       points="179.29412,245.41609 179.29412,241.74821 182.47059,239.91428 185.64706,241.74821 185.64706,245.41609 182.47059,247.25002 "
       id="polygon420" />
    <polygon
       points="176.11765,247.25002 176.11765,239.91428 182.47059,236.2464 188.82353,239.91428 188.82353,247.25002 182.47059,250.91789 "
       id="polygon422" />
    <polygon
       points="169.76471,236.2464 169.76471,228.91066 176.11765,225.24279 182.47059,228.91066 182.47059,236.2464 176.11765,239.91428 "
       id="polygon424" />
    <polygon
       points="167.64727,222.79742 167.64727,220.35241 169.76471,219.12991 171.88214,220.35241 171.88214,222.79742 169.76471,224.01992 "
       id="polygon426" />
    <polygon
       points="163.41176,225.24279 163.41176,217.90704 169.76471,214.23917 176.11765,217.90704 176.11765,225.24279 169.76471,228.91066 "
       id="polygon428" />
    <polygon
       points="160.23529,212.40523 160.23529,208.73736 163.41176,206.90343 166.58824,208.73736 166.58824,212.40523 163.41176,214.23917 "
       id="polygon430" />
    <polygon
       points="157.05882,214.23917 157.05882,206.90343 163.41176,203.23555 169.76471,206.90343 169.76471,214.23917 163.41176,217.90704 "
       id="polygon432" />
    <polygon
       points="153.88235,201.40162 153.88235,197.73375 157.05882,195.89981 160.23529,197.73375 160.23529,201.40162 157.05882,203.23555 "
       id="polygon434" />
    <polygon
       points="150.70588,203.23555 150.70588,195.89981 157.05882,192.23194 163.41176,195.89981 163.41176,203.23555 157.05882,206.90343 "
       id="polygon436" />
    <polygon
       points="148.58845,189.78657 148.58845,187.34156 150.70588,186.11906 152.82332,187.34156 152.82332,189.78657 150.70588,191.00907 "
       id="polygon438" />
    <polygon
       points="144.35294,192.23194 144.35294,184.89619 150.70588,181.22832 157.05882,184.89619 157.05882,192.23194 150.70588,195.89981 "
       id="polygon440" />
    <polygon
       points="141.17647,179.39438 141.17647,175.72651 144.35294,173.89258 147.52941,175.72651 147.52941,179.39438 144.35294,181.22832 "
       id="polygon442" />
    <polygon
       points="138,181.22832 138,173.89258 144.35294,170.2247 150.70588,173.89258 150.70588,181.22832 144.35294,184.89619 "
       id="polygon444" />
    <polygon
       points="131.64706,170.2247 131.64706,162.88896 138,159.22109 144.35294,162.88896 144.35294,170.2247 138,173.89258 "
       id="polygon446" />
    <polygon
       points="129.52962,156.77572 129.52962,154.33071 131.64706,153.10821 133.76449,154.33071 133.76449,156.77572 131.64706,157.99822 "
       id="polygon448" />
    <polygon
       points="125.29412,159.22109 125.29412,151.88534 131.64706,148.21747 138,151.88534 138,159.22109 131.64706,162.88896 "
       id="polygon450" />
    <polygon
       points="122.11765,146.38353 122.11765,142.71566 125.29412,140.88172 128.47059,142.71566 128.47059,146.38353 125.29412,148.21747 "
       id="polygon452" />
    <polygon
       points="118.94118,148.21747 118.94118,140.88172 125.29412,137.21385 131.64706,140.88172 131.64706,148.21747 125.29412,151.88534 "
       id="polygon454" />
    <polygon
       points="116.82374,134.76848 116.82374,132.32348 118.94118,131.10098 121.05861,132.32348 121.05861,134.76848 118.94118,135.99098 "
       id="polygon456" />
    <polygon
       points="112.58824,137.21385 112.58824,129.87811 118.94118,126.21024 125.29412,129.87811 125.29412,137.21385 118.94118,140.88172 "
       id="polygon458" />
    <polygon
       points="109.41176,124.3763 109.41176,120.70843 112.58824,118.87449 115.76471,120.70843 115.76471,124.3763 112.58824,126.21024 "
       id="polygon460" />
    <polygon
       points="106.23529,126.21024 106.23529,118.87449 112.58824,115.20662 118.94118,118.87449 118.94118,126.21024 112.58824,129.87811 "
       id="polygon462" />
    <polygon
       points="193.05904,244.80465 193.05904,242.35965 195.17647,241.13715 197.29391,242.35965 197.29391,244.80465 195.17647,246.02715 "
       id="polygon464" />
    <polygon
       points="188.82353,247.25002 188.82353,239.91428 195.17647,236.2464 201.52941,239.91428 201.52941,247.25002 195.17647,250.91789 "
       id="polygon466" />
    <polygon
       points="185.64706,234.41247 185.64706,230.7446 188.82353,228.91066 192,230.7446 192,234.41247 188.82353,236.2464 "
       id="polygon468" />
    <polygon
       points="182.47059,236.2464 182.47059,228.91066 188.82353,225.24279 195.17647,228.91066 195.17647,236.2464 188.82353,239.91428 "
       id="polygon470" />
    <polygon
       points="179.29412,223.40885 179.29412,219.74098 182.47059,217.90704 185.64706,219.74098 185.64706,223.40885 182.47059,225.24279 "
       id="polygon472" />
    <polygon
       points="176.11765,225.24279 176.11765,217.90704 182.47059,214.23917 188.82353,217.90704 188.82353,225.24279 182.47059,228.91066 "
       id="polygon474" />
    <polygon
       points="174.00021,211.7938 174.00021,209.3488 176.11765,208.12629 178.23508,209.3488 178.23508,211.7938 176.11765,213.0163 "
       id="polygon476" />
    <polygon
       points="169.76471,214.23917 169.76471,206.90343 176.11765,203.23555 182.47059,206.90343 182.47059,214.23917 176.11765,217.90704 "
       id="polygon478" />
    <polygon
       points="166.58824,201.40162 166.58824,197.73375 169.76471,195.89981 172.94118,197.73375 172.94118,201.40162 169.76471,203.23555 "
       id="polygon480" />
    <polygon
       points="163.41176,203.23555 163.41176,195.89981 169.76471,192.23194 176.11765,195.89981 176.11765,203.23555 169.76471,206.90343 "
       id="polygon482" />
    <polygon
       points="161.29433,189.78657 161.29433,187.34156 163.41176,186.11906 165.5292,187.34156 165.5292,189.78657 163.41176,191.00907 "
       id="polygon484" />
    <polygon
       points="157.05882,192.23194 157.05882,184.89619 163.41176,181.22832 169.76471,184.89619 169.76471,192.23194 163.41176,195.89981 "
       id="polygon486" />
    <polygon
       points="154.94139,178.78295 154.94139,176.33795 157.05882,175.11544 159.17626,176.33795 159.17626,178.78295 157.05882,180.00545 "
       id="polygon488" />
    <polygon
       points="150.70588,181.22832 150.70588,173.89258 157.05882,170.2247 163.41176,173.89258 163.41176,181.22832 157.05882,184.89619 "
       id="polygon490" />
    <polygon
       points="148.58845,167.77933 148.58845,165.33433 150.70588,164.11183 152.82332,165.33433 152.82332,167.77933 150.70588,169.00183 "
       id="polygon492" />
    <polygon
       points="144.35294,170.2247 144.35294,162.88896 150.70588,159.22109 157.05882,162.88896 157.05882,170.2247 150.70588,173.89258 "
       id="polygon494" />
    <polygon
       points="142.23551,156.77572 142.23551,154.33071 144.35294,153.10821 146.47038,154.33071 146.47038,156.77572 144.35294,157.99822 "
       id="polygon496" />
    <polygon
       points="138,159.22109 138,151.88534 144.35294,148.21747 150.70588,151.88534 150.70588,159.22109 144.35294,162.88896 "
       id="polygon498" />
    <polygon
       points="134.82353,146.38353 134.82353,142.71566 138,140.88172 141.17647,142.71566 141.17647,146.38353 138,148.21747 "
       id="polygon500" />
    <polygon
       points="131.64706,148.21747 131.64706,140.88172 138,137.21385 144.35294,140.88172 144.35294,148.21747 138,151.88534 "
       id="polygon502" />
    <polygon
       points="129.52962,134.76848 129.52962,132.32348 131.64706,131.10098 133.76449,132.32348 133.76449,134.76848 131.64706,135.99098 "
       id="polygon504" />
    <polygon
       points="125.29412,137.21385 125.29412,129.87811 131.64706,126.21024 138,129.87811 138,137.21385 131.64706,140.88172 "
       id="polygon506" />
    <polygon
       points="118.94118,126.21024 118.94118,118.87449 125.29412,115.20662 131.64706,118.87449 131.64706,126.21024 125.29412,129.87811 "
       id="polygon508" />
    <polygon
       points="115.76471,113.37268 115.76471,109.70481 118.94118,107.87087 122.11765,109.70481 122.11765,113.37268 118.94118,115.20662 "
       id="polygon510" />
    <polygon
       points="112.58824,115.20662 112.58824,107.87087 118.94118,104.203 125.29412,107.87087 125.29412,115.20662 118.94118,118.87449 "
       id="polygon512" />
    <polygon
       points="204.70588,245.41609 204.70588,241.74821 207.88235,239.91428 211.05882,241.74821 211.05882,245.41609 207.88235,247.25002 "
       id="polygon514" />
    <polygon
       points="201.52941,247.25002 201.52941,239.91428 207.88235,236.2464 214.23529,239.91428 214.23529,247.25002 207.88235,250.91789 "
       id="polygon516" />
    <polygon
       points="199.41198,233.80103 199.41198,231.35603 201.52941,230.13353 203.64685,231.35603 203.64685,233.80103 201.52941,235.02354 "
       id="polygon518" />
    <polygon
       points="195.17647,236.2464 195.17647,228.91066 201.52941,225.24279 207.88235,228.91066 207.88235,236.2464 201.52941,239.91428 "
       id="polygon520" />
    <polygon
       points="193.05904,222.79742 193.05904,220.35241 195.17647,219.12991 197.29391,220.35241 197.29391,222.79742 195.17647,224.01992 "
       id="polygon522" />
    <polygon
       points="188.82353,225.24279 188.82353,217.90704 195.17647,214.23917 201.52941,217.90704 201.52941,225.24279 195.17647,228.91066 "
       id="polygon524" />
    <polygon
       points="185.64706,212.40523 185.64706,208.73736 188.82353,206.90343 192,208.73736 192,212.40523 188.82353,214.23917 "
       id="polygon526" />
    <polygon
       points="182.47059,214.23917 182.47059,206.90343 188.82353,203.23555 195.17647,206.90343 195.17647,214.23917 188.82353,217.90704 "
       id="polygon528" />
    <polygon
       points="179.29412,201.40162 179.29412,197.73375 182.47059,195.89981 185.64706,197.73375 185.64706,201.40162 182.47059,203.23555 "
       id="polygon530" />
    <polygon
       points="176.11765,203.23555 176.11765,195.89981 182.47059,192.23194 188.82353,195.89981 188.82353,203.23555 182.47059,206.90343 "
       id="polygon532" />
    <polygon
       points="174.00021,189.78657 174.00021,187.34156 176.11765,186.11906 178.23508,187.34156 178.23508,189.78657 176.11765,191.00907 "
       id="polygon534" />
    <polygon
       points="169.76471,192.23194 169.76471,184.89619 176.11765,181.22832 182.47059,184.89619 182.47059,192.23194 176.11765,195.89981 "
       id="polygon536" />
    <polygon
       points="166.58824,179.39438 166.58824,175.72651 169.76471,173.89258 172.94118,175.72651 172.94118,179.39438 169.76471,181.22832 "
       id="polygon538" />
    <polygon
       points="163.41176,181.22832 163.41176,173.89258 169.76471,170.2247 176.11765,173.89258 176.11765,181.22832 169.76471,184.89619 "
       id="polygon540" />
    <polygon
       points="161.29433,167.77933 161.29433,165.33433 163.41176,164.11183 165.5292,165.33433 165.5292,167.77933 163.41176,169.00183 "
       id="polygon542" />
    <polygon
       points="157.05882,170.2247 157.05882,162.88896 163.41176,159.22109 169.76471,162.88896 169.76471,170.2247 163.41176,173.89258 "
       id="polygon544" />
    <polygon
       points="153.88235,157.38715 153.88235,153.71928 157.05882,151.88534 160.23529,153.71928 160.23529,157.38715 157.05882,159.22109 "
       id="polygon546" />
    <polygon
       points="150.70588,159.22109 150.70588,151.88534 157.05882,148.21747 163.41176,151.88534 163.41176,159.22109 157.05882,162.88896 "
       id="polygon548" />
    <polygon
       points="148.58845,145.7721 148.58845,143.3271 150.70588,142.10459 152.82332,143.3271 152.82332,145.7721 150.70588,146.9946 "
       id="polygon550" />
    <polygon
       points="144.35294,148.21747 144.35294,140.88172 150.70588,137.21385 157.05882,140.88172 157.05882,148.21747 150.70588,151.88534 "
       id="polygon552" />
    <polygon
       points="141.17647,135.37992 141.17647,131.71204 144.35294,129.87811 147.52941,131.71204 147.52941,135.37992 144.35294,137.21385 "
       id="polygon554" />
    <polygon
       points="138,137.21385 138,129.87811 144.35294,126.21024 150.70588,129.87811 150.70588,137.21385 144.35294,140.88172 "
       id="polygon556" />
    <polygon
       points="134.82353,124.3763 134.82353,120.70843 138,118.87449 141.17647,120.70843 141.17647,124.3763 138,126.21024 "
       id="polygon558" />
    <polygon
       points="131.64706,126.21024 131.64706,118.87449 138,115.20662 144.35294,118.87449 144.35294,126.21024 138,129.87811 "
       id="polygon560" />
    <polygon
       points="129.52962,112.76125 129.52962,110.31624 131.64706,109.09374 133.76449,110.31624 133.76449,112.76125 131.64706,113.98375 "
       id="polygon562" />
    <polygon
       points="125.29412,115.20662 125.29412,107.87087 131.64706,104.203 138,107.87087 138,115.20662 131.64706,118.87449 "
       id="polygon564" />
    <polygon
       points="122.11765,102.36907 122.11765,98.701193 125.29412,96.867257 128.47059,98.701193 128.47059,102.36907 125.29412,104.203 "
       id="polygon566" />
    <polygon
       points="118.94118,104.203 118.94118,96.867257 125.29412,93.199385 131.64706,96.867257 131.64706,104.203 125.29412,107.87087 "
       id="polygon568" />
    <polygon
       points="218.4708,244.80465 218.4708,242.35965 220.58824,241.13715 222.70567,242.35965 222.70567,244.80465 220.58824,246.02715 "
       id="polygon570" />
    <polygon
       points="214.23529,247.25002 214.23529,239.91428 220.58824,236.2464 226.94118,239.91428 226.94118,247.25002 220.58824,250.91789 "
       id="polygon572" />
    <polygon
       points="207.88235,236.2464 207.88235,228.91066 214.23529,225.24279 220.58824,228.91066 220.58824,236.2464 214.23529,239.91428 "
       id="polygon574" />
    <polygon
       points="201.52941,225.24279 201.52941,217.90704 207.88235,214.23917 214.23529,217.90704 214.23529,225.24279 207.88235,228.91066 "
       id="polygon576" />
    <polygon
       points="198.35294,212.40523 198.35294,208.73736 201.52941,206.90343 204.70588,208.73736 204.70588,212.40523 201.52941,214.23917 "
       id="polygon578" />
    <polygon
       points="195.17647,214.23917 195.17647,206.90343 201.52941,203.23555 207.88235,206.90343 207.88235,214.23917 201.52941,217.90704 "
       id="polygon580" />
    <polygon
       points="188.82353,203.23555 188.82353,195.89981 195.17647,192.23194 201.52941,195.89981 201.52941,203.23555 195.17647,206.90343 "
       id="polygon582" />
    <polygon
       points="186.70609,189.78657 186.70609,187.34156 188.82353,186.11906 190.94096,187.34156 190.94096,189.78657 188.82353,191.00907 "
       id="polygon584" />
    <polygon
       points="182.47059,192.23194 182.47059,184.89619 188.82353,181.22832 195.17647,184.89619 195.17647,192.23194 188.82353,195.89981 "
       id="polygon586" />
    <polygon
       points="179.29412,179.39438 179.29412,175.72651 182.47059,173.89258 185.64706,175.72651 185.64706,179.39438 182.47059,181.22832 "
       id="polygon588" />
    <polygon
       points="176.11765,181.22832 176.11765,173.89258 182.47059,170.2247 188.82353,173.89258 188.82353,181.22832 182.47059,184.89619 "
       id="polygon590" />
    <polygon
       points="169.76471,170.2247 169.76471,162.88896 176.11765,159.22109 182.47059,162.88896 182.47059,170.2247 176.11765,173.89258 "
       id="polygon592" />
    <polygon
       points="163.41176,159.22109 163.41176,151.88534 169.76471,148.21747 176.11765,151.88534 176.11765,159.22109 169.76471,162.88896 "
       id="polygon594" />
    <polygon
       points="161.29433,145.7721 161.29433,143.3271 163.41176,142.10459 165.5292,143.3271 165.5292,145.7721 163.41176,146.9946 "
       id="polygon596" />
    <polygon
       points="157.05882,148.21747 157.05882,140.88172 163.41176,137.21385 169.76471,140.88172 169.76471,148.21747 163.41176,151.88534 "
       id="polygon598" />
    <polygon
       points="150.70588,137.21385 150.70588,129.87811 157.05882,126.21024 163.41176,129.87811 163.41176,137.21385 157.05882,140.88172 "
       id="polygon600" />
    <polygon
       points="147.52941,124.3763 147.52941,120.70843 150.70588,118.87449 153.88235,120.70843 153.88235,124.3763 150.70588,126.21024 "
       id="polygon602" />
    <polygon
       points="144.35294,126.21024 144.35294,118.87449 150.70588,115.20662 157.05882,118.87449 157.05882,126.21024 150.70588,129.87811 "
       id="polygon604" />
    <polygon
       points="138,115.20662 138,107.87087 144.35294,104.203 150.70588,107.87087 150.70588,115.20662 144.35294,118.87449 "
       id="polygon606" />
    <polygon
       points="131.64706,104.203 131.64706,96.867257 138,93.199385 144.35294,96.867257 144.35294,104.203 138,107.87087 "
       id="polygon608" />
    <polygon
       points="129.52962,90.754014 129.52962,88.309011 131.64706,87.086509 133.76449,88.309011 133.76449,90.754014 131.64706,91.976516 "
       id="polygon610" />
    <polygon
       points="125.29412,93.199385 125.29412,85.86364 131.64706,82.195768 138,85.86364 138,93.199385 131.64706,96.867257 "
       id="polygon612" />
    <polygon
       points="230.11765,245.41609 230.11765,241.74821 233.29412,239.91428 236.47059,241.74821 236.47059,245.41609 233.29412,247.25002 "
       id="polygon614" />
    <polygon
       points="226.94118,247.25002 226.94118,239.91428 233.29412,236.2464 239.64706,239.91428 239.64706,247.25002 233.29412,250.91789 "
       id="polygon616" />
    <polygon
       points="224.82374,233.80103 224.82374,231.35603 226.94118,230.13353 229.05861,231.35603 229.05861,233.80103 226.94118,235.02354 "
       id="polygon618" />
    <polygon
       points="220.58824,236.2464 220.58824,228.91066 226.94118,225.24279 233.29412,228.91066 233.29412,236.2464 226.94118,239.91428 "
       id="polygon620" />
    <polygon
       points="217.41176,223.40885 217.41176,219.74098 220.58824,217.90704 223.76471,219.74098 223.76471,223.40885 220.58824,225.24279 "
       id="polygon622" />
    <polygon
       points="214.23529,225.24279 214.23529,217.90704 220.58824,214.23917 226.94118,217.90704 226.94118,225.24279 220.58824,228.91066 "
       id="polygon624" />
    <polygon
       points="211.05882,212.40523 211.05882,208.73736 214.23529,206.90343 217.41176,208.73736 217.41176,212.40523 214.23529,214.23917 "
       id="polygon626" />
    <polygon
       points="207.88235,214.23917 207.88235,206.90343 214.23529,203.23555 220.58824,206.90343 220.58824,214.23917 214.23529,217.90704 "
       id="polygon628" />
    <polygon
       points="205.76492,200.79018 205.76492,198.34518 207.88235,197.12268 209.99979,198.34518 209.99979,200.79018 207.88235,202.01269 "
       id="polygon630" />
    <polygon
       points="201.52941,203.23555 201.52941,195.89981 207.88235,192.23194 214.23529,195.89981 214.23529,203.23555 207.88235,206.90343 "
       id="polygon632" />
    <polygon
       points="199.41198,189.78657 199.41198,187.34156 201.52941,186.11906 203.64685,187.34156 203.64685,189.78657 201.52941,191.00907 "
       id="polygon634" />
    <polygon
       points="195.17647,192.23194 195.17647,184.89619 201.52941,181.22832 207.88235,184.89619 207.88235,192.23194 201.52941,195.89981 "
       id="polygon636" />
    <polygon
       points="193.05904,178.78295 193.05904,176.33795 195.17647,175.11544 197.29391,176.33795 197.29391,178.78295 195.17647,180.00545 "
       id="polygon638" />
    <polygon
       points="188.82353,181.22832 188.82353,173.89258 195.17647,170.2247 201.52941,173.89258 201.52941,181.22832 195.17647,184.89619 "
       id="polygon640" />
    <polygon
       points="185.64706,168.39077 185.64706,164.72289 188.82353,162.88896 192,164.72289 192,168.39077 188.82353,170.2247 "
       id="polygon642" />
    <polygon
       points="182.47059,170.2247 182.47059,162.88896 188.82353,159.22109 195.17647,162.88896 195.17647,170.2247 188.82353,173.89258 "
       id="polygon644" />
    <polygon
       points="179.29412,157.38715 179.29412,153.71928 182.47059,151.88534 185.64706,153.71928 185.64706,157.38715 182.47059,159.22109 "
       id="polygon646" />
    <polygon
       points="176.11765,159.22109 176.11765,151.88534 182.47059,148.21747 188.82353,151.88534 188.82353,159.22109 182.47059,162.88896 "
       id="polygon648" />
    <polygon
       points="172.94118,146.38353 172.94118,142.71566 176.11765,140.88172 179.29412,142.71566 179.29412,146.38353 176.11765,148.21747 "
       id="polygon650" />
    <polygon
       points="169.76471,148.21747 169.76471,140.88172 176.11765,137.21385 182.47059,140.88172 182.47059,148.21747 176.11765,151.88534 "
       id="polygon652" />
    <polygon
       points="166.58824,135.37992 166.58824,131.71204 169.76471,129.87811 172.94118,131.71204 172.94118,135.37992 169.76471,137.21385 "
       id="polygon654" />
    <polygon
       points="163.41176,137.21385 163.41176,129.87811 169.76471,126.21024 176.11765,129.87811 176.11765,137.21385 169.76471,140.88172 "
       id="polygon656" />
    <polygon
       points="161.29433,123.76487 161.29433,121.31986 163.41176,120.09736 165.5292,121.31986 165.5292,123.76487 163.41176,124.98737 "
       id="polygon658" />
    <polygon
       points="157.05882,126.21024 157.05882,118.87449 163.41176,115.20662 169.76471,118.87449 169.76471,126.21024 163.41176,129.87811 "
       id="polygon660" />
    <polygon
       points="154.94139,112.76125 154.94139,110.31624 157.05882,109.09374 159.17626,110.31624 159.17626,112.76125 157.05882,113.98375 "
       id="polygon662" />
    <polygon
       points="150.70588,115.20662 150.70588,107.87087 157.05882,104.203 163.41176,107.87087 163.41176,115.20662 157.05882,118.87449 "
       id="polygon664" />
    <polygon
       points="147.52941,102.36907 147.52941,98.701193 150.70588,96.867257 153.88235,98.701193 153.88235,102.36907 150.70588,104.203 "
       id="polygon666" />
    <polygon
       points="144.35294,104.203 144.35294,96.867257 150.70588,93.199385 157.05882,96.867257 157.05882,104.203 150.70588,107.87087 "
       id="polygon668" />
    <polygon
       points="141.17647,91.365449 141.17647,87.697576 144.35294,85.86364 147.52941,87.697576 147.52941,91.365449 144.35294,93.199385 "
       id="polygon670" />
    <polygon
       points="138,93.199385 138,85.86364 144.35294,82.195768 150.70588,85.86364 150.70588,93.199385 144.35294,96.867257 "
       id="polygon672" />
    <polygon
       points="135.88256,79.750397 135.88256,77.305394 138,76.082892 140.11744,77.305394 140.11744,79.750397 138,80.972899 "
       id="polygon674" />
    <polygon
       points="131.64706,82.195768 131.64706,74.860023 138,71.192151 144.35294,74.860023 144.35294,82.195768 138,85.86364 "
       id="polygon676" />
  </g>
  <plotdata
     application="axidraw"
     model="1"
     plob_version="n/a"
     layer="-2"
     pause_dist="-25400"
     pause_ref="-25400"
     last_x="-5.307265044107723e-14"
     last_y="-3.551395288958758e-14"
     rand_seed="170811364525"
     row="0" />
</svg>
