<svg style="fill:none;stroke:#000000;" xmlns="http://www.w3.org/2000/svg" width="1056" height="816"><path stroke="red" stroke-width="2" d="M 29.999999999999993 337.8460969082653 L 246.0 337.8460969082653 Q 258 337.8460969082653 258.0 321.8460969082653 L 258.0 261.8460969082653 Q 258 257.8460969082653 252.0 247.45379206285202 L 144.0 60.392304845413264 Q 138.0 50 132.0 60.392304845413264 L 23.999999999999996 247.45379206285202 Q 18 257.8460969082653 17.999999999999996 261.8460969082653 L 17.999999999999996 321.8460969082653 Q 18 337.8460969082653 29.999999999999993 337.8460969082653 Z " fill="none"/> <polygon points="45.88235294117647 245.41608523041802 42.705882352941174 247.2500213796086 39.52941176470588 245.41608523041802 39.52941176470588 241.74821293203686 42.705882352941174 239.9142767828463 45.88235294117647 241.74821293203686"/> <polygon points="49.05882352941176 247.2500213796086 42.705882352941174 250.91789367798975 36.35294117647059 247.2500213796086 36.35294117647059 239.9142767828463 42.705882352941174 236.24640448446513 49.05882352941176 239.9142767828463"/> <polygon points="61.764705882352935 247.2500213796086 55.41176470588235 250.91789367798975 49.05882352941176 247.2500213796086 49.05882352941176 239.9142767828463 55.41176470588235 236.24640448446513 61.764705882352935 239.9142767828463"/> <polygon points="52.23529411764706 234.41246833527455 49.05882352941176 236.24640448446513 45.882352941176464 234.41246833527455 45.882352941176464 230.7445960368934 49.05882352941176 228.91065988770282 52.23529411764706 230.7445960368934"/> <polygon points="55.41176470588235 236.24640448446513 49.05882352941176 239.9142767828463 42.705882352941174 236.24640448446513 42.705882352941174 228.91065988770282 49.05882352941176 225.24278758932167 55.41176470588235 228.91065988770282"/> <polygon points="71.29411764705883 245.41608523041802 68.11764705882354 247.2500213796086 64.94117647058825 245.41608523041802 64.94117647058825 241.74821293203686 68.11764705882354 239.9142767828463 71.29411764705883 241.74821293203686"/> <polygon points="74.47058823529413 247.2500213796086 68.11764705882354 250.91789367798975 61.76470588235295 247.2500213796086 61.76470588235295 239.9142767828463 68.11764705882354 236.24640448446513 74.47058823529413 239.9142767828463"/> <polygon points="64.94117647058823 234.41246833527455 61.76470588235294 236.24640448446513 58.588235294117645 234.41246833527455 58.588235294117645 230.7445960368934 61.76470588235294 228.91065988770282 64.94117647058823 230.7445960368934"/> <polygon points="68.11764705882354 236.24640448446513 61.76470588235294 239.9142767828463 55.411764705882355 236.24640448446513 55.411764705882355 228.91065988770282 61.76470588235294 225.24278758932167 68.11764705882354 228.91065988770282"/> <polygon points="58.588235294117645 223.40885144013114 55.41176470588235 225.24278758932172 52.23529411764705 223.40885144013114 52.23529411764705 219.74097914175 55.41176470588235 217.9070429925594 58.588235294117645 219.74097914175"/> <polygon points="61.764705882352935 225.24278758932172 55.41176470588235 228.91065988770288 49.05882352941176 225.24278758932172 49.05882352941176 217.9070429925594 55.41176470588235 214.23917069417826 61.764705882352935 217.9070429925594"/> <polygon points="84.0 245.41608523041802 80.82352941176471 247.2500213796086 77.64705882352942 245.41608523041802 77.64705882352942 241.74821293203686 80.82352941176471 239.9142767828463 84.0 241.74821293203686"/> <polygon points="87.1764705882353 247.2500213796086 80.82352941176471 250.91789367798975 74.47058823529412 247.2500213796086 74.47058823529412 239.9142767828463 80.82352941176471 236.24640448446513 87.1764705882353 239.9142767828463"/> <polygon points="80.82352941176471 236.24640448446513 74.47058823529412 239.9142767828463 68.11764705882352 236.24640448446513 68.11764705882352 228.91065988770282 74.47058823529412 225.24278758932167 80.82352941176471 228.91065988770282"/> <polygon points="74.47058823529413 225.24278758932172 68.11764705882354 228.91065988770288 61.76470588235295 225.24278758932172 61.76470588235295 217.9070429925594 68.11764705882354 214.23917069417826 74.47058823529413 217.9070429925594"/> <polygon points="64.94117647058823 212.40523454498768 61.76470588235294 214.23917069417826 58.588235294117645 212.40523454498768 58.588235294117645 208.73736224660652 61.76470588235294 206.90342609741595 64.94117647058823 208.73736224660652"/> <polygon points="68.11764705882354 214.23917069417826 61.76470588235294 217.9070429925594 55.411764705882355 214.23917069417826 55.411764705882355 206.90342609741595 61.76470588235294 203.2355537990348 68.11764705882354 206.90342609741595"/> <polygon points="99.88235294117648 247.2500213796086 93.52941176470588 250.91789367798975 87.17647058823529 247.2500213796086 87.17647058823529 239.9142767828463 93.52941176470588 236.24640448446513 99.88235294117648 239.9142767828463"/> <polygon points="90.35294117647058 234.41246833527455 87.17647058823529 236.24640448446513 84.0 234.41246833527455 84.0 230.7445960368934 87.17647058823529 228.91065988770282 90.35294117647058 230.7445960368934"/> <polygon points="93.52941176470588 236.24640448446513 87.17647058823529 239.9142767828463 80.8235294117647 236.24640448446513 80.8235294117647 228.91065988770282 87.17647058823529 225.24278758932167 93.52941176470588 228.91065988770282"/> <polygon points="87.1764705882353 225.24278758932172 80.82352941176471 228.91065988770288 74.47058823529412 225.24278758932172 74.47058823529412 217.9070429925594 80.82352941176471 214.23917069417826 87.1764705882353 217.9070429925594"/> <polygon points="80.82352941176471 214.23917069417826 74.47058823529412 217.9070429925594 68.11764705882352 214.23917069417826 68.11764705882352 206.90342609741595 74.47058823529412 203.2355537990348 80.82352941176471 206.90342609741595"/> <polygon points="71.29411764705883 201.4016176498442 68.11764705882354 203.2355537990348 64.94117647058825 201.4016176498442 64.94117647058825 197.73374535146306 68.11764705882354 195.89980920227248 71.29411764705883 197.73374535146306"/> <polygon points="74.47058823529413 203.2355537990348 68.11764705882354 206.90342609741595 61.76470588235295 203.2355537990348 61.76470588235295 195.89980920227248 68.11764705882354 192.23193690389132 74.47058823529413 195.89980920227248"/> <polygon points="112.58823529411765 247.2500213796086 106.23529411764706 250.91789367798975 99.88235294117646 247.2500213796086 99.88235294117646 239.9142767828463 106.23529411764706 236.24640448446513 112.58823529411765 239.9142767828463"/> <polygon points="103.05882352941175 234.41246833527455 99.88235294117646 236.24640448446513 96.70588235294117 234.41246833527455 96.70588235294117 230.7445960368934 99.88235294117646 228.91065988770282 103.05882352941175 230.7445960368934"/> <polygon points="106.23529411764706 236.24640448446513 99.88235294117646 239.9142767828463 93.52941176470587 236.24640448446513 93.52941176470587 228.91065988770282 99.88235294117646 225.24278758932167 106.23529411764706 228.91065988770282"/> <polygon points="96.70588235294117 223.40885144013114 93.52941176470588 225.24278758932172 90.3529411764706 223.40885144013114 90.3529411764706 219.74097914175 93.52941176470588 217.9070429925594 96.70588235294117 219.74097914175"/> <polygon points="99.88235294117648 225.24278758932172 93.52941176470588 228.91065988770288 87.17647058823529 225.24278758932172 87.17647058823529 217.9070429925594 93.52941176470588 214.23917069417826 99.88235294117648 217.9070429925594"/> <polygon points="90.35294117647058 212.40523454498768 87.17647058823529 214.23917069417826 84.0 212.40523454498768 84.0 208.73736224660652 87.17647058823529 206.90342609741595 90.35294117647058 208.73736224660652"/> <polygon points="93.52941176470588 214.23917069417826 87.17647058823529 217.9070429925594 80.8235294117647 214.23917069417826 80.8235294117647 206.90342609741595 87.17647058823529 203.2355537990348 93.52941176470588 206.90342609741595"/> <polygon points="84.0 201.4016176498442 80.82352941176471 203.2355537990348 77.64705882352942 201.4016176498442 77.64705882352942 197.73374535146306 80.82352941176471 195.89980920227248 84.0 197.73374535146306"/> <polygon points="87.1764705882353 203.2355537990348 80.82352941176471 206.90342609741595 74.47058823529412 203.2355537990348 74.47058823529412 195.89980920227248 80.82352941176471 192.23193690389132 87.1764705882353 195.89980920227248"/> <polygon points="77.6470588235294 190.39800075470075 74.47058823529412 192.23193690389132 71.29411764705883 190.39800075470075 71.29411764705883 186.7301284563196 74.47058823529412 184.896192307129 77.6470588235294 186.7301284563196"/> <polygon points="80.82352941176471 192.23193690389132 74.47058823529412 195.89980920227248 68.11764705882352 192.23193690389132 68.11764705882352 184.896192307129 74.47058823529412 181.22832000874786 80.82352941176471 184.896192307129"/> <polygon points="122.11764705882352 245.41608523041802 118.94117647058823 247.2500213796086 115.76470588235294 245.41608523041802 115.76470588235294 241.74821293203686 118.94117647058823 239.9142767828463 122.11764705882352 241.74821293203686"/> <polygon points="125.29411764705883 247.2500213796086 118.94117647058823 250.91789367798975 112.58823529411764 247.2500213796086 112.58823529411764 239.9142767828463 118.94117647058823 236.24640448446513 125.29411764705883 239.9142767828463"/> <polygon points="118.94117647058825 236.24640448446513 112.58823529411765 239.9142767828463 106.23529411764706 236.24640448446513 106.23529411764706 228.91065988770282 112.58823529411765 225.24278758932167 118.94117647058825 228.91065988770282"/> <polygon points="109.41176470588235 223.40885144013114 106.23529411764706 225.24278758932172 103.05882352941177 223.40885144013114 103.05882352941177 219.74097914175 106.23529411764706 217.9070429925594 109.41176470588235 219.74097914175"/> <polygon points="112.58823529411765 225.24278758932172 106.23529411764706 228.91065988770288 99.88235294117646 225.24278758932172 99.88235294117646 217.9070429925594 106.23529411764706 214.23917069417826 112.58823529411765 217.9070429925594"/> <polygon points="106.23529411764706 214.23917069417826 99.88235294117646 217.9070429925594 93.52941176470587 214.23917069417826 93.52941176470587 206.90342609741595 99.88235294117646 203.2355537990348 106.23529411764706 206.90342609741595"/> <polygon points="99.88235294117648 203.2355537990348 93.52941176470588 206.90342609741595 87.17647058823529 203.2355537990348 87.17647058823529 195.89980920227248 93.52941176470588 192.23193690389132 99.88235294117648 195.89980920227248"/> <polygon points="93.52941176470588 192.23193690389132 87.17647058823529 195.89980920227248 80.8235294117647 192.23193690389132 80.8235294117647 184.896192307129 87.17647058823529 181.22832000874786 93.52941176470588 184.896192307129"/> <polygon points="84.0 179.39438385955734 80.82352941176471 181.22832000874791 77.64705882352942 179.39438385955734 77.64705882352942 175.72651156117618 80.82352941176471 173.8925754119856 84.0 175.72651156117618"/> <polygon points="87.1764705882353 181.22832000874791 80.82352941176471 184.89619230712907 74.47058823529412 181.22832000874791 74.47058823529412 173.8925754119856 80.82352941176471 170.22470311360445 87.1764705882353 173.8925754119856"/> <polygon points="137.99999999999997 247.2500213796086 131.6470588235294 250.91789367798975 125.2941176470588 247.2500213796086 125.2941176470588 239.9142767828463 131.6470588235294 236.24640448446513 137.99999999999997 239.9142767828463"/> <polygon points="131.6470588235294 236.24640448446513 125.29411764705881 239.9142767828463 118.94117647058822 236.24640448446513 118.94117647058822 228.91065988770282 125.29411764705881 225.24278758932167 131.6470588235294 228.91065988770282"/> <polygon points="122.11764705882352 223.40885144013114 118.94117647058823 225.24278758932172 115.76470588235294 223.40885144013114 115.76470588235294 219.74097914175 118.94117647058823 217.9070429925594 122.11764705882352 219.74097914175"/> <polygon points="125.29411764705883 225.24278758932172 118.94117647058823 228.91065988770288 112.58823529411764 225.24278758932172 112.58823529411764 217.9070429925594 118.94117647058823 214.23917069417826 125.29411764705883 217.9070429925594"/> <polygon points="118.94117647058825 214.23917069417826 112.58823529411765 217.9070429925594 106.23529411764706 214.23917069417826 106.23529411764706 206.90342609741595 112.58823529411765 203.2355537990348 118.94117647058825 206.90342609741595"/> <polygon points="109.41176470588235 201.4016176498442 106.23529411764706 203.2355537990348 103.05882352941177 201.4016176498442 103.05882352941177 197.73374535146306 106.23529411764706 195.89980920227248 109.41176470588235 197.73374535146306"/> <polygon points="112.58823529411765 203.2355537990348 106.23529411764706 206.90342609741595 99.88235294117646 203.2355537990348 99.88235294117646 195.89980920227248 106.23529411764706 192.23193690389132 112.58823529411765 195.89980920227248"/> <polygon points="103.05882352941175 190.39800075470075 99.88235294117646 192.23193690389132 96.70588235294117 190.39800075470075 96.70588235294117 186.7301284563196 99.88235294117646 184.896192307129 103.05882352941175 186.7301284563196"/> <polygon points="106.23529411764706 192.23193690389132 99.88235294117646 195.89980920227248 93.52941176470587 192.23193690389132 93.52941176470587 184.896192307129 99.88235294117646 181.22832000874786 106.23529411764706 184.896192307129"/> <polygon points="99.88235294117648 181.22832000874791 93.52941176470588 184.89619230712907 87.17647058823529 181.22832000874791 87.17647058823529 173.8925754119856 93.52941176470588 170.22470311360445 99.88235294117648 173.8925754119856"/> <polygon points="90.35294117647058 168.39076696441387 87.17647058823529 170.22470311360445 84.0 168.39076696441387 84.0 164.72289466603272 87.17647058823529 162.88895851684214 90.35294117647058 164.72289466603272"/> <polygon points="93.52941176470588 170.22470311360445 87.17647058823529 173.8925754119856 80.8235294117647 170.22470311360445 80.8235294117647 162.88895851684214 87.17647058823529 159.22108621846098 93.52941176470588 162.88895851684214"/> <polygon points="147.5294117647059 245.41608523041802 144.3529411764706 247.2500213796086 141.1764705882353 245.41608523041802 141.1764705882353 241.74821293203686 144.3529411764706 239.9142767828463 147.5294117647059 241.74821293203686"/> <polygon points="150.7058823529412 247.2500213796086 144.3529411764706 250.91789367798975 138.00000000000003 247.2500213796086 138.00000000000003 239.9142767828463 144.3529411764706 236.24640448446513 150.7058823529412 239.9142767828463"/> <polygon points="144.35294117647058 236.24640448446513 138.0 239.9142767828463 131.64705882352942 236.24640448446513 131.64705882352942 228.91065988770282 138.0 225.24278758932167 144.35294117647058 228.91065988770282"/> <polygon points="134.8235294117647 223.40885144013114 131.6470588235294 225.24278758932172 128.4705882352941 223.40885144013114 128.4705882352941 219.74097914175 131.6470588235294 217.9070429925594 134.8235294117647 219.74097914175"/> <polygon points="137.99999999999997 225.24278758932172 131.6470588235294 228.91065988770288 125.2941176470588 225.24278758932172 125.2941176470588 217.9070429925594 131.6470588235294 214.23917069417826 137.99999999999997 217.9070429925594"/> <polygon points="131.6470588235294 214.23917069417826 125.29411764705881 217.9070429925594 118.94117647058822 214.23917069417826 118.94117647058822 206.90342609741595 125.29411764705881 203.2355537990348 131.6470588235294 206.90342609741595"/> <polygon points="125.29411764705883 203.2355537990348 118.94117647058823 206.90342609741595 112.58823529411764 203.2355537990348 112.58823529411764 195.89980920227248 118.94117647058823 192.23193690389132 125.29411764705883 195.89980920227248"/> <polygon points="118.94117647058825 192.23193690389132 112.58823529411765 195.89980920227248 106.23529411764706 192.23193690389132 106.23529411764706 184.896192307129 112.58823529411765 181.22832000874786 118.94117647058825 184.896192307129"/> <polygon points="112.58823529411765 181.22832000874791 106.23529411764706 184.89619230712907 99.88235294117646 181.22832000874791 99.88235294117646 173.8925754119856 106.23529411764706 170.22470311360445 112.58823529411765 173.8925754119856"/> <polygon points="103.05882352941175 168.39076696441387 99.88235294117646 170.22470311360445 96.70588235294117 168.39076696441387 96.70588235294117 164.72289466603272 99.88235294117646 162.88895851684214 103.05882352941175 164.72289466603272"/> <polygon points="106.23529411764706 170.22470311360445 99.88235294117646 173.8925754119856 93.52941176470587 170.22470311360445 93.52941176470587 162.88895851684214 99.88235294117646 159.22108621846098 106.23529411764706 162.88895851684214"/> <polygon points="96.70588235294117 157.3871500692704 93.52941176470588 159.22108621846098 90.3529411764706 157.3871500692704 90.3529411764706 153.71927777088925 93.52941176470588 151.88534162169867 96.70588235294117 153.71927777088925"/> <polygon points="99.88235294117648 159.22108621846098 93.52941176470588 162.88895851684214 87.17647058823529 159.22108621846098 87.17647058823529 151.88534162169867 93.52941176470588 148.21746932331752 99.88235294117648 151.88534162169867"/> <polygon points="160.23529411764707 245.41608523041802 157.05882352941177 247.2500213796086 153.88235294117646 245.41608523041802 153.88235294117646 241.74821293203686 157.05882352941177 239.9142767828463 160.23529411764707 241.74821293203686"/> <polygon points="163.41176470588235 247.2500213796086 157.05882352941177 250.91789367798975 150.7058823529412 247.2500213796086 150.7058823529412 239.9142767828463 157.05882352941177 236.24640448446513 163.41176470588235 239.9142767828463"/> <polygon points="157.05882352941174 236.24640448446513 150.70588235294116 239.9142767828463 144.35294117647058 236.24640448446513 144.35294117647058 228.91065988770282 150.70588235294116 225.24278758932167 157.05882352941174 228.91065988770282"/> <polygon points="150.7058823529412 225.24278758932172 144.3529411764706 228.91065988770288 138.00000000000003 225.24278758932172 138.00000000000003 217.9070429925594 144.3529411764706 214.23917069417826 150.7058823529412 217.9070429925594"/> <polygon points="141.1764705882353 212.40523454498768 138.0 214.23917069417826 134.8235294117647 212.40523454498768 134.8235294117647 208.73736224660652 138.0 206.90342609741595 141.1764705882353 208.73736224660652"/> <polygon points="144.35294117647058 214.23917069417826 138.0 217.9070429925594 131.64705882352942 214.23917069417826 131.64705882352942 206.90342609741595 138.0 203.2355537990348 144.35294117647058 206.90342609741595"/> <polygon points="137.99999999999997 203.2355537990348 131.6470588235294 206.90342609741595 125.2941176470588 203.2355537990348 125.2941176470588 195.89980920227248 131.6470588235294 192.23193690389132 137.99999999999997 195.89980920227248"/> <polygon points="128.47058823529412 190.39800075470075 125.29411764705881 192.23193690389132 122.11764705882352 190.39800075470075 122.11764705882352 186.7301284563196 125.29411764705881 184.896192307129 128.47058823529412 186.7301284563196"/> <polygon points="131.6470588235294 192.23193690389132 125.29411764705881 195.89980920227248 118.94117647058822 192.23193690389132 118.94117647058822 184.896192307129 125.29411764705881 181.22832000874786 131.6470588235294 184.896192307129"/> <polygon points="122.11764705882352 179.39438385955734 118.94117647058823 181.22832000874791 115.76470588235294 179.39438385955734 115.76470588235294 175.72651156117618 118.94117647058823 173.8925754119856 122.11764705882352 175.72651156117618"/> <polygon points="125.29411764705883 181.22832000874791 118.94117647058823 184.89619230712907 112.58823529411764 181.22832000874791 112.58823529411764 173.8925754119856 118.94117647058823 170.22470311360445 125.29411764705883 173.8925754119856"/> <polygon points="115.76470588235294 168.39076696441387 112.58823529411765 170.22470311360445 109.41176470588236 168.39076696441387 109.41176470588236 164.72289466603272 112.58823529411765 162.88895851684214 115.76470588235294 164.72289466603272"/> <polygon points="118.94117647058825 170.22470311360445 112.58823529411765 173.8925754119856 106.23529411764706 170.22470311360445 106.23529411764706 162.88895851684214 112.58823529411765 159.22108621846098 118.94117647058825 162.88895851684214"/> <polygon points="112.58823529411765 159.22108621846098 106.23529411764706 162.88895851684214 99.88235294117646 159.22108621846098 99.88235294117646 151.88534162169867 106.23529411764706 148.21746932331752 112.58823529411765 151.88534162169867"/> <polygon points="103.05882352941175 146.38353317412694 99.88235294117646 148.21746932331752 96.70588235294117 146.38353317412694 96.70588235294117 142.71566087574578 99.88235294117646 140.8817247265552 103.05882352941175 142.71566087574578"/> <polygon points="106.23529411764706 148.21746932331752 99.88235294117646 151.88534162169867 93.52941176470587 148.21746932331752 93.52941176470587 140.8817247265552 99.88235294117646 137.21385242817405 106.23529411764706 140.8817247265552"/> <polygon points="172.94117647058823 245.41608523041802 169.76470588235293 247.2500213796086 166.58823529411762 245.41608523041802 166.58823529411762 241.74821293203686 169.76470588235293 239.9142767828463 172.94117647058823 241.74821293203686"/> <polygon points="176.1176470588235 247.2500213796086 169.76470588235293 250.91789367798975 163.41176470588235 247.2500213796086 163.41176470588235 239.9142767828463 169.76470588235293 236.24640448446513 176.1176470588235 239.9142767828463"/> <polygon points="169.7647058823529 236.24640448446513 163.41176470588232 239.9142767828463 157.05882352941174 236.24640448446513 157.05882352941174 228.91065988770282 163.41176470588232 225.24278758932167 169.7647058823529 228.91065988770282"/> <polygon points="160.23529411764707 223.40885144013114 157.05882352941177 225.24278758932172 153.88235294117646 223.40885144013114 153.88235294117646 219.74097914175 157.05882352941177 217.9070429925594 160.23529411764707 219.74097914175"/> <polygon points="163.41176470588235 225.24278758932172 157.05882352941177 228.91065988770288 150.7058823529412 225.24278758932172 150.7058823529412 217.9070429925594 157.05882352941177 214.23917069417826 163.41176470588235 217.9070429925594"/> <polygon points="157.05882352941174 214.23917069417826 150.70588235294116 217.9070429925594 144.35294117647058 214.23917069417826 144.35294117647058 206.90342609741595 150.70588235294116 203.2355537990348 157.05882352941174 206.90342609741595"/> <polygon points="147.5294117647059 201.4016176498442 144.3529411764706 203.2355537990348 141.1764705882353 201.4016176498442 141.1764705882353 197.73374535146306 144.3529411764706 195.89980920227248 147.5294117647059 197.73374535146306"/> <polygon points="150.7058823529412 203.2355537990348 144.3529411764706 206.90342609741595 138.00000000000003 203.2355537990348 138.00000000000003 195.89980920227248 144.3529411764706 192.23193690389132 150.7058823529412 195.89980920227248"/> <polygon points="144.35294117647058 192.23193690389132 138.0 195.89980920227248 131.64705882352942 192.23193690389132 131.64705882352942 184.896192307129 138.0 181.22832000874786 144.35294117647058 184.896192307129"/> <polygon points="137.99999999999997 181.22832000874791 131.6470588235294 184.89619230712907 125.2941176470588 181.22832000874791 125.2941176470588 173.8925754119856 131.6470588235294 170.22470311360445 137.99999999999997 173.8925754119856"/> <polygon points="128.47058823529412 168.39076696441387 125.29411764705881 170.22470311360445 122.11764705882352 168.39076696441387 122.11764705882352 164.72289466603272 125.29411764705881 162.88895851684214 128.47058823529412 164.72289466603272"/> <polygon points="131.6470588235294 170.22470311360445 125.29411764705881 173.8925754119856 118.94117647058822 170.22470311360445 118.94117647058822 162.88895851684214 125.29411764705881 159.22108621846098 131.6470588235294 162.88895851684214"/> <polygon points="125.29411764705883 159.22108621846098 118.94117647058823 162.88895851684214 112.58823529411764 159.22108621846098 112.58823529411764 151.88534162169867 118.94117647058823 148.21746932331752 125.29411764705883 151.88534162169867"/> <polygon points="118.94117647058825 148.21746932331752 112.58823529411765 151.88534162169867 106.23529411764706 148.21746932331752 106.23529411764706 140.8817247265552 112.58823529411765 137.21385242817405 118.94117647058825 140.8817247265552"/> <polygon points="109.41176470588235 135.37991627898347 106.23529411764706 137.21385242817405 103.05882352941177 135.37991627898347 103.05882352941177 131.71204398060232 106.23529411764706 129.87810783141174 109.41176470588235 131.71204398060232"/> <polygon points="112.58823529411765 137.21385242817405 106.23529411764706 140.8817247265552 99.88235294117646 137.21385242817405 99.88235294117646 129.87810783141174 106.23529411764706 126.21023553303058 112.58823529411765 129.87810783141174"/> <polygon points="185.6470588235294 245.41608523041802 182.4705882352941 247.2500213796086 179.29411764705878 245.41608523041802 179.29411764705878 241.74821293203686 182.4705882352941 239.9142767828463 185.6470588235294 241.74821293203686"/> <polygon points="188.82352941176467 247.2500213796086 182.4705882352941 250.91789367798975 176.1176470588235 247.2500213796086 176.1176470588235 239.9142767828463 182.4705882352941 236.24640448446513 188.82352941176467 239.9142767828463"/> <polygon points="182.47058823529412 236.24640448446513 176.11764705882354 239.9142767828463 169.76470588235296 236.24640448446513 169.76470588235296 228.91065988770282 176.11764705882354 225.24278758932167 182.47058823529412 228.91065988770282"/> <polygon points="176.1176470588235 225.24278758932172 169.76470588235293 228.91065988770288 163.41176470588235 225.24278758932172 163.41176470588235 217.9070429925594 169.76470588235293 214.23917069417826 176.1176470588235 217.9070429925594"/> <polygon points="166.58823529411762 212.40523454498768 163.41176470588232 214.23917069417826 160.23529411764702 212.40523454498768 160.23529411764702 208.73736224660652 163.41176470588232 206.90342609741595 166.58823529411762 208.73736224660652"/> <polygon points="169.7647058823529 214.23917069417826 163.41176470588232 217.9070429925594 157.05882352941174 214.23917069417826 157.05882352941174 206.90342609741595 163.41176470588232 203.2355537990348 169.7647058823529 206.90342609741595"/> <polygon points="163.41176470588235 203.2355537990348 157.05882352941177 206.90342609741595 150.7058823529412 203.2355537990348 150.7058823529412 195.89980920227248 157.05882352941177 192.23193690389132 163.41176470588235 195.89980920227248"/> <polygon points="157.05882352941174 192.23193690389132 150.70588235294116 195.89980920227248 144.35294117647058 192.23193690389132 144.35294117647058 184.896192307129 150.70588235294116 181.22832000874786 157.05882352941174 184.896192307129"/> <polygon points="147.5294117647059 179.39438385955734 144.3529411764706 181.22832000874791 141.1764705882353 179.39438385955734 141.1764705882353 175.72651156117618 144.3529411764706 173.8925754119856 147.5294117647059 175.72651156117618"/> <polygon points="150.7058823529412 181.22832000874791 144.3529411764706 184.89619230712907 138.00000000000003 181.22832000874791 138.00000000000003 173.8925754119856 144.3529411764706 170.22470311360445 150.7058823529412 173.8925754119856"/> <polygon points="141.1764705882353 168.39076696441387 138.0 170.22470311360445 134.8235294117647 168.39076696441387 134.8235294117647 164.72289466603272 138.0 162.88895851684214 141.1764705882353 164.72289466603272"/> <polygon points="144.35294117647058 170.22470311360445 138.0 173.8925754119856 131.64705882352942 170.22470311360445 131.64705882352942 162.88895851684214 138.0 159.22108621846098 144.35294117647058 162.88895851684214"/> <polygon points="137.99999999999997 159.22108621846098 131.6470588235294 162.88895851684214 125.2941176470588 159.22108621846098 125.2941176470588 151.88534162169867 131.6470588235294 148.21746932331752 137.99999999999997 151.88534162169867"/> <polygon points="131.6470588235294 148.21746932331752 125.29411764705881 151.88534162169867 118.94117647058822 148.21746932331752 118.94117647058822 140.8817247265552 125.29411764705881 137.21385242817405 131.6470588235294 140.8817247265552"/> <polygon points="122.11764705882352 135.37991627898347 118.94117647058823 137.21385242817405 115.76470588235294 135.37991627898347 115.76470588235294 131.71204398060232 118.94117647058823 129.87810783141174 122.11764705882352 131.71204398060232"/> <polygon points="125.29411764705883 137.21385242817405 118.94117647058823 140.8817247265552 112.58823529411764 137.21385242817405 112.58823529411764 129.87810783141174 118.94117647058823 126.21023553303058 125.29411764705883 129.87810783141174"/> <polygon points="115.76470588235294 124.37629938384002 112.58823529411765 126.2102355330306 109.41176470588236 124.37629938384002 109.41176470588236 120.70842708545887 112.58823529411765 118.87449093626829 115.76470588235294 120.70842708545887"/> <polygon points="118.94117647058825 126.2102355330306 112.58823529411765 129.87810783141174 106.23529411764706 126.2102355330306 106.23529411764706 118.87449093626829 112.58823529411765 115.20661863788713 118.94117647058825 118.87449093626829"/> <polygon points="198.3529411764706 245.41608523041802 195.1764705882353 247.2500213796086 192.0 245.41608523041802 192.0 241.74821293203686 195.1764705882353 239.9142767828463 198.3529411764706 241.74821293203686"/> <polygon points="201.52941176470588 247.2500213796086 195.1764705882353 250.91789367798975 188.82352941176472 247.2500213796086 188.82352941176472 239.9142767828463 195.1764705882353 236.24640448446513 201.52941176470588 239.9142767828463"/> <polygon points="192.0 234.41246833527455 188.8235294117647 236.24640448446513 185.6470588235294 234.41246833527455 185.6470588235294 230.7445960368934 188.8235294117647 228.91065988770282 192.0 230.7445960368934"/> <polygon points="195.17647058823528 236.24640448446513 188.8235294117647 239.9142767828463 182.47058823529412 236.24640448446513 182.47058823529412 228.91065988770282 188.8235294117647 225.24278758932167 195.17647058823528 228.91065988770282"/> <polygon points="188.82352941176467 225.24278758932172 182.4705882352941 228.91065988770288 176.1176470588235 225.24278758932172 176.1176470588235 217.9070429925594 182.4705882352941 214.23917069417826 188.82352941176467 217.9070429925594"/> <polygon points="179.29411764705884 212.40523454498768 176.11764705882354 214.23917069417826 172.94117647058823 212.40523454498768 172.94117647058823 208.73736224660652 176.11764705882354 206.90342609741595 179.29411764705884 208.73736224660652"/> <polygon points="182.47058823529412 214.23917069417826 176.11764705882354 217.9070429925594 169.76470588235296 214.23917069417826 169.76470588235296 206.90342609741595 176.11764705882354 203.2355537990348 182.47058823529412 206.90342609741595"/> <polygon points="172.94117647058823 201.4016176498442 169.76470588235293 203.2355537990348 166.58823529411762 201.4016176498442 166.58823529411762 197.73374535146306 169.76470588235293 195.89980920227248 172.94117647058823 197.73374535146306"/> <polygon points="176.1176470588235 203.2355537990348 169.76470588235293 206.90342609741595 163.41176470588235 203.2355537990348 163.41176470588235 195.89980920227248 169.76470588235293 192.23193690389132 176.1176470588235 195.89980920227248"/> <polygon points="169.7647058823529 192.23193690389132 163.41176470588232 195.89980920227248 157.05882352941174 192.23193690389132 157.05882352941174 184.896192307129 163.41176470588232 181.22832000874786 169.7647058823529 184.896192307129"/> <polygon points="160.23529411764707 179.39438385955734 157.05882352941177 181.22832000874791 153.88235294117646 179.39438385955734 153.88235294117646 175.72651156117618 157.05882352941177 173.8925754119856 160.23529411764707 175.72651156117618"/> <polygon points="163.41176470588235 181.22832000874791 157.05882352941177 184.89619230712907 150.7058823529412 181.22832000874791 150.7058823529412 173.8925754119856 157.05882352941177 170.22470311360445 163.41176470588235 173.8925754119856"/> <polygon points="153.88235294117646 168.39076696441387 150.70588235294116 170.22470311360445 147.52941176470586 168.39076696441387 147.52941176470586 164.72289466603272 150.70588235294116 162.88895851684214 153.88235294117646 164.72289466603272"/> <polygon points="157.05882352941174 170.22470311360445 150.70588235294116 173.8925754119856 144.35294117647058 170.22470311360445 144.35294117647058 162.88895851684214 150.70588235294116 159.22108621846098 157.05882352941174 162.88895851684214"/> <polygon points="150.7058823529412 159.22108621846098 144.3529411764706 162.88895851684214 138.00000000000003 159.22108621846098 138.00000000000003 151.88534162169867 144.3529411764706 148.21746932331752 150.7058823529412 151.88534162169867"/> <polygon points="141.1764705882353 146.38353317412694 138.0 148.21746932331752 134.8235294117647 146.38353317412694 134.8235294117647 142.71566087574578 138.0 140.8817247265552 141.1764705882353 142.71566087574578"/> <polygon points="144.35294117647058 148.21746932331752 138.0 151.88534162169867 131.64705882352942 148.21746932331752 131.64705882352942 140.8817247265552 138.0 137.21385242817405 144.35294117647058 140.8817247265552"/> <polygon points="134.8235294117647 135.37991627898347 131.6470588235294 137.21385242817405 128.4705882352941 135.37991627898347 128.4705882352941 131.71204398060232 131.6470588235294 129.87810783141174 134.8235294117647 131.71204398060232"/> <polygon points="137.99999999999997 137.21385242817405 131.6470588235294 140.8817247265552 125.2941176470588 137.21385242817405 125.2941176470588 129.87810783141174 131.6470588235294 126.21023553303058 137.99999999999997 129.87810783141174"/> <polygon points="131.6470588235294 126.2102355330306 125.29411764705881 129.87810783141174 118.94117647058822 126.2102355330306 118.94117647058822 118.87449093626829 125.29411764705881 115.20661863788713 131.6470588235294 118.87449093626829"/> <polygon points="122.11764705882352 113.37268248869657 118.94117647058823 115.20661863788715 115.76470588235294 113.37268248869657 115.76470588235294 109.70481019031541 118.94117647058823 107.87087404112484 122.11764705882352 109.70481019031541"/> <polygon points="125.29411764705883 115.20661863788715 118.94117647058823 118.8744909362683 112.58823529411764 115.20661863788715 112.58823529411764 107.87087404112484 118.94117647058823 104.20300174274368 125.29411764705883 107.87087404112484"/> <polygon points="214.23529411764704 247.2500213796086 207.88235294117646 250.91789367798975 201.52941176470588 247.2500213796086 201.52941176470588 239.9142767828463 207.88235294117646 236.24640448446513 214.23529411764704 239.9142767828463"/> <polygon points="207.8823529411765 236.24640448446513 201.5294117647059 239.9142767828463 195.17647058823533 236.24640448446513 195.17647058823533 228.91065988770282 201.5294117647059 225.24278758932167 207.8823529411765 228.91065988770282"/> <polygon points="198.3529411764706 223.40885144013114 195.1764705882353 225.24278758932172 192.0 223.40885144013114 192.0 219.74097914175 195.1764705882353 217.9070429925594 198.3529411764706 219.74097914175"/> <polygon points="201.52941176470588 225.24278758932172 195.1764705882353 228.91065988770288 188.82352941176472 225.24278758932172 188.82352941176472 217.9070429925594 195.1764705882353 214.23917069417826 201.52941176470588 217.9070429925594"/> <polygon points="195.17647058823528 214.23917069417826 188.8235294117647 217.9070429925594 182.47058823529412 214.23917069417826 182.47058823529412 206.90342609741595 188.8235294117647 203.2355537990348 195.17647058823528 206.90342609741595"/> <polygon points="188.82352941176467 203.2355537990348 182.4705882352941 206.90342609741595 176.1176470588235 203.2355537990348 176.1176470588235 195.89980920227248 182.4705882352941 192.23193690389132 188.82352941176467 195.89980920227248"/> <polygon points="179.29411764705884 190.39800075470075 176.11764705882354 192.23193690389132 172.94117647058823 190.39800075470075 172.94117647058823 186.7301284563196 176.11764705882354 184.896192307129 179.29411764705884 186.7301284563196"/> <polygon points="182.47058823529412 192.23193690389132 176.11764705882354 195.89980920227248 169.76470588235296 192.23193690389132 169.76470588235296 184.896192307129 176.11764705882354 181.22832000874786 182.47058823529412 184.896192307129"/> <polygon points="176.1176470588235 181.22832000874791 169.76470588235293 184.89619230712907 163.41176470588235 181.22832000874791 163.41176470588235 173.8925754119856 169.76470588235293 170.22470311360445 176.1176470588235 173.8925754119856"/> <polygon points="169.7647058823529 170.22470311360445 163.41176470588232 173.8925754119856 157.05882352941174 170.22470311360445 157.05882352941174 162.88895851684214 163.41176470588232 159.22108621846098 169.7647058823529 162.88895851684214"/> <polygon points="160.23529411764707 157.3871500692704 157.05882352941177 159.22108621846098 153.88235294117646 157.3871500692704 153.88235294117646 153.71927777088925 157.05882352941177 151.88534162169867 160.23529411764707 153.71927777088925"/> <polygon points="163.41176470588235 159.22108621846098 157.05882352941177 162.88895851684214 150.7058823529412 159.22108621846098 150.7058823529412 151.88534162169867 157.05882352941177 148.21746932331752 163.41176470588235 151.88534162169867"/> <polygon points="157.05882352941174 148.21746932331752 150.70588235294116 151.88534162169867 144.35294117647058 148.21746932331752 144.35294117647058 140.8817247265552 150.70588235294116 137.21385242817405 157.05882352941174 140.8817247265552"/> <polygon points="150.7058823529412 137.21385242817405 144.3529411764706 140.8817247265552 138.00000000000003 137.21385242817405 138.00000000000003 129.87810783141174 144.3529411764706 126.21023553303058 150.7058823529412 129.87810783141174"/> <polygon points="141.1764705882353 124.37629938384002 138.0 126.2102355330306 134.8235294117647 124.37629938384002 134.8235294117647 120.70842708545887 138.0 118.87449093626829 141.1764705882353 120.70842708545887"/> <polygon points="144.35294117647058 126.2102355330306 138.0 129.87810783141174 131.64705882352942 126.2102355330306 131.64705882352942 118.87449093626829 138.0 115.20661863788713 144.35294117647058 118.87449093626829"/> <polygon points="137.99999999999997 115.20661863788715 131.6470588235294 118.8744909362683 125.2941176470588 115.20661863788715 125.2941176470588 107.87087404112484 131.6470588235294 104.20300174274368 137.99999999999997 107.87087404112484"/> <polygon points="128.47058823529412 102.36906559355312 125.29411764705881 104.2030017427437 122.11764705882352 102.36906559355312 122.11764705882352 98.70119329517196 125.29411764705881 96.86725714598138 128.47058823529412 98.70119329517196"/> <polygon points="131.6470588235294 104.2030017427437 125.29411764705881 107.87087404112485 118.94117647058822 104.2030017427437 118.94117647058822 96.86725714598138 125.29411764705881 93.19938484760023 131.6470588235294 96.86725714598138"/> <polygon points="223.76470588235293 245.41608523041802 220.58823529411762 247.2500213796086 217.41176470588232 245.41608523041802 217.41176470588232 241.74821293203686 220.58823529411762 239.9142767828463 223.76470588235293 241.74821293203686"/> <polygon points="226.9411764705882 247.2500213796086 220.58823529411762 250.91789367798975 214.23529411764704 247.2500213796086 214.23529411764704 239.9142767828463 220.58823529411762 236.24640448446513 226.9411764705882 239.9142767828463"/> <polygon points="217.41176470588238 234.41246833527455 214.23529411764707 236.24640448446513 211.05882352941177 234.41246833527455 211.05882352941177 230.7445960368934 214.23529411764707 228.91065988770282 217.41176470588238 230.7445960368934"/> <polygon points="220.58823529411765 236.24640448446513 214.23529411764707 239.9142767828463 207.8823529411765 236.24640448446513 207.8823529411765 228.91065988770282 214.23529411764707 225.24278758932167 220.58823529411765 228.91065988770282"/> <polygon points="211.05882352941177 223.40885144013114 207.88235294117646 225.24278758932172 204.70588235294116 223.40885144013114 204.70588235294116 219.74097914175 207.88235294117646 217.9070429925594 211.05882352941177 219.74097914175"/> <polygon points="214.23529411764704 225.24278758932172 207.88235294117646 228.91065988770288 201.52941176470588 225.24278758932172 201.52941176470588 217.9070429925594 207.88235294117646 214.23917069417826 214.23529411764704 217.9070429925594"/> <polygon points="204.70588235294122 212.40523454498768 201.5294117647059 214.23917069417826 198.3529411764706 212.40523454498768 198.3529411764706 208.73736224660652 201.5294117647059 206.90342609741595 204.70588235294122 208.73736224660652"/> <polygon points="207.8823529411765 214.23917069417826 201.5294117647059 217.9070429925594 195.17647058823533 214.23917069417826 195.17647058823533 206.90342609741595 201.5294117647059 203.2355537990348 207.8823529411765 206.90342609741595"/> <polygon points="198.3529411764706 201.4016176498442 195.1764705882353 203.2355537990348 192.0 201.4016176498442 192.0 197.73374535146306 195.1764705882353 195.89980920227248 198.3529411764706 197.73374535146306"/> <polygon points="201.52941176470588 203.2355537990348 195.1764705882353 206.90342609741595 188.82352941176472 203.2355537990348 188.82352941176472 195.89980920227248 195.1764705882353 192.23193690389132 201.52941176470588 195.89980920227248"/> <polygon points="192.0 190.39800075470075 188.8235294117647 192.23193690389132 185.6470588235294 190.39800075470075 185.6470588235294 186.7301284563196 188.8235294117647 184.896192307129 192.0 186.7301284563196"/> <polygon points="195.17647058823528 192.23193690389132 188.8235294117647 195.89980920227248 182.47058823529412 192.23193690389132 182.47058823529412 184.896192307129 188.8235294117647 181.22832000874786 195.17647058823528 184.896192307129"/> <polygon points="185.6470588235294 179.39438385955734 182.4705882352941 181.22832000874791 179.29411764705878 179.39438385955734 179.29411764705878 175.72651156117618 182.4705882352941 173.8925754119856 185.6470588235294 175.72651156117618"/> <polygon points="188.82352941176467 181.22832000874791 182.4705882352941 184.89619230712907 176.1176470588235 181.22832000874791 176.1176470588235 173.8925754119856 182.4705882352941 170.22470311360445 188.82352941176467 173.8925754119856"/> <polygon points="179.29411764705884 168.39076696441387 176.11764705882354 170.22470311360445 172.94117647058823 168.39076696441387 172.94117647058823 164.72289466603272 176.11764705882354 162.88895851684214 179.29411764705884 164.72289466603272"/> <polygon points="182.47058823529412 170.22470311360445 176.11764705882354 173.8925754119856 169.76470588235296 170.22470311360445 169.76470588235296 162.88895851684214 176.11764705882354 159.22108621846098 182.47058823529412 162.88895851684214"/> <polygon points="172.94117647058823 157.3871500692704 169.76470588235293 159.22108621846098 166.58823529411762 157.3871500692704 166.58823529411762 153.71927777088925 169.76470588235293 151.88534162169867 172.94117647058823 153.71927777088925"/> <polygon points="176.1176470588235 159.22108621846098 169.76470588235293 162.88895851684214 163.41176470588235 159.22108621846098 163.41176470588235 151.88534162169867 169.76470588235293 148.21746932331752 176.1176470588235 151.88534162169867"/> <polygon points="166.58823529411762 146.38353317412694 163.41176470588232 148.21746932331752 160.23529411764702 146.38353317412694 160.23529411764702 142.71566087574578 163.41176470588232 140.8817247265552 166.58823529411762 142.71566087574578"/> <polygon points="169.7647058823529 148.21746932331752 163.41176470588232 151.88534162169867 157.05882352941174 148.21746932331752 157.05882352941174 140.8817247265552 163.41176470588232 137.21385242817405 169.7647058823529 140.8817247265552"/> <polygon points="160.23529411764707 135.37991627898347 157.05882352941177 137.21385242817405 153.88235294117646 135.37991627898347 153.88235294117646 131.71204398060232 157.05882352941177 129.87810783141174 160.23529411764707 131.71204398060232"/> <polygon points="163.41176470588235 137.21385242817405 157.05882352941177 140.8817247265552 150.7058823529412 137.21385242817405 150.7058823529412 129.87810783141174 157.05882352941177 126.21023553303058 163.41176470588235 129.87810783141174"/> <polygon points="153.88235294117646 124.37629938384002 150.70588235294116 126.2102355330306 147.52941176470586 124.37629938384002 147.52941176470586 120.70842708545887 150.70588235294116 118.87449093626829 153.88235294117646 120.70842708545887"/> <polygon points="157.05882352941174 126.2102355330306 150.70588235294116 129.87810783141174 144.35294117647058 126.2102355330306 144.35294117647058 118.87449093626829 150.70588235294116 115.20661863788713 157.05882352941174 118.87449093626829"/> <polygon points="147.5294117647059 113.37268248869657 144.3529411764706 115.20661863788715 141.1764705882353 113.37268248869657 141.1764705882353 109.70481019031541 144.3529411764706 107.87087404112484 147.5294117647059 109.70481019031541"/> <polygon points="150.7058823529412 115.20661863788715 144.3529411764706 118.8744909362683 138.00000000000003 115.20661863788715 138.00000000000003 107.87087404112484 144.3529411764706 104.20300174274368 150.7058823529412 107.87087404112484"/> <polygon points="141.1764705882353 102.36906559355312 138.0 104.2030017427437 134.8235294117647 102.36906559355312 134.8235294117647 98.70119329517196 138.0 96.86725714598138 141.1764705882353 98.70119329517196"/> <polygon points="144.35294117647058 104.2030017427437 138.0 107.87087404112485 131.64705882352942 104.2030017427437 131.64705882352942 96.86725714598138 138.0 93.19938484760023 144.35294117647058 96.86725714598138"/> <polygon points="134.8235294117647 91.36544869840965 131.6470588235294 93.19938484760023 128.4705882352941 91.36544869840965 128.4705882352941 87.6975764000285 131.6470588235294 85.86364025083792 134.8235294117647 87.6975764000285"/> <polygon points="137.99999999999997 93.19938484760023 131.6470588235294 96.86725714598138 125.2941176470588 93.19938484760023 125.2941176470588 85.86364025083792 131.6470588235294 82.19576795245676 137.99999999999997 85.86364025083792"/> <polygon points="236.47058823529414 245.41608523041802 233.29411764705884 247.2500213796086 230.11764705882354 245.41608523041802 230.11764705882354 241.74821293203686 233.29411764705884 239.9142767828463 236.47058823529414 241.74821293203686"/> <polygon points="239.64705882352942 247.2500213796086 233.29411764705884 250.91789367798975 226.94117647058826 247.2500213796086 226.94117647058826 239.9142767828463 233.29411764705884 236.24640448446513 239.64705882352942 239.9142767828463"/> <polygon points="230.11764705882354 234.41246833527455 226.94117647058823 236.24640448446513 223.76470588235293 234.41246833527455 223.76470588235293 230.7445960368934 226.94117647058823 228.91065988770282 230.11764705882354 230.7445960368934"/> <polygon points="233.2941176470588 236.24640448446513 226.94117647058823 239.9142767828463 220.58823529411765 236.24640448446513 220.58823529411765 228.91065988770282 226.94117647058823 225.24278758932167 233.2941176470588 228.91065988770282"/> <polygon points="223.76470588235293 223.40885144013114 220.58823529411762 225.24278758932172 217.41176470588232 223.40885144013114 217.41176470588232 219.74097914175 220.58823529411762 217.9070429925594 223.76470588235293 219.74097914175"/> <polygon points="226.9411764705882 225.24278758932172 220.58823529411762 228.91065988770288 214.23529411764704 225.24278758932172 214.23529411764704 217.9070429925594 220.58823529411762 214.23917069417826 226.9411764705882 217.9070429925594"/> <polygon points="217.41176470588238 212.40523454498768 214.23529411764707 214.23917069417826 211.05882352941177 212.40523454498768 211.05882352941177 208.73736224660652 214.23529411764707 206.90342609741595 217.41176470588238 208.73736224660652"/> <polygon points="220.58823529411765 214.23917069417826 214.23529411764707 217.9070429925594 207.8823529411765 214.23917069417826 207.8823529411765 206.90342609741595 214.23529411764707 203.2355537990348 220.58823529411765 206.90342609741595"/> <polygon points="211.05882352941177 201.4016176498442 207.88235294117646 203.2355537990348 204.70588235294116 201.4016176498442 204.70588235294116 197.73374535146306 207.88235294117646 195.89980920227248 211.05882352941177 197.73374535146306"/> <polygon points="214.23529411764704 203.2355537990348 207.88235294117646 206.90342609741595 201.52941176470588 203.2355537990348 201.52941176470588 195.89980920227248 207.88235294117646 192.23193690389132 214.23529411764704 195.89980920227248"/> <polygon points="204.70588235294122 190.39800075470075 201.5294117647059 192.23193690389132 198.3529411764706 190.39800075470075 198.3529411764706 186.7301284563196 201.5294117647059 184.896192307129 204.70588235294122 186.7301284563196"/> <polygon points="207.8823529411765 192.23193690389132 201.5294117647059 195.89980920227248 195.17647058823533 192.23193690389132 195.17647058823533 184.896192307129 201.5294117647059 181.22832000874786 207.8823529411765 184.896192307129"/> <polygon points="198.3529411764706 179.39438385955734 195.1764705882353 181.22832000874791 192.0 179.39438385955734 192.0 175.72651156117618 195.1764705882353 173.8925754119856 198.3529411764706 175.72651156117618"/> <polygon points="201.52941176470588 181.22832000874791 195.1764705882353 184.89619230712907 188.82352941176472 181.22832000874791 188.82352941176472 173.8925754119856 195.1764705882353 170.22470311360445 201.52941176470588 173.8925754119856"/> <polygon points="192.0 168.39076696441387 188.8235294117647 170.22470311360445 185.6470588235294 168.39076696441387 185.6470588235294 164.72289466603272 188.8235294117647 162.88895851684214 192.0 164.72289466603272"/> <polygon points="195.17647058823528 170.22470311360445 188.8235294117647 173.8925754119856 182.47058823529412 170.22470311360445 182.47058823529412 162.88895851684214 188.8235294117647 159.22108621846098 195.17647058823528 162.88895851684214"/> <polygon points="185.6470588235294 157.3871500692704 182.4705882352941 159.22108621846098 179.29411764705878 157.3871500692704 179.29411764705878 153.71927777088925 182.4705882352941 151.88534162169867 185.6470588235294 153.71927777088925"/> <polygon points="188.82352941176467 159.22108621846098 182.4705882352941 162.88895851684214 176.1176470588235 159.22108621846098 176.1176470588235 151.88534162169867 182.4705882352941 148.21746932331752 188.82352941176467 151.88534162169867"/> <polygon points="179.29411764705884 146.38353317412694 176.11764705882354 148.21746932331752 172.94117647058823 146.38353317412694 172.94117647058823 142.71566087574578 176.11764705882354 140.8817247265552 179.29411764705884 142.71566087574578"/> <polygon points="182.47058823529412 148.21746932331752 176.11764705882354 151.88534162169867 169.76470588235296 148.21746932331752 169.76470588235296 140.8817247265552 176.11764705882354 137.21385242817405 182.47058823529412 140.8817247265552"/> <polygon points="172.94117647058823 135.37991627898347 169.76470588235293 137.21385242817405 166.58823529411762 135.37991627898347 166.58823529411762 131.71204398060232 169.76470588235293 129.87810783141174 172.94117647058823 131.71204398060232"/> <polygon points="176.1176470588235 137.21385242817405 169.76470588235293 140.8817247265552 163.41176470588235 137.21385242817405 163.41176470588235 129.87810783141174 169.76470588235293 126.21023553303058 176.1176470588235 129.87810783141174"/> <polygon points="166.58823529411762 124.37629938384002 163.41176470588232 126.2102355330306 160.23529411764702 124.37629938384002 160.23529411764702 120.70842708545887 163.41176470588232 118.87449093626829 166.58823529411762 120.70842708545887"/> <polygon points="169.7647058823529 126.2102355330306 163.41176470588232 129.87810783141174 157.05882352941174 126.2102355330306 157.05882352941174 118.87449093626829 163.41176470588232 115.20661863788713 169.7647058823529 118.87449093626829"/> <polygon points="160.23529411764707 113.37268248869657 157.05882352941177 115.20661863788715 153.88235294117646 113.37268248869657 153.88235294117646 109.70481019031541 157.05882352941177 107.87087404112484 160.23529411764707 109.70481019031541"/> <polygon points="163.41176470588235 115.20661863788715 157.05882352941177 118.8744909362683 150.7058823529412 115.20661863788715 150.7058823529412 107.87087404112484 157.05882352941177 104.20300174274368 163.41176470588235 107.87087404112484"/> <polygon points="153.88235294117646 102.36906559355312 150.70588235294116 104.2030017427437 147.52941176470586 102.36906559355312 147.52941176470586 98.70119329517196 150.70588235294116 96.86725714598138 153.88235294117646 98.70119329517196"/> <polygon points="157.05882352941174 104.2030017427437 150.70588235294116 107.87087404112485 144.35294117647058 104.2030017427437 144.35294117647058 96.86725714598138 150.70588235294116 93.19938484760023 157.05882352941174 96.86725714598138"/> <polygon points="147.5294117647059 91.36544869840965 144.3529411764706 93.19938484760023 141.1764705882353 91.36544869840965 141.1764705882353 87.6975764000285 144.3529411764706 85.86364025083792 147.5294117647059 87.6975764000285"/> <polygon points="150.7058823529412 93.19938484760023 144.3529411764706 96.86725714598138 138.00000000000003 93.19938484760023 138.00000000000003 85.86364025083792 144.3529411764706 82.19576795245676 150.7058823529412 85.86364025083792"/> <polygon points="144.35294117647058 82.19576795245678 138.0 85.86364025083793 131.64705882352942 82.19576795245678 131.64705882352942 74.86002335569447 138.0 71.19215105731331 144.35294117647058 74.86002335569447"/><text dominant-baseline="middle" text-anchor="middle" font-family="SquareFont" font-size="56" x="138" y="297.8460969082653">A303469</text></svg>