<?xml version="1.0" encoding="UTF-8" standalone="no"?>
<svg
   style="fill:none;stroke:#000000"
   width="11in"
   height="8.5in"
   version="1.1"
   id="svg6615"
   sodipodi:docname="hexagon_patterns_inkscape.svg"
   inkscape:version="1.2.2 (b0a84865, 2022-12-01)"
   xmlns:inkscape="http://www.inkscape.org/namespaces/inkscape"
   xmlns:sodipodi="http://sodipodi.sourceforge.net/DTD/sodipodi-0.dtd"
   xmlns="http://www.w3.org/2000/svg"
   xmlns:svg="http://www.w3.org/2000/svg">
  <defs
     id="defs6619" />
  <sodipodi:namedview
     id="namedview6617"
     pagecolor="#ffffff"
     bordercolor="#000000"
     borderopacity="0.25"
     inkscape:showpageshadow="2"
     inkscape:pageopacity="0.0"
     inkscape:pagecheckerboard="0"
     inkscape:deskcolor="#d1d1d1"
     showgrid="false"
     inkscape:zoom="0.66678711"
     inkscape:cx="482.91275"
     inkscape:cy="423.67346"
     inkscape:window-width="1512"
     inkscape:window-height="845"
     inkscape:window-x="0"
     inkscape:window-y="38"
     inkscape:window-maximized="0"
     inkscape:current-layer="svg6615"
     inkscape:document-units="in" />
  <polygon
     points="125,316.506 125,229.903 199.999,186.602 275,229.903 275,316.506 200,359.807 "
     id="polygon5747"
     transform="matrix(2.6243114,0,0,2.6243114,-2.592236,-202.05669)" />
  <polygon
     points="87.5,338.156 87.5,294.855 124.999,273.205 162.5,294.855 162.5,338.156 125,359.807 "
     id="polygon5749"
     transform="matrix(2.6243114,0,0,2.6243114,-2.592236,-202.05669)" />
  <polygon
     points="162.5,338.156 162.5,294.855 200,273.205 237.5,294.855 237.5,338.156 200,359.807 "
     id="polygon5751"
     transform="matrix(2.6243114,0,0,2.6243114,-2.592236,-202.05669)" />
  <polygon
     points="125,273.205 125,229.903 162.5,208.253 200,229.903 200,273.205 162.5,294.855 "
     id="polygon5753"
     transform="matrix(2.6243114,0,0,2.6243114,-2.592236,-202.05669)" />
  <polygon
     points="237.5,338.156 237.5,294.855 275,273.205 312.5,294.855 312.5,338.156 275,359.807 "
     id="polygon5755"
     transform="matrix(2.6243114,0,0,2.6243114,-2.592236,-202.05669)" />
  <polygon
     points="200,273.205 200,229.903 237.5,208.253 275,229.903 275,273.205 237.5,294.855 "
     id="polygon5757"
     transform="matrix(2.6243114,0,0,2.6243114,-2.592236,-202.05669)" />
  <polygon
     points="162.5,208.253 162.5,164.951 200,143.301 237.5,164.951 237.5,208.253 200,229.903 "
     id="polygon5759"
     transform="matrix(2.6243114,0,0,2.6243114,-2.592236,-202.05669)" />
  <polygon
     points="71.428,347.435 71.428,322.692 92.857,310.32 114.285,322.692 114.285,347.435 92.857,359.807 "
     id="polygon5761"
     transform="matrix(2.6243114,0,0,2.6243114,-2.592236,-202.05669)" />
  <polygon
     points="114.285,347.435 114.285,322.692 135.714,310.32 157.142,322.692 157.142,347.435 135.714,359.807 "
     id="polygon5763"
     transform="matrix(2.6243114,0,0,2.6243114,-2.592236,-202.05669)" />
  <polygon
     points="92.857,310.32 92.857,285.576 114.285,273.205 135.714,285.576 135.714,310.32 114.285,322.692 "
     id="polygon5765"
     transform="matrix(2.6243114,0,0,2.6243114,-2.592236,-202.05669)" />
  <polygon
     points="157.142,347.435 157.142,322.692 178.571,310.32 200,322.692 199.999,347.435 178.571,359.807 "
     id="polygon5767"
     transform="matrix(2.6243114,0,0,2.6243114,-2.592236,-202.05669)" />
  <polygon
     points="135.714,310.32 135.714,285.576 157.142,273.205 178.571,285.576 178.571,310.32 157.142,322.692 "
     id="polygon5769"
     transform="matrix(2.6243114,0,0,2.6243114,-2.592236,-202.05669)" />
  <polygon
     points="114.285,273.205 114.285,248.461 135.714,236.089 157.142,248.461 157.142,273.205 135.714,285.576 "
     id="polygon5771"
     transform="matrix(2.6243114,0,0,2.6243114,-2.592236,-202.05669)" />
  <polygon
     points="200,347.435 200,322.692 221.428,310.32 242.857,322.692 242.857,347.435 221.428,359.807 "
     id="polygon5773"
     transform="matrix(2.6243114,0,0,2.6243114,-2.592236,-202.05669)" />
  <polygon
     points="178.571,310.32 178.571,285.576 200,273.205 221.428,285.576 221.428,310.32 200,322.692 "
     id="polygon5775"
     transform="matrix(2.6243114,0,0,2.6243114,-2.592236,-202.05669)" />
  <polygon
     points="157.142,273.205 157.142,248.461 178.571,236.089 200,248.461 199.999,273.205 178.571,285.576 "
     id="polygon5777"
     transform="matrix(2.6243114,0,0,2.6243114,-2.592236,-202.05669)" />
  <polygon
     points="135.714,236.089 135.714,211.346 157.142,198.974 178.571,211.346 178.571,236.089 157.142,248.461 "
     id="polygon5779"
     transform="matrix(2.6243114,0,0,2.6243114,-2.592236,-202.05669)" />
  <polygon
     points="242.857,347.435 242.857,322.692 264.285,310.32 285.714,322.692 285.714,347.435 264.285,359.807 "
     id="polygon5781"
     transform="matrix(2.6243114,0,0,2.6243114,-2.592236,-202.05669)" />
  <polygon
     points="221.428,310.32 221.428,285.576 242.857,273.205 264.285,285.576 264.285,310.32 242.857,322.692 "
     id="polygon5783"
     transform="matrix(2.6243114,0,0,2.6243114,-2.592236,-202.05669)" />
  <polygon
     points="200,273.205 200,248.461 221.428,236.089 242.857,248.461 242.857,273.205 221.428,285.576 "
     id="polygon5785"
     transform="matrix(2.6243114,0,0,2.6243114,-2.592236,-202.05669)" />
  <polygon
     points="178.571,236.089 178.571,211.346 200,198.974 221.428,211.346 221.428,236.089 200,248.461 "
     id="polygon5787"
     transform="matrix(2.6243114,0,0,2.6243114,-2.592236,-202.05669)" />
  <polygon
     points="157.142,198.974 157.142,174.23 178.571,161.858 200,174.23 199.999,198.974 178.571,211.346 "
     id="polygon5789"
     transform="matrix(2.6243114,0,0,2.6243114,-2.592236,-202.05669)" />
  <polygon
     points="285.714,347.435 285.714,322.692 307.142,310.32 328.571,322.692 328.571,347.435 307.142,359.807 "
     id="polygon5791"
     transform="matrix(2.6243114,0,0,2.6243114,-2.592236,-202.05669)" />
  <polygon
     points="264.285,310.32 264.285,285.576 285.714,273.205 307.142,285.576 307.142,310.32 285.714,322.692 "
     id="polygon5793"
     transform="matrix(2.6243114,0,0,2.6243114,-2.592236,-202.05669)" />
  <polygon
     points="242.857,273.205 242.857,248.461 264.285,236.089 285.714,248.461 285.714,273.205 264.285,285.576 "
     id="polygon5795"
     transform="matrix(2.6243114,0,0,2.6243114,-2.592236,-202.05669)" />
  <polygon
     points="221.428,236.089 221.428,211.346 242.857,198.974 264.285,211.346 264.285,236.089 242.857,248.461 "
     id="polygon5797"
     transform="matrix(2.6243114,0,0,2.6243114,-2.592236,-202.05669)" />
  <polygon
     points="200,198.974 200,174.23 221.428,161.858 242.857,174.23 242.857,198.974 221.428,211.346 "
     id="polygon5799"
     transform="matrix(2.6243114,0,0,2.6243114,-2.592236,-202.05669)" />
  <polygon
     points="178.571,161.858 178.571,137.115 200,124.743 221.428,137.115 221.428,161.858 200,174.23 "
     id="polygon5801"
     transform="matrix(2.6243114,0,0,2.6243114,-2.592236,-202.05669)" />
  <polygon
     points="63.636,351.934 63.636,336.188 77.272,328.315 90.909,336.188 90.909,351.934 77.272,359.807 "
     id="polygon5803"
     transform="matrix(2.6243114,0,0,2.6243114,-2.592236,-202.05669)" />
  <polygon
     points="90.909,351.934 90.909,336.188 104.545,328.315 118.181,336.188 118.181,351.934 104.545,359.807 "
     id="polygon5805"
     transform="matrix(2.6243114,0,0,2.6243114,-2.592236,-202.05669)" />
  <polygon
     points="77.272,328.315 77.272,312.569 90.909,304.696 104.545,312.569 104.545,328.315 90.909,336.188 "
     id="polygon5807"
     transform="matrix(2.6243114,0,0,2.6243114,-2.592236,-202.05669)" />
  <polygon
     points="118.181,351.934 118.181,336.188 131.818,328.315 145.454,336.188 145.454,351.934 131.818,359.807 "
     id="polygon5809"
     transform="matrix(2.6243114,0,0,2.6243114,-2.592236,-202.05669)" />
  <polygon
     points="104.545,328.315 104.545,312.569 118.181,304.696 131.818,312.569 131.818,328.315 118.181,336.188 "
     id="polygon5811"
     transform="matrix(2.6243114,0,0,2.6243114,-2.592236,-202.05669)" />
  <polygon
     points="90.909,304.696 90.909,288.95 104.545,281.078 118.181,288.95 118.181,304.696 104.545,312.569 "
     id="polygon5813"
     transform="matrix(2.6243114,0,0,2.6243114,-2.592236,-202.05669)" />
  <polygon
     points="145.454,351.934 145.454,336.188 159.09,328.315 172.727,336.188 172.727,351.934 159.09,359.807 "
     id="polygon5815"
     transform="matrix(2.6243114,0,0,2.6243114,-2.592236,-202.05669)" />
  <polygon
     points="131.818,328.315 131.818,312.569 145.454,304.696 159.09,312.569 159.09,328.315 145.454,336.188 "
     id="polygon5817"
     transform="matrix(2.6243114,0,0,2.6243114,-2.592236,-202.05669)" />
  <polygon
     points="118.181,304.696 118.181,288.95 131.818,281.078 145.454,288.95 145.454,304.696 131.818,312.569 "
     id="polygon5819"
     transform="matrix(2.6243114,0,0,2.6243114,-2.592236,-202.05669)" />
  <polygon
     points="104.545,281.078 104.545,265.332 118.181,257.459 131.818,265.332 131.818,281.078 118.181,288.95 "
     id="polygon5821"
     transform="matrix(2.6243114,0,0,2.6243114,-2.592236,-202.05669)" />
  <polygon
     points="172.727,351.934 172.727,336.188 186.363,328.315 200,336.188 200,351.934 186.363,359.807 "
     id="polygon5823"
     transform="matrix(2.6243114,0,0,2.6243114,-2.592236,-202.05669)" />
  <polygon
     points="159.09,328.315 159.09,312.569 172.727,304.696 186.363,312.569 186.363,328.315 172.727,336.188 "
     id="polygon5825"
     transform="matrix(2.6243114,0,0,2.6243114,-2.592236,-202.05669)" />
  <polygon
     points="145.454,304.696 145.454,288.95 159.09,281.078 172.727,288.95 172.727,304.696 159.09,312.569 "
     id="polygon5827"
     transform="matrix(2.6243114,0,0,2.6243114,-2.592236,-202.05669)" />
  <polygon
     points="131.818,281.078 131.818,265.332 145.454,257.459 159.09,265.332 159.09,281.078 145.454,288.95 "
     id="polygon5829"
     transform="matrix(2.6243114,0,0,2.6243114,-2.592236,-202.05669)" />
  <polygon
     points="118.181,257.459 118.181,241.713 131.818,233.84 145.454,241.713 145.454,257.459 131.818,265.332 "
     id="polygon5831"
     transform="matrix(2.6243114,0,0,2.6243114,-2.592236,-202.05669)" />
  <polygon
     points="200,351.934 200,336.188 213.636,328.315 227.272,336.188 227.272,351.934 213.636,359.807 "
     id="polygon5833"
     transform="matrix(2.6243114,0,0,2.6243114,-2.592236,-202.05669)" />
  <polygon
     points="186.363,328.315 186.363,312.569 200,304.696 213.636,312.569 213.636,328.315 200,336.188 "
     id="polygon5835"
     transform="matrix(2.6243114,0,0,2.6243114,-2.592236,-202.05669)" />
  <polygon
     points="172.727,304.696 172.727,288.95 186.363,281.078 200,288.95 200,304.696 186.363,312.569 "
     id="polygon5837"
     transform="matrix(2.6243114,0,0,2.6243114,-2.592236,-202.05669)" />
  <polygon
     points="159.09,281.078 159.09,265.332 172.727,257.459 186.363,265.332 186.363,281.078 172.727,288.95 "
     id="polygon5839"
     transform="matrix(2.6243114,0,0,2.6243114,-2.592236,-202.05669)" />
  <polygon
     points="145.454,257.459 145.454,241.713 159.09,233.84 172.727,241.713 172.727,257.459 159.09,265.332 "
     id="polygon5841"
     transform="matrix(2.6243114,0,0,2.6243114,-2.592236,-202.05669)" />
  <polygon
     points="131.818,233.84 131.818,218.094 145.454,210.221 159.09,218.094 159.09,233.84 145.454,241.713 "
     id="polygon5843"
     transform="matrix(2.6243114,0,0,2.6243114,-2.592236,-202.05669)" />
  <polygon
     points="227.272,351.934 227.272,336.188 240.909,328.315 254.545,336.188 254.545,351.934 240.909,359.807 "
     id="polygon5845"
     transform="matrix(2.6243114,0,0,2.6243114,-2.592236,-202.05669)" />
  <polygon
     points="213.636,328.315 213.636,312.569 227.272,304.696 240.909,312.569 240.909,328.315 227.272,336.188 "
     id="polygon5847"
     transform="matrix(2.6243114,0,0,2.6243114,-2.592236,-202.05669)" />
  <polygon
     points="200,304.696 200,288.95 213.636,281.078 227.272,288.95 227.272,304.696 213.636,312.569 "
     id="polygon5849"
     transform="matrix(2.6243114,0,0,2.6243114,-2.592236,-202.05669)" />
  <polygon
     points="186.363,281.078 186.363,265.332 200,257.459 213.636,265.332 213.636,281.078 200,288.95 "
     id="polygon5851"
     transform="matrix(2.6243114,0,0,2.6243114,-2.592236,-202.05669)" />
  <polygon
     points="172.727,257.459 172.727,241.713 186.363,233.84 200,241.713 200,257.459 186.363,265.332 "
     id="polygon5853"
     transform="matrix(2.6243114,0,0,2.6243114,-2.592236,-202.05669)" />
  <polygon
     points="159.09,233.84 159.09,218.094 172.727,210.221 186.363,218.094 186.363,233.84 172.727,241.713 "
     id="polygon5855"
     transform="matrix(2.6243114,0,0,2.6243114,-2.592236,-202.05669)" />
  <polygon
     points="145.454,210.221 145.454,194.475 159.09,186.602 172.727,194.475 172.727,210.221 159.09,218.094 "
     id="polygon5857"
     transform="matrix(2.6243114,0,0,2.6243114,-2.592236,-202.05669)" />
  <polygon
     points="254.545,351.934 254.545,336.188 268.181,328.315 281.818,336.188 281.818,351.934 268.181,359.807 "
     id="polygon5859"
     transform="matrix(2.6243114,0,0,2.6243114,-2.592236,-202.05669)" />
  <polygon
     points="240.909,328.315 240.909,312.569 254.545,304.696 268.181,312.569 268.181,328.315 254.545,336.188 "
     id="polygon5861"
     transform="matrix(2.6243114,0,0,2.6243114,-2.592236,-202.05669)" />
  <polygon
     points="227.272,304.696 227.272,288.95 240.909,281.078 254.545,288.95 254.545,304.696 240.909,312.569 "
     id="polygon5863"
     transform="matrix(2.6243114,0,0,2.6243114,-2.592236,-202.05669)" />
  <polygon
     points="213.636,281.078 213.636,265.332 227.272,257.459 240.909,265.332 240.909,281.078 227.272,288.95 "
     id="polygon5865"
     transform="matrix(2.6243114,0,0,2.6243114,-2.592236,-202.05669)" />
  <polygon
     points="200,257.459 200,241.713 213.636,233.84 227.272,241.713 227.272,257.459 213.636,265.332 "
     id="polygon5867"
     transform="matrix(2.6243114,0,0,2.6243114,-2.592236,-202.05669)" />
  <polygon
     points="186.363,233.84 186.363,218.094 200,210.221 213.636,218.094 213.636,233.84 200,241.713 "
     id="polygon5869"
     transform="matrix(2.6243114,0,0,2.6243114,-2.592236,-202.05669)" />
  <polygon
     points="172.727,210.221 172.727,194.475 186.363,186.602 200,194.475 200,210.221 186.363,218.094 "
     id="polygon5871"
     transform="matrix(2.6243114,0,0,2.6243114,-2.592236,-202.05669)" />
  <polygon
     points="159.09,186.602 159.09,170.856 172.727,162.983 186.363,170.856 186.363,186.602 172.727,194.475 "
     id="polygon5873"
     transform="matrix(2.6243114,0,0,2.6243114,-2.592236,-202.05669)" />
  <polygon
     points="281.818,351.934 281.818,336.188 295.454,328.315 309.09,336.188 309.09,351.934 295.454,359.807 "
     id="polygon5875"
     transform="matrix(2.6243114,0,0,2.6243114,-2.592236,-202.05669)" />
  <polygon
     points="268.181,328.315 268.181,312.569 281.818,304.696 295.454,312.569 295.454,328.315 281.818,336.188 "
     id="polygon5877"
     transform="matrix(2.6243114,0,0,2.6243114,-2.592236,-202.05669)" />
  <polygon
     points="254.545,304.696 254.545,288.95 268.181,281.078 281.818,288.95 281.818,304.696 268.181,312.569 "
     id="polygon5879"
     transform="matrix(2.6243114,0,0,2.6243114,-2.592236,-202.05669)" />
  <polygon
     points="240.909,281.078 240.909,265.332 254.545,257.459 268.181,265.332 268.181,281.078 254.545,288.95 "
     id="polygon5881"
     transform="matrix(2.6243114,0,0,2.6243114,-2.592236,-202.05669)" />
  <polygon
     points="227.272,257.459 227.272,241.713 240.909,233.84 254.545,241.713 254.545,257.459 240.909,265.332 "
     id="polygon5883"
     transform="matrix(2.6243114,0,0,2.6243114,-2.592236,-202.05669)" />
  <polygon
     points="213.636,233.84 213.636,218.094 227.272,210.221 240.909,218.094 240.909,233.84 227.272,241.713 "
     id="polygon5885"
     transform="matrix(2.6243114,0,0,2.6243114,-2.592236,-202.05669)" />
  <polygon
     points="200,210.221 200,194.475 213.636,186.602 227.272,194.475 227.272,210.221 213.636,218.094 "
     id="polygon5887"
     transform="matrix(2.6243114,0,0,2.6243114,-2.592236,-202.05669)" />
  <polygon
     points="186.363,186.602 186.363,170.856 200,162.983 213.636,170.856 213.636,186.602 200,194.475 "
     id="polygon5889"
     transform="matrix(2.6243114,0,0,2.6243114,-2.592236,-202.05669)" />
  <polygon
     points="172.727,162.983 172.727,147.237 186.363,139.364 200,147.237 200,162.983 186.363,170.856 "
     id="polygon5891"
     transform="matrix(2.6243114,0,0,2.6243114,-2.592236,-202.05669)" />
  <polygon
     points="309.09,351.934 309.09,336.188 322.727,328.315 336.363,336.188 336.363,351.934 322.727,359.807 "
     id="polygon5893"
     transform="matrix(2.6243114,0,0,2.6243114,-2.592236,-202.05669)" />
  <polygon
     points="295.454,328.315 295.454,312.569 309.09,304.696 322.727,312.569 322.727,328.315 309.09,336.188 "
     id="polygon5895"
     transform="matrix(2.6243114,0,0,2.6243114,-2.592236,-202.05669)" />
  <polygon
     points="281.818,304.696 281.818,288.95 295.454,281.078 309.09,288.95 309.09,304.696 295.454,312.569 "
     id="polygon5897"
     transform="matrix(2.6243114,0,0,2.6243114,-2.592236,-202.05669)" />
  <polygon
     points="268.181,281.078 268.181,265.332 281.818,257.459 295.454,265.332 295.454,281.078 281.818,288.95 "
     id="polygon5899"
     transform="matrix(2.6243114,0,0,2.6243114,-2.592236,-202.05669)" />
  <polygon
     points="254.545,257.459 254.545,241.713 268.181,233.84 281.818,241.713 281.818,257.459 268.181,265.332 "
     id="polygon5901"
     transform="matrix(2.6243114,0,0,2.6243114,-2.592236,-202.05669)" />
  <polygon
     points="240.909,233.84 240.909,218.094 254.545,210.221 268.181,218.094 268.181,233.84 254.545,241.713 "
     id="polygon5903"
     transform="matrix(2.6243114,0,0,2.6243114,-2.592236,-202.05669)" />
  <polygon
     points="227.272,210.221 227.272,194.475 240.909,186.602 254.545,194.475 254.545,210.221 240.909,218.094 "
     id="polygon5905"
     transform="matrix(2.6243114,0,0,2.6243114,-2.592236,-202.05669)" />
  <polygon
     points="213.636,186.602 213.636,170.856 227.272,162.983 240.909,170.856 240.909,186.602 227.272,194.475 "
     id="polygon5907"
     transform="matrix(2.6243114,0,0,2.6243114,-2.592236,-202.05669)" />
  <polygon
     points="200,162.983 200,147.237 213.636,139.364 227.272,147.237 227.272,162.983 213.636,170.856 "
     id="polygon5909"
     transform="matrix(2.6243114,0,0,2.6243114,-2.592236,-202.05669)" />
  <polygon
     points="186.363,139.364 186.363,123.618 200,115.745 213.636,123.618 213.636,139.364 200,147.237 "
     id="polygon5911"
     transform="matrix(2.6243114,0,0,2.6243114,-2.592236,-202.05669)" />
  <polygon
     points="59.375,354.394 59.375,343.569 68.75,338.156 78.125,343.569 78.125,354.394 68.75,359.807 "
     id="polygon5913"
     transform="matrix(2.6243114,0,0,2.6243114,-2.592236,-202.05669)" />
  <polygon
     points="78.125,354.394 78.125,343.569 87.5,338.156 96.875,343.569 96.875,354.394 87.5,359.807 "
     id="polygon5915"
     transform="matrix(2.6243114,0,0,2.6243114,-2.592236,-202.05669)" />
  <polygon
     points="68.75,338.156 68.75,327.331 78.125,321.919 87.5,327.331 87.5,338.156 78.125,343.569 "
     id="polygon5917"
     transform="matrix(2.6243114,0,0,2.6243114,-2.592236,-202.05669)" />
  <polygon
     points="96.875,354.394 96.875,343.569 106.25,338.156 115.625,343.569 115.625,354.394 106.25,359.807 "
     id="polygon5919"
     transform="matrix(2.6243114,0,0,2.6243114,-2.592236,-202.05669)" />
  <polygon
     points="87.5,338.156 87.5,327.331 96.875,321.919 106.25,327.331 106.25,338.156 96.875,343.569 "
     id="polygon5921"
     transform="matrix(2.6243114,0,0,2.6243114,-2.592236,-202.05669)" />
  <polygon
     points="78.125,321.919 78.125,311.093 87.5,305.681 96.875,311.093 96.875,321.919 87.5,327.331 "
     id="polygon5923"
     transform="matrix(2.6243114,0,0,2.6243114,-2.592236,-202.05669)" />
  <polygon
     points="115.625,354.394 115.625,343.569 125,338.156 134.375,343.569 134.375,354.394 125,359.807 "
     id="polygon5925"
     transform="matrix(2.6243114,0,0,2.6243114,-2.592236,-202.05669)" />
  <polygon
     points="106.25,338.156 106.25,327.331 115.625,321.919 125,327.331 125,338.156 115.625,343.569 "
     id="polygon5927"
     transform="matrix(2.6243114,0,0,2.6243114,-2.592236,-202.05669)" />
  <polygon
     points="96.875,321.919 96.875,311.093 106.25,305.681 115.625,311.093 115.625,321.919 106.25,327.331 "
     id="polygon5929"
     transform="matrix(2.6243114,0,0,2.6243114,-2.592236,-202.05669)" />
  <polygon
     points="87.5,305.681 87.5,294.855 96.875,289.443 106.25,294.855 106.25,305.681 96.875,311.093 "
     id="polygon5931"
     transform="matrix(2.6243114,0,0,2.6243114,-2.592236,-202.05669)" />
  <polygon
     points="134.375,354.394 134.375,343.569 143.75,338.156 153.125,343.569 153.125,354.394 143.75,359.807 "
     id="polygon5933"
     transform="matrix(2.6243114,0,0,2.6243114,-2.592236,-202.05669)" />
  <polygon
     points="125,338.156 125,327.331 134.375,321.919 143.75,327.331 143.75,338.156 134.375,343.569 "
     id="polygon5935"
     transform="matrix(2.6243114,0,0,2.6243114,-2.592236,-202.05669)" />
  <polygon
     points="115.625,321.919 115.625,311.093 125,305.681 134.375,311.093 134.375,321.919 125,327.331 "
     id="polygon5937"
     transform="matrix(2.6243114,0,0,2.6243114,-2.592236,-202.05669)" />
  <polygon
     points="106.25,305.681 106.25,294.855 115.625,289.443 125,294.855 125,305.681 115.625,311.093 "
     id="polygon5939"
     transform="matrix(2.6243114,0,0,2.6243114,-2.592236,-202.05669)" />
  <polygon
     points="96.875,289.443 96.875,278.617 106.25,273.205 115.625,278.617 115.625,289.443 106.25,294.855 "
     id="polygon5941"
     transform="matrix(2.6243114,0,0,2.6243114,-2.592236,-202.05669)" />
  <polygon
     points="153.125,354.394 153.125,343.569 162.5,338.156 171.875,343.569 171.875,354.394 162.5,359.807 "
     id="polygon5943"
     transform="matrix(2.6243114,0,0,2.6243114,-2.592236,-202.05669)" />
  <polygon
     points="143.75,338.156 143.75,327.331 153.125,321.919 162.5,327.331 162.5,338.156 153.125,343.569 "
     id="polygon5945"
     transform="matrix(2.6243114,0,0,2.6243114,-2.592236,-202.05669)" />
  <polygon
     points="134.375,321.919 134.375,311.093 143.75,305.681 153.125,311.093 153.125,321.919 143.75,327.331 "
     id="polygon5947"
     transform="matrix(2.6243114,0,0,2.6243114,-2.592236,-202.05669)" />
  <polygon
     points="125,305.681 125,294.855 134.375,289.443 143.75,294.855 143.75,305.681 134.375,311.093 "
     id="polygon5949"
     transform="matrix(2.6243114,0,0,2.6243114,-2.592236,-202.05669)" />
  <polygon
     points="115.625,289.443 115.625,278.617 125,273.205 134.375,278.617 134.375,289.443 125,294.855 "
     id="polygon5951"
     transform="matrix(2.6243114,0,0,2.6243114,-2.592236,-202.05669)" />
  <polygon
     points="106.25,273.205 106.25,262.379 115.625,256.967 125,262.379 125,273.205 115.625,278.617 "
     id="polygon5953"
     transform="matrix(2.6243114,0,0,2.6243114,-2.592236,-202.05669)" />
  <polygon
     points="171.875,354.394 171.875,343.569 181.25,338.156 190.625,343.569 190.625,354.394 181.25,359.807 "
     id="polygon5955"
     transform="matrix(2.6243114,0,0,2.6243114,-2.592236,-202.05669)" />
  <polygon
     points="162.5,338.156 162.5,327.331 171.875,321.919 181.25,327.331 181.25,338.156 171.875,343.569 "
     id="polygon5957"
     transform="matrix(2.6243114,0,0,2.6243114,-2.592236,-202.05669)" />
  <polygon
     points="153.125,321.919 153.125,311.093 162.5,305.681 171.875,311.093 171.875,321.919 162.5,327.331 "
     id="polygon5959"
     transform="matrix(2.6243114,0,0,2.6243114,-2.592236,-202.05669)" />
  <polygon
     points="143.75,305.681 143.75,294.855 153.125,289.443 162.5,294.855 162.5,305.681 153.125,311.093 "
     id="polygon5961"
     transform="matrix(2.6243114,0,0,2.6243114,-2.592236,-202.05669)" />
  <polygon
     points="134.375,289.443 134.375,278.617 143.75,273.205 153.125,278.617 153.125,289.443 143.75,294.855 "
     id="polygon5963"
     transform="matrix(2.6243114,0,0,2.6243114,-2.592236,-202.05669)" />
  <polygon
     points="125,273.205 125,262.379 134.375,256.967 143.75,262.379 143.75,273.205 134.375,278.617 "
     id="polygon5965"
     transform="matrix(2.6243114,0,0,2.6243114,-2.592236,-202.05669)" />
  <polygon
     points="115.625,256.967 115.625,246.141 125,240.729 134.375,246.141 134.375,256.967 125,262.379 "
     id="polygon5967"
     transform="matrix(2.6243114,0,0,2.6243114,-2.592236,-202.05669)" />
  <polygon
     points="190.625,354.394 190.625,343.569 200,338.156 209.375,343.569 209.375,354.394 200,359.807 "
     id="polygon5969"
     transform="matrix(2.6243114,0,0,2.6243114,-2.592236,-202.05669)" />
  <polygon
     points="181.25,338.156 181.25,327.331 190.625,321.919 200,327.331 200,338.156 190.625,343.569 "
     id="polygon5971"
     transform="matrix(2.6243114,0,0,2.6243114,-2.592236,-202.05669)" />
  <polygon
     points="171.875,321.919 171.875,311.093 181.25,305.681 190.625,311.093 190.625,321.919 181.25,327.331 "
     id="polygon5973"
     transform="matrix(2.6243114,0,0,2.6243114,-2.592236,-202.05669)" />
  <polygon
     points="162.5,305.681 162.5,294.855 171.875,289.443 181.25,294.855 181.25,305.681 171.875,311.093 "
     id="polygon5975"
     transform="matrix(2.6243114,0,0,2.6243114,-2.592236,-202.05669)" />
  <polygon
     points="153.125,289.443 153.125,278.617 162.5,273.205 171.875,278.617 171.875,289.443 162.5,294.855 "
     id="polygon5977"
     transform="matrix(2.6243114,0,0,2.6243114,-2.592236,-202.05669)" />
  <polygon
     points="143.75,273.205 143.75,262.379 153.125,256.967 162.5,262.379 162.5,273.205 153.125,278.617 "
     id="polygon5979"
     transform="matrix(2.6243114,0,0,2.6243114,-2.592236,-202.05669)" />
  <polygon
     points="134.375,256.967 134.375,246.141 143.75,240.729 153.125,246.141 153.125,256.967 143.75,262.379 "
     id="polygon5981"
     transform="matrix(2.6243114,0,0,2.6243114,-2.592236,-202.05669)" />
  <polygon
     points="125,240.729 125,229.903 134.375,224.491 143.75,229.903 143.75,240.729 134.375,246.141 "
     id="polygon5983"
     transform="matrix(2.6243114,0,0,2.6243114,-2.592236,-202.05669)" />
  <polygon
     points="209.375,354.394 209.375,343.569 218.75,338.156 228.125,343.569 228.125,354.394 218.75,359.807 "
     id="polygon5985"
     transform="matrix(2.6243114,0,0,2.6243114,-2.592236,-202.05669)" />
  <polygon
     points="200,338.156 200,327.331 209.375,321.919 218.75,327.331 218.75,338.156 209.375,343.569 "
     id="polygon5987"
     transform="matrix(2.6243114,0,0,2.6243114,-2.592236,-202.05669)" />
  <polygon
     points="190.625,321.919 190.625,311.093 200,305.681 209.375,311.093 209.375,321.919 200,327.331 "
     id="polygon5989"
     transform="matrix(2.6243114,0,0,2.6243114,-2.592236,-202.05669)" />
  <polygon
     points="181.25,305.681 181.25,294.855 190.625,289.443 200,294.855 200,305.681 190.625,311.093 "
     id="polygon5991"
     transform="matrix(2.6243114,0,0,2.6243114,-2.592236,-202.05669)" />
  <polygon
     points="171.875,289.443 171.875,278.617 181.25,273.205 190.625,278.617 190.625,289.443 181.25,294.855 "
     id="polygon5993"
     transform="matrix(2.6243114,0,0,2.6243114,-2.592236,-202.05669)" />
  <polygon
     points="162.5,273.205 162.5,262.379 171.875,256.967 181.25,262.379 181.25,273.205 171.875,278.617 "
     id="polygon5995"
     transform="matrix(2.6243114,0,0,2.6243114,-2.592236,-202.05669)" />
  <polygon
     points="153.125,256.967 153.125,246.141 162.5,240.729 171.875,246.141 171.875,256.967 162.5,262.379 "
     id="polygon5997"
     transform="matrix(2.6243114,0,0,2.6243114,-2.592236,-202.05669)" />
  <polygon
     points="143.75,240.729 143.75,229.903 153.125,224.491 162.5,229.903 162.5,240.729 153.125,246.141 "
     id="polygon5999"
     transform="matrix(2.6243114,0,0,2.6243114,-2.592236,-202.05669)" />
  <polygon
     points="134.375,224.491 134.375,213.665 143.75,208.253 153.125,213.665 153.125,224.491 143.75,229.903 "
     id="polygon6001"
     transform="matrix(2.6243114,0,0,2.6243114,-2.592236,-202.05669)" />
  <polygon
     points="228.125,354.394 228.125,343.569 237.5,338.156 246.875,343.569 246.875,354.394 237.5,359.807 "
     id="polygon6003"
     transform="matrix(2.6243114,0,0,2.6243114,-2.592236,-202.05669)" />
  <polygon
     points="218.75,338.156 218.75,327.331 228.125,321.919 237.5,327.331 237.5,338.156 228.125,343.569 "
     id="polygon6005"
     transform="matrix(2.6243114,0,0,2.6243114,-2.592236,-202.05669)" />
  <polygon
     points="209.375,321.919 209.375,311.093 218.75,305.681 228.125,311.093 228.125,321.919 218.75,327.331 "
     id="polygon6007"
     transform="matrix(2.6243114,0,0,2.6243114,-2.592236,-202.05669)" />
  <polygon
     points="200,305.681 200,294.855 209.375,289.443 218.75,294.855 218.75,305.681 209.375,311.093 "
     id="polygon6009"
     transform="matrix(2.6243114,0,0,2.6243114,-2.592236,-202.05669)" />
  <polygon
     points="190.625,289.443 190.625,278.617 200,273.205 209.375,278.617 209.375,289.443 200,294.855 "
     id="polygon6011"
     transform="matrix(2.6243114,0,0,2.6243114,-2.592236,-202.05669)" />
  <polygon
     points="181.25,273.205 181.25,262.379 190.625,256.967 200,262.379 200,273.205 190.625,278.617 "
     id="polygon6013"
     transform="matrix(2.6243114,0,0,2.6243114,-2.592236,-202.05669)" />
  <polygon
     points="171.875,256.967 171.875,246.141 181.25,240.729 190.625,246.141 190.625,256.967 181.25,262.379 "
     id="polygon6015"
     transform="matrix(2.6243114,0,0,2.6243114,-2.592236,-202.05669)" />
  <polygon
     points="162.5,240.729 162.5,229.903 171.875,224.491 181.25,229.903 181.25,240.729 171.875,246.141 "
     id="polygon6017"
     transform="matrix(2.6243114,0,0,2.6243114,-2.592236,-202.05669)" />
  <polygon
     points="153.125,224.491 153.125,213.665 162.5,208.253 171.875,213.665 171.875,224.491 162.5,229.903 "
     id="polygon6019"
     transform="matrix(2.6243114,0,0,2.6243114,-2.592236,-202.05669)" />
  <polygon
     points="143.75,208.253 143.75,197.427 153.125,192.015 162.5,197.427 162.5,208.253 153.125,213.665 "
     id="polygon6021"
     transform="matrix(2.6243114,0,0,2.6243114,-2.592236,-202.05669)" />
  <polygon
     points="246.875,354.394 246.875,343.569 256.25,338.156 265.625,343.569 265.625,354.394 256.25,359.807 "
     id="polygon6023"
     transform="matrix(2.6243114,0,0,2.6243114,-2.592236,-202.05669)" />
  <polygon
     points="237.5,338.156 237.5,327.331 246.875,321.919 256.25,327.331 256.25,338.156 246.875,343.569 "
     id="polygon6025"
     transform="matrix(2.6243114,0,0,2.6243114,-2.592236,-202.05669)" />
  <polygon
     points="228.125,321.919 228.125,311.093 237.5,305.681 246.875,311.093 246.875,321.919 237.5,327.331 "
     id="polygon6027"
     transform="matrix(2.6243114,0,0,2.6243114,-2.592236,-202.05669)" />
  <polygon
     points="218.75,305.681 218.75,294.855 228.125,289.443 237.5,294.855 237.5,305.681 228.125,311.093 "
     id="polygon6029"
     transform="matrix(2.6243114,0,0,2.6243114,-2.592236,-202.05669)" />
  <polygon
     points="209.375,289.443 209.375,278.617 218.75,273.205 228.125,278.617 228.125,289.443 218.75,294.855 "
     id="polygon6031"
     transform="matrix(2.6243114,0,0,2.6243114,-2.592236,-202.05669)" />
  <polygon
     points="200,273.205 200,262.379 209.375,256.967 218.75,262.379 218.75,273.205 209.375,278.617 "
     id="polygon6033"
     transform="matrix(2.6243114,0,0,2.6243114,-2.592236,-202.05669)" />
  <polygon
     points="190.625,256.967 190.625,246.141 200,240.729 209.375,246.141 209.375,256.967 200,262.379 "
     id="polygon6035"
     transform="matrix(2.6243114,0,0,2.6243114,-2.592236,-202.05669)" />
  <polygon
     points="181.25,240.729 181.25,229.903 190.625,224.491 200,229.903 200,240.729 190.625,246.141 "
     id="polygon6037"
     transform="matrix(2.6243114,0,0,2.6243114,-2.592236,-202.05669)" />
  <polygon
     points="171.875,224.491 171.875,213.665 181.25,208.253 190.625,213.665 190.625,224.491 181.25,229.903 "
     id="polygon6039"
     transform="matrix(2.6243114,0,0,2.6243114,-2.592236,-202.05669)" />
  <polygon
     points="162.5,208.253 162.5,197.427 171.875,192.015 181.25,197.427 181.25,208.253 171.875,213.665 "
     id="polygon6041"
     transform="matrix(2.6243114,0,0,2.6243114,-2.592236,-202.05669)" />
  <polygon
     points="153.125,192.015 153.125,181.189 162.5,175.777 171.875,181.189 171.875,192.015 162.5,197.427 "
     id="polygon6043"
     transform="matrix(2.6243114,0,0,2.6243114,-2.592236,-202.05669)" />
  <polygon
     points="265.625,354.394 265.625,343.569 275,338.156 284.375,343.569 284.375,354.394 275,359.807 "
     id="polygon6045"
     transform="matrix(2.6243114,0,0,2.6243114,-2.592236,-202.05669)" />
  <polygon
     points="256.25,338.156 256.25,327.331 265.625,321.919 275,327.331 275,338.156 265.625,343.569 "
     id="polygon6047"
     transform="matrix(2.6243114,0,0,2.6243114,-2.592236,-202.05669)" />
  <polygon
     points="246.875,321.919 246.875,311.093 256.25,305.681 265.625,311.093 265.625,321.919 256.25,327.331 "
     id="polygon6049"
     transform="matrix(2.6243114,0,0,2.6243114,-2.592236,-202.05669)" />
  <polygon
     points="237.5,305.681 237.5,294.855 246.875,289.443 256.25,294.855 256.25,305.681 246.875,311.093 "
     id="polygon6051"
     transform="matrix(2.6243114,0,0,2.6243114,-2.592236,-202.05669)" />
  <polygon
     points="228.125,289.443 228.125,278.617 237.5,273.205 246.875,278.617 246.875,289.443 237.5,294.855 "
     id="polygon6053"
     transform="matrix(2.6243114,0,0,2.6243114,-2.592236,-202.05669)" />
  <polygon
     points="218.75,273.205 218.75,262.379 228.125,256.967 237.5,262.379 237.5,273.205 228.125,278.617 "
     id="polygon6055"
     transform="matrix(2.6243114,0,0,2.6243114,-2.592236,-202.05669)" />
  <polygon
     points="209.375,256.967 209.375,246.141 218.75,240.729 228.125,246.141 228.125,256.967 218.75,262.379 "
     id="polygon6057"
     transform="matrix(2.6243114,0,0,2.6243114,-2.592236,-202.05669)" />
  <polygon
     points="200,240.729 200,229.903 209.375,224.491 218.75,229.903 218.75,240.729 209.375,246.141 "
     id="polygon6059"
     transform="matrix(2.6243114,0,0,2.6243114,-2.592236,-202.05669)" />
  <polygon
     points="190.625,224.491 190.625,213.665 200,208.253 209.375,213.665 209.375,224.491 200,229.903 "
     id="polygon6061"
     transform="matrix(2.6243114,0,0,2.6243114,-2.592236,-202.05669)" />
  <polygon
     points="181.25,208.253 181.25,197.427 190.625,192.015 200,197.427 200,208.253 190.625,213.665 "
     id="polygon6063"
     transform="matrix(2.6243114,0,0,2.6243114,-2.592236,-202.05669)" />
  <polygon
     points="171.875,192.015 171.875,181.189 181.25,175.777 190.625,181.189 190.625,192.015 181.25,197.427 "
     id="polygon6065"
     transform="matrix(2.6243114,0,0,2.6243114,-2.592236,-202.05669)" />
  <polygon
     points="162.5,175.777 162.5,164.951 171.875,159.539 181.25,164.951 181.25,175.777 171.875,181.189 "
     id="polygon6067"
     transform="matrix(2.6243114,0,0,2.6243114,-2.592236,-202.05669)" />
  <polygon
     points="284.375,354.394 284.375,343.569 293.75,338.156 303.125,343.569 303.125,354.394 293.75,359.807 "
     id="polygon6069"
     transform="matrix(2.6243114,0,0,2.6243114,-2.592236,-202.05669)" />
  <polygon
     points="275,338.156 275,327.331 284.375,321.919 293.75,327.331 293.75,338.156 284.375,343.569 "
     id="polygon6071"
     transform="matrix(2.6243114,0,0,2.6243114,-2.592236,-202.05669)" />
  <polygon
     points="265.625,321.919 265.625,311.093 275,305.681 284.375,311.093 284.375,321.919 275,327.331 "
     id="polygon6073"
     transform="matrix(2.6243114,0,0,2.6243114,-2.592236,-202.05669)" />
  <polygon
     points="256.25,305.681 256.25,294.855 265.625,289.443 275,294.855 275,305.681 265.625,311.093 "
     id="polygon6075"
     transform="matrix(2.6243114,0,0,2.6243114,-2.592236,-202.05669)" />
  <polygon
     points="246.875,289.443 246.875,278.617 256.25,273.205 265.625,278.617 265.625,289.443 256.25,294.855 "
     id="polygon6077"
     transform="matrix(2.6243114,0,0,2.6243114,-2.592236,-202.05669)" />
  <polygon
     points="237.5,273.205 237.5,262.379 246.875,256.967 256.25,262.379 256.25,273.205 246.875,278.617 "
     id="polygon6079"
     transform="matrix(2.6243114,0,0,2.6243114,-2.592236,-202.05669)" />
  <polygon
     points="228.125,256.967 228.125,246.141 237.5,240.729 246.875,246.141 246.875,256.967 237.5,262.379 "
     id="polygon6081"
     transform="matrix(2.6243114,0,0,2.6243114,-2.592236,-202.05669)" />
  <polygon
     points="218.75,240.729 218.75,229.903 228.125,224.491 237.5,229.903 237.5,240.729 228.125,246.141 "
     id="polygon6083"
     transform="matrix(2.6243114,0,0,2.6243114,-2.592236,-202.05669)" />
  <polygon
     points="209.375,224.491 209.375,213.665 218.75,208.253 228.125,213.665 228.125,224.491 218.75,229.903 "
     id="polygon6085"
     transform="matrix(2.6243114,0,0,2.6243114,-2.592236,-202.05669)" />
  <polygon
     points="200,208.253 200,197.427 209.375,192.015 218.75,197.427 218.75,208.253 209.375,213.665 "
     id="polygon6087"
     transform="matrix(2.6243114,0,0,2.6243114,-2.592236,-202.05669)" />
  <polygon
     points="190.625,192.015 190.625,181.189 200,175.777 209.375,181.189 209.375,192.015 200,197.427 "
     id="polygon6089"
     transform="matrix(2.6243114,0,0,2.6243114,-2.592236,-202.05669)" />
  <polygon
     points="181.25,175.777 181.25,164.951 190.625,159.539 200,164.951 200,175.777 190.625,181.189 "
     id="polygon6091"
     transform="matrix(2.6243114,0,0,2.6243114,-2.592236,-202.05669)" />
  <polygon
     points="171.875,159.539 171.875,148.713 181.25,143.301 190.625,148.713 190.625,159.539 181.25,164.951 "
     id="polygon6093"
     transform="matrix(2.6243114,0,0,2.6243114,-2.592236,-202.05669)" />
  <polygon
     points="303.125,354.394 303.125,343.569 312.5,338.156 321.875,343.569 321.875,354.394 312.5,359.807 "
     id="polygon6095"
     transform="matrix(2.6243114,0,0,2.6243114,-2.592236,-202.05669)" />
  <polygon
     points="293.75,338.156 293.75,327.331 303.125,321.919 312.5,327.331 312.5,338.156 303.125,343.569 "
     id="polygon6097"
     transform="matrix(2.6243114,0,0,2.6243114,-2.592236,-202.05669)" />
  <polygon
     points="284.375,321.919 284.375,311.093 293.75,305.681 303.125,311.093 303.125,321.919 293.75,327.331 "
     id="polygon6099"
     transform="matrix(2.6243114,0,0,2.6243114,-2.592236,-202.05669)" />
  <polygon
     points="275,305.681 275,294.855 284.375,289.443 293.75,294.855 293.75,305.681 284.375,311.093 "
     id="polygon6101"
     transform="matrix(2.6243114,0,0,2.6243114,-2.592236,-202.05669)" />
  <polygon
     points="265.625,289.443 265.625,278.617 275,273.205 284.375,278.617 284.375,289.443 275,294.855 "
     id="polygon6103"
     transform="matrix(2.6243114,0,0,2.6243114,-2.592236,-202.05669)" />
  <polygon
     points="256.25,273.205 256.25,262.379 265.625,256.967 275,262.379 275,273.205 265.625,278.617 "
     id="polygon6105"
     transform="matrix(2.6243114,0,0,2.6243114,-2.592236,-202.05669)" />
  <polygon
     points="246.875,256.967 246.875,246.141 256.25,240.729 265.625,246.141 265.625,256.967 256.25,262.379 "
     id="polygon6107"
     transform="matrix(2.6243114,0,0,2.6243114,-2.592236,-202.05669)" />
  <polygon
     points="237.5,240.729 237.5,229.903 246.875,224.491 256.25,229.903 256.25,240.729 246.875,246.141 "
     id="polygon6109"
     transform="matrix(2.6243114,0,0,2.6243114,-2.592236,-202.05669)" />
  <polygon
     points="228.125,224.491 228.125,213.665 237.5,208.253 246.875,213.665 246.875,224.491 237.5,229.903 "
     id="polygon6111"
     transform="matrix(2.6243114,0,0,2.6243114,-2.592236,-202.05669)" />
  <polygon
     points="218.75,208.253 218.75,197.427 228.125,192.015 237.5,197.427 237.5,208.253 228.125,213.665 "
     id="polygon6113"
     transform="matrix(2.6243114,0,0,2.6243114,-2.592236,-202.05669)" />
  <polygon
     points="209.375,192.015 209.375,181.189 218.75,175.777 228.125,181.189 228.125,192.015 218.75,197.427 "
     id="polygon6115"
     transform="matrix(2.6243114,0,0,2.6243114,-2.592236,-202.05669)" />
  <polygon
     points="200,175.777 200,164.951 209.375,159.539 218.75,164.951 218.75,175.777 209.375,181.189 "
     id="polygon6117"
     transform="matrix(2.6243114,0,0,2.6243114,-2.592236,-202.05669)" />
  <polygon
     points="190.625,159.539 190.625,148.713 200,143.301 209.375,148.713 209.375,159.539 200,164.951 "
     id="polygon6119"
     transform="matrix(2.6243114,0,0,2.6243114,-2.592236,-202.05669)" />
  <polygon
     points="181.25,143.301 181.25,132.475 190.625,127.063 200,132.475 200,143.301 190.625,148.713 "
     id="polygon6121"
     transform="matrix(2.6243114,0,0,2.6243114,-2.592236,-202.05669)" />
  <polygon
     points="321.875,354.394 321.875,343.569 331.25,338.156 340.625,343.569 340.625,354.394 331.25,359.807 "
     id="polygon6123"
     transform="matrix(2.6243114,0,0,2.6243114,-2.592236,-202.05669)" />
  <polygon
     points="312.5,338.156 312.5,327.331 321.875,321.919 331.25,327.331 331.25,338.156 321.875,343.569 "
     id="polygon6125"
     transform="matrix(2.6243114,0,0,2.6243114,-2.592236,-202.05669)" />
  <polygon
     points="303.125,321.919 303.125,311.093 312.5,305.681 321.875,311.093 321.875,321.919 312.5,327.331 "
     id="polygon6127"
     transform="matrix(2.6243114,0,0,2.6243114,-2.592236,-202.05669)" />
  <polygon
     points="293.75,305.681 293.75,294.855 303.125,289.443 312.5,294.855 312.5,305.681 303.125,311.093 "
     id="polygon6129"
     transform="matrix(2.6243114,0,0,2.6243114,-2.592236,-202.05669)" />
  <polygon
     points="284.375,289.443 284.375,278.617 293.75,273.205 303.125,278.617 303.125,289.443 293.75,294.855 "
     id="polygon6131"
     transform="matrix(2.6243114,0,0,2.6243114,-2.592236,-202.05669)" />
  <polygon
     points="275,273.205 275,262.379 284.375,256.967 293.75,262.379 293.75,273.205 284.375,278.617 "
     id="polygon6133"
     transform="matrix(2.6243114,0,0,2.6243114,-2.592236,-202.05669)" />
  <polygon
     points="265.625,256.967 265.625,246.141 275,240.729 284.375,246.141 284.375,256.967 275,262.379 "
     id="polygon6135"
     transform="matrix(2.6243114,0,0,2.6243114,-2.592236,-202.05669)" />
  <polygon
     points="256.25,240.729 256.25,229.903 265.625,224.491 275,229.903 275,240.729 265.625,246.141 "
     id="polygon6137"
     transform="matrix(2.6243114,0,0,2.6243114,-2.592236,-202.05669)" />
  <polygon
     points="246.875,224.491 246.875,213.665 256.25,208.253 265.625,213.665 265.625,224.491 256.25,229.903 "
     id="polygon6139"
     transform="matrix(2.6243114,0,0,2.6243114,-2.592236,-202.05669)" />
  <polygon
     points="237.5,208.253 237.5,197.427 246.875,192.015 256.25,197.427 256.25,208.253 246.875,213.665 "
     id="polygon6141"
     transform="matrix(2.6243114,0,0,2.6243114,-2.592236,-202.05669)" />
  <polygon
     points="228.125,192.015 228.125,181.189 237.5,175.777 246.875,181.189 246.875,192.015 237.5,197.427 "
     id="polygon6143"
     transform="matrix(2.6243114,0,0,2.6243114,-2.592236,-202.05669)" />
  <polygon
     points="218.75,175.777 218.75,164.951 228.125,159.539 237.5,164.951 237.5,175.777 228.125,181.189 "
     id="polygon6145"
     transform="matrix(2.6243114,0,0,2.6243114,-2.592236,-202.05669)" />
  <polygon
     points="209.375,159.539 209.375,148.713 218.75,143.301 228.125,148.713 228.125,159.539 218.75,164.951 "
     id="polygon6147"
     transform="matrix(2.6243114,0,0,2.6243114,-2.592236,-202.05669)" />
  <polygon
     points="200,143.301 200,132.475 209.375,127.063 218.75,132.475 218.75,143.301 209.375,148.713 "
     id="polygon6149"
     transform="matrix(2.6243114,0,0,2.6243114,-2.592236,-202.05669)" />
  <polygon
     points="190.625,127.063 190.625,116.237 200,110.825 209.375,116.237 209.375,127.063 200,132.475 "
     id="polygon6151"
     transform="matrix(2.6243114,0,0,2.6243114,-2.592236,-202.05669)" />
  <polygon
     points="56.818,355.871 56.818,347.998 63.636,344.061 70.454,347.998 70.454,355.871 63.636,359.807 "
     id="polygon6153"
     transform="matrix(2.6243114,0,0,2.6243114,-2.592236,-202.05669)" />
  <polygon
     points="70.454,355.871 70.454,347.998 77.272,344.061 84.09,347.998 84.09,355.871 77.272,359.807 "
     id="polygon6155"
     transform="matrix(2.6243114,0,0,2.6243114,-2.592236,-202.05669)" />
  <polygon
     points="63.636,344.061 63.636,336.188 70.454,332.252 77.272,336.188 77.272,344.061 70.454,347.998 "
     id="polygon6157"
     transform="matrix(2.6243114,0,0,2.6243114,-2.592236,-202.05669)" />
  <polygon
     points="84.09,355.871 84.09,347.998 90.909,344.061 97.727,347.998 97.727,355.871 90.909,359.807 "
     id="polygon6159"
     transform="matrix(2.6243114,0,0,2.6243114,-2.592236,-202.05669)" />
  <polygon
     points="77.272,344.061 77.272,336.188 84.09,332.252 90.909,336.188 90.909,344.061 84.09,347.998 "
     id="polygon6161"
     transform="matrix(2.6243114,0,0,2.6243114,-2.592236,-202.05669)" />
  <polygon
     points="70.454,332.252 70.454,324.379 77.272,320.442 84.09,324.379 84.09,332.252 77.272,336.188 "
     id="polygon6163"
     transform="matrix(2.6243114,0,0,2.6243114,-2.592236,-202.05669)" />
  <polygon
     points="97.727,355.871 97.727,347.998 104.545,344.061 111.363,347.998 111.363,355.871 104.545,359.807 "
     id="polygon6165"
     transform="matrix(2.6243114,0,0,2.6243114,-2.592236,-202.05669)" />
  <polygon
     points="90.909,344.061 90.909,336.188 97.727,332.252 104.545,336.188 104.545,344.061 97.727,347.998 "
     id="polygon6167"
     transform="matrix(2.6243114,0,0,2.6243114,-2.592236,-202.05669)" />
  <polygon
     points="84.09,332.252 84.09,324.379 90.909,320.442 97.727,324.379 97.727,332.252 90.909,336.188 "
     id="polygon6169"
     transform="matrix(2.6243114,0,0,2.6243114,-2.592236,-202.05669)" />
  <polygon
     points="77.272,320.442 77.272,312.569 84.09,308.633 90.909,312.569 90.909,320.442 84.09,324.379 "
     id="polygon6171"
     transform="matrix(2.6243114,0,0,2.6243114,-2.592236,-202.05669)" />
  <polygon
     points="111.363,355.871 111.363,347.998 118.181,344.061 125,347.998 125,355.871 118.181,359.807 "
     id="polygon6173"
     transform="matrix(2.6243114,0,0,2.6243114,-2.592236,-202.05669)" />
  <polygon
     points="104.545,344.061 104.545,336.188 111.363,332.252 118.181,336.188 118.181,344.061 111.363,347.998 "
     id="polygon6175"
     transform="matrix(2.6243114,0,0,2.6243114,-2.592236,-202.05669)" />
  <polygon
     points="97.727,332.252 97.727,324.379 104.545,320.442 111.363,324.379 111.363,332.252 104.545,336.188 "
     id="polygon6177"
     transform="matrix(2.6243114,0,0,2.6243114,-2.592236,-202.05669)" />
  <polygon
     points="90.909,320.442 90.909,312.569 97.727,308.633 104.545,312.569 104.545,320.442 97.727,324.379 "
     id="polygon6179"
     transform="matrix(2.6243114,0,0,2.6243114,-2.592236,-202.05669)" />
  <polygon
     points="84.09,308.633 84.09,300.76 90.909,296.823 97.727,300.76 97.727,308.633 90.909,312.569 "
     id="polygon6181"
     transform="matrix(2.6243114,0,0,2.6243114,-2.592236,-202.05669)" />
  <polygon
     points="125,355.871 125,347.998 131.818,344.061 138.636,347.998 138.636,355.871 131.818,359.807 "
     id="polygon6183"
     transform="matrix(2.6243114,0,0,2.6243114,-2.592236,-202.05669)" />
  <polygon
     points="118.181,344.061 118.181,336.188 125,332.252 131.818,336.188 131.818,344.061 125,347.998 "
     id="polygon6185"
     transform="matrix(2.6243114,0,0,2.6243114,-2.592236,-202.05669)" />
  <polygon
     points="111.363,332.252 111.363,324.379 118.181,320.442 125,324.379 125,332.252 118.181,336.188 "
     id="polygon6187"
     transform="matrix(2.6243114,0,0,2.6243114,-2.592236,-202.05669)" />
  <polygon
     points="104.545,320.442 104.545,312.569 111.363,308.633 118.181,312.569 118.181,320.442 111.363,324.379 "
     id="polygon6189"
     transform="matrix(2.6243114,0,0,2.6243114,-2.592236,-202.05669)" />
  <polygon
     points="97.727,308.633 97.727,300.76 104.545,296.823 111.363,300.76 111.363,308.633 104.545,312.569 "
     id="polygon6191"
     transform="matrix(2.6243114,0,0,2.6243114,-2.592236,-202.05669)" />
  <polygon
     points="90.909,296.823 90.909,288.95 97.727,285.014 104.545,288.95 104.545,296.823 97.727,300.76 "
     id="polygon6193"
     transform="matrix(2.6243114,0,0,2.6243114,-2.592236,-202.05669)" />
  <polygon
     points="138.636,355.871 138.636,347.998 145.454,344.061 152.272,347.998 152.272,355.871 145.454,359.807 "
     id="polygon6195"
     transform="matrix(2.6243114,0,0,2.6243114,-2.592236,-202.05669)" />
  <polygon
     points="131.818,344.061 131.818,336.188 138.636,332.252 145.454,336.188 145.454,344.061 138.636,347.998 "
     id="polygon6197"
     transform="matrix(2.6243114,0,0,2.6243114,-2.592236,-202.05669)" />
  <polygon
     points="125,332.252 125,324.379 131.818,320.442 138.636,324.379 138.636,332.252 131.818,336.188 "
     id="polygon6199"
     transform="matrix(2.6243114,0,0,2.6243114,-2.592236,-202.05669)" />
  <polygon
     points="118.181,320.442 118.181,312.569 125,308.633 131.818,312.569 131.818,320.442 125,324.379 "
     id="polygon6201"
     transform="matrix(2.6243114,0,0,2.6243114,-2.592236,-202.05669)" />
  <polygon
     points="111.363,308.633 111.363,300.76 118.181,296.823 125,300.76 125,308.633 118.181,312.569 "
     id="polygon6203"
     transform="matrix(2.6243114,0,0,2.6243114,-2.592236,-202.05669)" />
  <polygon
     points="104.545,296.823 104.545,288.95 111.363,285.014 118.181,288.95 118.181,296.823 111.363,300.76 "
     id="polygon6205"
     transform="matrix(2.6243114,0,0,2.6243114,-2.592236,-202.05669)" />
  <polygon
     points="97.727,285.014 97.727,277.141 104.545,273.205 111.363,277.141 111.363,285.014 104.545,288.95 "
     id="polygon6207"
     transform="matrix(2.6243114,0,0,2.6243114,-2.592236,-202.05669)" />
  <polygon
     points="152.272,355.871 152.272,347.998 159.09,344.061 165.909,347.998 165.909,355.871 159.09,359.807 "
     id="polygon6209"
     transform="matrix(2.6243114,0,0,2.6243114,-2.592236,-202.05669)" />
  <polygon
     points="145.454,344.061 145.454,336.188 152.272,332.252 159.09,336.188 159.09,344.061 152.272,347.998 "
     id="polygon6211"
     transform="matrix(2.6243114,0,0,2.6243114,-2.592236,-202.05669)" />
  <polygon
     points="138.636,332.252 138.636,324.379 145.454,320.442 152.272,324.379 152.272,332.252 145.454,336.188 "
     id="polygon6213"
     transform="matrix(2.6243114,0,0,2.6243114,-2.592236,-202.05669)" />
  <polygon
     points="131.818,320.442 131.818,312.569 138.636,308.633 145.454,312.569 145.454,320.442 138.636,324.379 "
     id="polygon6215"
     transform="matrix(2.6243114,0,0,2.6243114,-2.592236,-202.05669)" />
  <polygon
     points="125,308.633 125,300.76 131.818,296.823 138.636,300.76 138.636,308.633 131.818,312.569 "
     id="polygon6217"
     transform="matrix(2.6243114,0,0,2.6243114,-2.592236,-202.05669)" />
  <polygon
     points="118.181,296.823 118.181,288.95 125,285.014 131.818,288.95 131.818,296.823 125,300.76 "
     id="polygon6219"
     transform="matrix(2.6243114,0,0,2.6243114,-2.592236,-202.05669)" />
  <polygon
     points="111.363,285.014 111.363,277.141 118.181,273.205 125,277.141 125,285.014 118.181,288.95 "
     id="polygon6221"
     transform="matrix(2.6243114,0,0,2.6243114,-2.592236,-202.05669)" />
  <polygon
     points="104.545,273.205 104.545,265.332 111.363,261.395 118.181,265.332 118.181,273.205 111.363,277.141 "
     id="polygon6223"
     transform="matrix(2.6243114,0,0,2.6243114,-2.592236,-202.05669)" />
  <polygon
     points="165.909,355.871 165.909,347.998 172.727,344.061 179.545,347.998 179.545,355.871 172.727,359.807 "
     id="polygon6225"
     transform="matrix(2.6243114,0,0,2.6243114,-2.592236,-202.05669)" />
  <polygon
     points="159.09,344.061 159.09,336.188 165.909,332.252 172.727,336.188 172.727,344.061 165.909,347.998 "
     id="polygon6227"
     transform="matrix(2.6243114,0,0,2.6243114,-2.592236,-202.05669)" />
  <polygon
     points="152.272,332.252 152.272,324.379 159.09,320.442 165.909,324.379 165.909,332.252 159.09,336.188 "
     id="polygon6229"
     transform="matrix(2.6243114,0,0,2.6243114,-2.592236,-202.05669)" />
  <polygon
     points="145.454,320.442 145.454,312.569 152.272,308.633 159.09,312.569 159.09,320.442 152.272,324.379 "
     id="polygon6231"
     transform="matrix(2.6243114,0,0,2.6243114,-2.592236,-202.05669)" />
  <polygon
     points="138.636,308.633 138.636,300.76 145.454,296.823 152.272,300.76 152.272,308.633 145.454,312.569 "
     id="polygon6233"
     transform="matrix(2.6243114,0,0,2.6243114,-2.592236,-202.05669)" />
  <polygon
     points="131.818,296.823 131.818,288.95 138.636,285.014 145.454,288.95 145.454,296.823 138.636,300.76 "
     id="polygon6235"
     transform="matrix(2.6243114,0,0,2.6243114,-2.592236,-202.05669)" />
  <polygon
     points="125,285.014 125,277.141 131.818,273.205 138.636,277.141 138.636,285.014 131.818,288.95 "
     id="polygon6237"
     transform="matrix(2.6243114,0,0,2.6243114,-2.592236,-202.05669)" />
  <polygon
     points="118.181,273.205 118.181,265.332 125,261.395 131.818,265.332 131.818,273.205 125,277.141 "
     id="polygon6239"
     transform="matrix(2.6243114,0,0,2.6243114,-2.592236,-202.05669)" />
  <polygon
     points="111.363,261.395 111.363,253.522 118.181,249.586 125,253.522 125,261.395 118.181,265.332 "
     id="polygon6241"
     transform="matrix(2.6243114,0,0,2.6243114,-2.592236,-202.05669)" />
  <polygon
     points="179.545,355.871 179.545,347.998 186.363,344.061 193.181,347.998 193.181,355.871 186.363,359.807 "
     id="polygon6243"
     transform="matrix(2.6243114,0,0,2.6243114,-2.592236,-202.05669)" />
  <polygon
     points="172.727,344.061 172.727,336.188 179.545,332.252 186.363,336.188 186.363,344.061 179.545,347.998 "
     id="polygon6245"
     transform="matrix(2.6243114,0,0,2.6243114,-2.592236,-202.05669)" />
  <polygon
     points="165.909,332.252 165.909,324.379 172.727,320.442 179.545,324.379 179.545,332.252 172.727,336.188 "
     id="polygon6247"
     transform="matrix(2.6243114,0,0,2.6243114,-2.592236,-202.05669)" />
  <polygon
     points="159.09,320.442 159.09,312.569 165.909,308.633 172.727,312.569 172.727,320.442 165.909,324.379 "
     id="polygon6249"
     transform="matrix(2.6243114,0,0,2.6243114,-2.592236,-202.05669)" />
  <polygon
     points="152.272,308.633 152.272,300.76 159.09,296.823 165.909,300.76 165.909,308.633 159.09,312.569 "
     id="polygon6251"
     transform="matrix(2.6243114,0,0,2.6243114,-2.592236,-202.05669)" />
  <polygon
     points="145.454,296.823 145.454,288.95 152.272,285.014 159.09,288.95 159.09,296.823 152.272,300.76 "
     id="polygon6253"
     transform="matrix(2.6243114,0,0,2.6243114,-2.592236,-202.05669)" />
  <polygon
     points="138.636,285.014 138.636,277.141 145.454,273.205 152.272,277.141 152.272,285.014 145.454,288.95 "
     id="polygon6255"
     transform="matrix(2.6243114,0,0,2.6243114,-2.592236,-202.05669)" />
  <polygon
     points="131.818,273.205 131.818,265.332 138.636,261.395 145.454,265.332 145.454,273.205 138.636,277.141 "
     id="polygon6257"
     transform="matrix(2.6243114,0,0,2.6243114,-2.592236,-202.05669)" />
  <polygon
     points="125,261.395 125,253.522 131.818,249.586 138.636,253.522 138.636,261.395 131.818,265.332 "
     id="polygon6259"
     transform="matrix(2.6243114,0,0,2.6243114,-2.592236,-202.05669)" />
  <polygon
     points="118.181,249.586 118.181,241.713 125,237.776 131.818,241.713 131.818,249.586 125,253.522 "
     id="polygon6261"
     transform="matrix(2.6243114,0,0,2.6243114,-2.592236,-202.05669)" />
  <polygon
     points="193.181,355.871 193.181,347.998 200,344.061 206.818,347.998 206.818,355.871 200,359.807 "
     id="polygon6263"
     transform="matrix(2.6243114,0,0,2.6243114,-2.592236,-202.05669)" />
  <polygon
     points="186.363,344.061 186.363,336.188 193.181,332.252 200,336.188 200,344.061 193.181,347.998 "
     id="polygon6265"
     transform="matrix(2.6243114,0,0,2.6243114,-2.592236,-202.05669)" />
  <polygon
     points="179.545,332.252 179.545,324.379 186.363,320.442 193.181,324.379 193.181,332.252 186.363,336.188 "
     id="polygon6267"
     transform="matrix(2.6243114,0,0,2.6243114,-2.592236,-202.05669)" />
  <polygon
     points="172.727,320.442 172.727,312.569 179.545,308.633 186.363,312.569 186.363,320.442 179.545,324.379 "
     id="polygon6269"
     transform="matrix(2.6243114,0,0,2.6243114,-2.592236,-202.05669)" />
  <polygon
     points="165.909,308.633 165.909,300.76 172.727,296.823 179.545,300.76 179.545,308.633 172.727,312.569 "
     id="polygon6271"
     transform="matrix(2.6243114,0,0,2.6243114,-2.592236,-202.05669)" />
  <polygon
     points="159.09,296.823 159.09,288.95 165.909,285.014 172.727,288.95 172.727,296.823 165.909,300.76 "
     id="polygon6273"
     transform="matrix(2.6243114,0,0,2.6243114,-2.592236,-202.05669)" />
  <polygon
     points="152.272,285.014 152.272,277.141 159.09,273.205 165.909,277.141 165.909,285.014 159.09,288.95 "
     id="polygon6275"
     transform="matrix(2.6243114,0,0,2.6243114,-2.592236,-202.05669)" />
  <polygon
     points="145.454,273.205 145.454,265.332 152.272,261.395 159.09,265.332 159.09,273.205 152.272,277.141 "
     id="polygon6277"
     transform="matrix(2.6243114,0,0,2.6243114,-2.592236,-202.05669)" />
  <polygon
     points="138.636,261.395 138.636,253.522 145.454,249.586 152.272,253.522 152.272,261.395 145.454,265.332 "
     id="polygon6279"
     transform="matrix(2.6243114,0,0,2.6243114,-2.592236,-202.05669)" />
  <polygon
     points="131.818,249.586 131.818,241.713 138.636,237.776 145.454,241.713 145.454,249.586 138.636,253.522 "
     id="polygon6281"
     transform="matrix(2.6243114,0,0,2.6243114,-2.592236,-202.05669)" />
  <polygon
     points="125,237.776 125,229.903 131.818,225.967 138.636,229.903 138.636,237.776 131.818,241.713 "
     id="polygon6283"
     transform="matrix(2.6243114,0,0,2.6243114,-2.592236,-202.05669)" />
  <polygon
     points="206.818,355.871 206.818,347.998 213.636,344.061 220.454,347.998 220.454,355.871 213.636,359.807 "
     id="polygon6285"
     transform="matrix(2.6243114,0,0,2.6243114,-2.592236,-202.05669)" />
  <polygon
     points="200,344.061 200,336.188 206.818,332.252 213.636,336.188 213.636,344.061 206.818,347.998 "
     id="polygon6287"
     transform="matrix(2.6243114,0,0,2.6243114,-2.592236,-202.05669)" />
  <polygon
     points="193.181,332.252 193.181,324.379 200,320.442 206.818,324.379 206.818,332.252 200,336.188 "
     id="polygon6289"
     transform="matrix(2.6243114,0,0,2.6243114,-2.592236,-202.05669)" />
  <polygon
     points="186.363,320.442 186.363,312.569 193.181,308.633 200,312.569 200,320.442 193.181,324.379 "
     id="polygon6291"
     transform="matrix(2.6243114,0,0,2.6243114,-2.592236,-202.05669)" />
  <polygon
     points="179.545,308.633 179.545,300.76 186.363,296.823 193.181,300.76 193.181,308.633 186.363,312.569 "
     id="polygon6293"
     transform="matrix(2.6243114,0,0,2.6243114,-2.592236,-202.05669)" />
  <polygon
     points="172.727,296.823 172.727,288.95 179.545,285.014 186.363,288.95 186.363,296.823 179.545,300.76 "
     id="polygon6295"
     transform="matrix(2.6243114,0,0,2.6243114,-2.592236,-202.05669)" />
  <polygon
     points="165.909,285.014 165.909,277.141 172.727,273.205 179.545,277.141 179.545,285.014 172.727,288.95 "
     id="polygon6297"
     transform="matrix(2.6243114,0,0,2.6243114,-2.592236,-202.05669)" />
  <polygon
     points="159.09,273.205 159.09,265.332 165.909,261.395 172.727,265.332 172.727,273.205 165.909,277.141 "
     id="polygon6299"
     transform="matrix(2.6243114,0,0,2.6243114,-2.592236,-202.05669)" />
  <polygon
     points="152.272,261.395 152.272,253.522 159.09,249.586 165.909,253.522 165.909,261.395 159.09,265.332 "
     id="polygon6301"
     transform="matrix(2.6243114,0,0,2.6243114,-2.592236,-202.05669)" />
  <polygon
     points="145.454,249.586 145.454,241.713 152.272,237.776 159.09,241.713 159.09,249.586 152.272,253.522 "
     id="polygon6303"
     transform="matrix(2.6243114,0,0,2.6243114,-2.592236,-202.05669)" />
  <polygon
     points="138.636,237.776 138.636,229.903 145.454,225.967 152.272,229.903 152.272,237.776 145.454,241.713 "
     id="polygon6305"
     transform="matrix(2.6243114,0,0,2.6243114,-2.592236,-202.05669)" />
  <polygon
     points="131.818,225.967 131.818,218.094 138.636,214.157 145.454,218.094 145.454,225.967 138.636,229.903 "
     id="polygon6307"
     transform="matrix(2.6243114,0,0,2.6243114,-2.592236,-202.05669)" />
  <polygon
     points="220.454,355.871 220.454,347.998 227.272,344.061 234.09,347.998 234.09,355.871 227.272,359.807 "
     id="polygon6309"
     transform="matrix(2.6243114,0,0,2.6243114,-2.592236,-202.05669)" />
  <polygon
     points="213.636,344.061 213.636,336.188 220.454,332.252 227.272,336.188 227.272,344.061 220.454,347.998 "
     id="polygon6311"
     transform="matrix(2.6243114,0,0,2.6243114,-2.592236,-202.05669)" />
  <polygon
     points="206.818,332.252 206.818,324.379 213.636,320.442 220.454,324.379 220.454,332.252 213.636,336.188 "
     id="polygon6313"
     transform="matrix(2.6243114,0,0,2.6243114,-2.592236,-202.05669)" />
  <polygon
     points="200,320.442 200,312.569 206.818,308.633 213.636,312.569 213.636,320.442 206.818,324.379 "
     id="polygon6315"
     transform="matrix(2.6243114,0,0,2.6243114,-2.592236,-202.05669)" />
  <polygon
     points="193.181,308.633 193.181,300.76 200,296.823 206.818,300.76 206.818,308.633 200,312.569 "
     id="polygon6317"
     transform="matrix(2.6243114,0,0,2.6243114,-2.592236,-202.05669)" />
  <polygon
     points="186.363,296.823 186.363,288.95 193.181,285.014 200,288.95 200,296.823 193.181,300.76 "
     id="polygon6319"
     transform="matrix(2.6243114,0,0,2.6243114,-2.592236,-202.05669)" />
  <polygon
     points="179.545,285.014 179.545,277.141 186.363,273.205 193.181,277.141 193.181,285.014 186.363,288.95 "
     id="polygon6321"
     transform="matrix(2.6243114,0,0,2.6243114,-2.592236,-202.05669)" />
  <polygon
     points="172.727,273.205 172.727,265.332 179.545,261.395 186.363,265.332 186.363,273.205 179.545,277.141 "
     id="polygon6323"
     transform="matrix(2.6243114,0,0,2.6243114,-2.592236,-202.05669)" />
  <polygon
     points="165.909,261.395 165.909,253.522 172.727,249.586 179.545,253.522 179.545,261.395 172.727,265.332 "
     id="polygon6325"
     transform="matrix(2.6243114,0,0,2.6243114,-2.592236,-202.05669)" />
  <polygon
     points="159.09,249.586 159.09,241.713 165.909,237.776 172.727,241.713 172.727,249.586 165.909,253.522 "
     id="polygon6327"
     transform="matrix(2.6243114,0,0,2.6243114,-2.592236,-202.05669)" />
  <polygon
     points="152.272,237.776 152.272,229.903 159.09,225.967 165.909,229.903 165.909,237.776 159.09,241.713 "
     id="polygon6329"
     transform="matrix(2.6243114,0,0,2.6243114,-2.592236,-202.05669)" />
  <polygon
     points="145.454,225.967 145.454,218.094 152.272,214.157 159.09,218.094 159.09,225.967 152.272,229.903 "
     id="polygon6331"
     transform="matrix(2.6243114,0,0,2.6243114,-2.592236,-202.05669)" />
  <polygon
     points="138.636,214.157 138.636,206.284 145.454,202.348 152.272,206.284 152.272,214.157 145.454,218.094 "
     id="polygon6333"
     transform="matrix(2.6243114,0,0,2.6243114,-2.592236,-202.05669)" />
  <polygon
     points="234.09,355.871 234.09,347.998 240.909,344.061 247.727,347.998 247.727,355.871 240.909,359.807 "
     id="polygon6335"
     transform="matrix(2.6243114,0,0,2.6243114,-2.592236,-202.05669)" />
  <polygon
     points="227.272,344.061 227.272,336.188 234.09,332.252 240.909,336.188 240.909,344.061 234.09,347.998 "
     id="polygon6337"
     transform="matrix(2.6243114,0,0,2.6243114,-2.592236,-202.05669)" />
  <polygon
     points="220.454,332.252 220.454,324.379 227.272,320.442 234.09,324.379 234.09,332.252 227.272,336.188 "
     id="polygon6339"
     transform="matrix(2.6243114,0,0,2.6243114,-2.592236,-202.05669)" />
  <polygon
     points="213.636,320.442 213.636,312.569 220.454,308.633 227.272,312.569 227.272,320.442 220.454,324.379 "
     id="polygon6341"
     transform="matrix(2.6243114,0,0,2.6243114,-2.592236,-202.05669)" />
  <polygon
     points="206.818,308.633 206.818,300.76 213.636,296.823 220.454,300.76 220.454,308.633 213.636,312.569 "
     id="polygon6343"
     transform="matrix(2.6243114,0,0,2.6243114,-2.592236,-202.05669)" />
  <polygon
     points="200,296.823 200,288.95 206.818,285.014 213.636,288.95 213.636,296.823 206.818,300.76 "
     id="polygon6345"
     transform="matrix(2.6243114,0,0,2.6243114,-2.592236,-202.05669)" />
  <polygon
     points="193.181,285.014 193.181,277.141 200,273.205 206.818,277.141 206.818,285.014 200,288.95 "
     id="polygon6347"
     transform="matrix(2.6243114,0,0,2.6243114,-2.592236,-202.05669)" />
  <polygon
     points="186.363,273.205 186.363,265.332 193.181,261.395 200,265.332 200,273.205 193.181,277.141 "
     id="polygon6349"
     transform="matrix(2.6243114,0,0,2.6243114,-2.592236,-202.05669)" />
  <polygon
     points="179.545,261.395 179.545,253.522 186.363,249.586 193.181,253.522 193.181,261.395 186.363,265.332 "
     id="polygon6351"
     transform="matrix(2.6243114,0,0,2.6243114,-2.592236,-202.05669)" />
  <polygon
     points="172.727,249.586 172.727,241.713 179.545,237.776 186.363,241.713 186.363,249.586 179.545,253.522 "
     id="polygon6353"
     transform="matrix(2.6243114,0,0,2.6243114,-2.592236,-202.05669)" />
  <polygon
     points="165.909,237.776 165.909,229.903 172.727,225.967 179.545,229.903 179.545,237.776 172.727,241.713 "
     id="polygon6355"
     transform="matrix(2.6243114,0,0,2.6243114,-2.592236,-202.05669)" />
  <polygon
     points="159.09,225.967 159.09,218.094 165.909,214.157 172.727,218.094 172.727,225.967 165.909,229.903 "
     id="polygon6357"
     transform="matrix(2.6243114,0,0,2.6243114,-2.592236,-202.05669)" />
  <polygon
     points="152.272,214.157 152.272,206.284 159.09,202.348 165.909,206.284 165.909,214.157 159.09,218.094 "
     id="polygon6359"
     transform="matrix(2.6243114,0,0,2.6243114,-2.592236,-202.05669)" />
  <polygon
     points="145.454,202.348 145.454,194.475 152.272,190.539 159.09,194.475 159.09,202.348 152.272,206.284 "
     id="polygon6361"
     transform="matrix(2.6243114,0,0,2.6243114,-2.592236,-202.05669)" />
  <polygon
     points="247.727,355.871 247.727,347.998 254.545,344.061 261.363,347.998 261.363,355.871 254.545,359.807 "
     id="polygon6363"
     transform="matrix(2.6243114,0,0,2.6243114,-2.592236,-202.05669)" />
  <polygon
     points="240.909,344.061 240.909,336.188 247.727,332.252 254.545,336.188 254.545,344.061 247.727,347.998 "
     id="polygon6365"
     transform="matrix(2.6243114,0,0,2.6243114,-2.592236,-202.05669)" />
  <polygon
     points="234.09,332.252 234.09,324.379 240.909,320.442 247.727,324.379 247.727,332.252 240.909,336.188 "
     id="polygon6367"
     transform="matrix(2.6243114,0,0,2.6243114,-2.592236,-202.05669)" />
  <polygon
     points="227.272,320.442 227.272,312.569 234.09,308.633 240.909,312.569 240.909,320.442 234.09,324.379 "
     id="polygon6369"
     transform="matrix(2.6243114,0,0,2.6243114,-2.592236,-202.05669)" />
  <polygon
     points="220.454,308.633 220.454,300.76 227.272,296.823 234.09,300.76 234.09,308.633 227.272,312.569 "
     id="polygon6371"
     transform="matrix(2.6243114,0,0,2.6243114,-2.592236,-202.05669)" />
  <polygon
     points="213.636,296.823 213.636,288.95 220.454,285.014 227.272,288.95 227.272,296.823 220.454,300.76 "
     id="polygon6373"
     transform="matrix(2.6243114,0,0,2.6243114,-2.592236,-202.05669)" />
  <polygon
     points="206.818,285.014 206.818,277.141 213.636,273.205 220.454,277.141 220.454,285.014 213.636,288.95 "
     id="polygon6375"
     transform="matrix(2.6243114,0,0,2.6243114,-2.592236,-202.05669)" />
  <polygon
     points="200,273.205 200,265.332 206.818,261.395 213.636,265.332 213.636,273.205 206.818,277.141 "
     id="polygon6377"
     transform="matrix(2.6243114,0,0,2.6243114,-2.592236,-202.05669)" />
  <polygon
     points="193.181,261.395 193.181,253.522 200,249.586 206.818,253.522 206.818,261.395 200,265.332 "
     id="polygon6379"
     transform="matrix(2.6243114,0,0,2.6243114,-2.592236,-202.05669)" />
  <polygon
     points="186.363,249.586 186.363,241.713 193.181,237.776 200,241.713 200,249.586 193.181,253.522 "
     id="polygon6381"
     transform="matrix(2.6243114,0,0,2.6243114,-2.592236,-202.05669)" />
  <polygon
     points="179.545,237.776 179.545,229.903 186.363,225.967 193.181,229.903 193.181,237.776 186.363,241.713 "
     id="polygon6383"
     transform="matrix(2.6243114,0,0,2.6243114,-2.592236,-202.05669)" />
  <polygon
     points="172.727,225.967 172.727,218.094 179.545,214.157 186.363,218.094 186.363,225.967 179.545,229.903 "
     id="polygon6385"
     transform="matrix(2.6243114,0,0,2.6243114,-2.592236,-202.05669)" />
  <polygon
     points="165.909,214.157 165.909,206.284 172.727,202.348 179.545,206.284 179.545,214.157 172.727,218.094 "
     id="polygon6387"
     transform="matrix(2.6243114,0,0,2.6243114,-2.592236,-202.05669)" />
  <polygon
     points="159.09,202.348 159.09,194.475 165.909,190.539 172.727,194.475 172.727,202.348 165.909,206.284 "
     id="polygon6389"
     transform="matrix(2.6243114,0,0,2.6243114,-2.592236,-202.05669)" />
  <polygon
     points="152.272,190.539 152.272,182.666 159.09,178.729 165.909,182.666 165.909,190.539 159.09,194.475 "
     id="polygon6391"
     transform="matrix(2.6243114,0,0,2.6243114,-2.592236,-202.05669)" />
  <polygon
     points="261.363,355.871 261.363,347.998 268.181,344.061 275,347.998 275,355.871 268.181,359.807 "
     id="polygon6393"
     transform="matrix(2.6243114,0,0,2.6243114,-2.592236,-202.05669)" />
  <polygon
     points="254.545,344.061 254.545,336.188 261.363,332.252 268.181,336.188 268.181,344.061 261.363,347.998 "
     id="polygon6395"
     transform="matrix(2.6243114,0,0,2.6243114,-2.592236,-202.05669)" />
  <polygon
     points="247.727,332.252 247.727,324.379 254.545,320.442 261.363,324.379 261.363,332.252 254.545,336.188 "
     id="polygon6397"
     transform="matrix(2.6243114,0,0,2.6243114,-2.592236,-202.05669)" />
  <polygon
     points="240.909,320.442 240.909,312.569 247.727,308.633 254.545,312.569 254.545,320.442 247.727,324.379 "
     id="polygon6399"
     transform="matrix(2.6243114,0,0,2.6243114,-2.592236,-202.05669)" />
  <polygon
     points="234.09,308.633 234.09,300.76 240.909,296.823 247.727,300.76 247.727,308.633 240.909,312.569 "
     id="polygon6401"
     transform="matrix(2.6243114,0,0,2.6243114,-2.592236,-202.05669)" />
  <polygon
     points="227.272,296.823 227.272,288.95 234.09,285.014 240.909,288.95 240.909,296.823 234.09,300.76 "
     id="polygon6403"
     transform="matrix(2.6243114,0,0,2.6243114,-2.592236,-202.05669)" />
  <polygon
     points="220.454,285.014 220.454,277.141 227.272,273.205 234.09,277.141 234.09,285.014 227.272,288.95 "
     id="polygon6405"
     transform="matrix(2.6243114,0,0,2.6243114,-2.592236,-202.05669)" />
  <polygon
     points="213.636,273.205 213.636,265.332 220.454,261.395 227.272,265.332 227.272,273.205 220.454,277.141 "
     id="polygon6407"
     transform="matrix(2.6243114,0,0,2.6243114,-2.592236,-202.05669)" />
  <polygon
     points="206.818,261.395 206.818,253.522 213.636,249.586 220.454,253.522 220.454,261.395 213.636,265.332 "
     id="polygon6409"
     transform="matrix(2.6243114,0,0,2.6243114,-2.592236,-202.05669)" />
  <polygon
     points="200,249.586 200,241.713 206.818,237.776 213.636,241.713 213.636,249.586 206.818,253.522 "
     id="polygon6411"
     transform="matrix(2.6243114,0,0,2.6243114,-2.592236,-202.05669)" />
  <polygon
     points="193.181,237.776 193.181,229.903 200,225.967 206.818,229.903 206.818,237.776 200,241.713 "
     id="polygon6413"
     transform="matrix(2.6243114,0,0,2.6243114,-2.592236,-202.05669)" />
  <polygon
     points="186.363,225.967 186.363,218.094 193.181,214.157 200,218.094 200,225.967 193.181,229.903 "
     id="polygon6415"
     transform="matrix(2.6243114,0,0,2.6243114,-2.592236,-202.05669)" />
  <polygon
     points="179.545,214.157 179.545,206.284 186.363,202.348 193.181,206.284 193.181,214.157 186.363,218.094 "
     id="polygon6417"
     transform="matrix(2.6243114,0,0,2.6243114,-2.592236,-202.05669)" />
  <polygon
     points="172.727,202.348 172.727,194.475 179.545,190.539 186.363,194.475 186.363,202.348 179.545,206.284 "
     id="polygon6419"
     transform="matrix(2.6243114,0,0,2.6243114,-2.592236,-202.05669)" />
  <polygon
     points="165.909,190.539 165.909,182.666 172.727,178.729 179.545,182.666 179.545,190.539 172.727,194.475 "
     id="polygon6421"
     transform="matrix(2.6243114,0,0,2.6243114,-2.592236,-202.05669)" />
  <polygon
     points="159.09,178.729 159.09,170.856 165.909,166.92 172.727,170.856 172.727,178.729 165.909,182.666 "
     id="polygon6423"
     transform="matrix(2.6243114,0,0,2.6243114,-2.592236,-202.05669)" />
  <polygon
     points="275,355.871 275,347.998 281.818,344.061 288.636,347.998 288.636,355.871 281.818,359.807 "
     id="polygon6425"
     transform="matrix(2.6243114,0,0,2.6243114,-2.592236,-202.05669)" />
  <polygon
     points="268.181,344.061 268.181,336.188 275,332.252 281.818,336.188 281.818,344.061 275,347.998 "
     id="polygon6427"
     transform="matrix(2.6243114,0,0,2.6243114,-2.592236,-202.05669)" />
  <polygon
     points="261.363,332.252 261.363,324.379 268.181,320.442 275,324.379 275,332.252 268.181,336.188 "
     id="polygon6429"
     transform="matrix(2.6243114,0,0,2.6243114,-2.592236,-202.05669)" />
  <polygon
     points="254.545,320.442 254.545,312.569 261.363,308.633 268.181,312.569 268.181,320.442 261.363,324.379 "
     id="polygon6431"
     transform="matrix(2.6243114,0,0,2.6243114,-2.592236,-202.05669)" />
  <polygon
     points="247.727,308.633 247.727,300.76 254.545,296.823 261.363,300.76 261.363,308.633 254.545,312.569 "
     id="polygon6433"
     transform="matrix(2.6243114,0,0,2.6243114,-2.592236,-202.05669)" />
  <polygon
     points="240.909,296.823 240.909,288.95 247.727,285.014 254.545,288.95 254.545,296.823 247.727,300.76 "
     id="polygon6435"
     transform="matrix(2.6243114,0,0,2.6243114,-2.592236,-202.05669)" />
  <polygon
     points="234.09,285.014 234.09,277.141 240.909,273.205 247.727,277.141 247.727,285.014 240.909,288.95 "
     id="polygon6437"
     transform="matrix(2.6243114,0,0,2.6243114,-2.592236,-202.05669)" />
  <polygon
     points="227.272,273.205 227.272,265.332 234.09,261.395 240.909,265.332 240.909,273.205 234.09,277.141 "
     id="polygon6439"
     transform="matrix(2.6243114,0,0,2.6243114,-2.592236,-202.05669)" />
  <polygon
     points="220.454,261.395 220.454,253.522 227.272,249.586 234.09,253.522 234.09,261.395 227.272,265.332 "
     id="polygon6441"
     transform="matrix(2.6243114,0,0,2.6243114,-2.592236,-202.05669)" />
  <polygon
     points="213.636,249.586 213.636,241.713 220.454,237.776 227.272,241.713 227.272,249.586 220.454,253.522 "
     id="polygon6443"
     transform="matrix(2.6243114,0,0,2.6243114,-2.592236,-202.05669)" />
  <polygon
     points="206.818,237.776 206.818,229.903 213.636,225.967 220.454,229.903 220.454,237.776 213.636,241.713 "
     id="polygon6445"
     transform="matrix(2.6243114,0,0,2.6243114,-2.592236,-202.05669)" />
  <polygon
     points="200,225.967 200,218.094 206.818,214.157 213.636,218.094 213.636,225.967 206.818,229.903 "
     id="polygon6447"
     transform="matrix(2.6243114,0,0,2.6243114,-2.592236,-202.05669)" />
  <polygon
     points="193.181,214.157 193.181,206.284 200,202.348 206.818,206.284 206.818,214.157 200,218.094 "
     id="polygon6449"
     transform="matrix(2.6243114,0,0,2.6243114,-2.592236,-202.05669)" />
  <polygon
     points="186.363,202.348 186.363,194.475 193.181,190.539 200,194.475 200,202.348 193.181,206.284 "
     id="polygon6451"
     transform="matrix(2.6243114,0,0,2.6243114,-2.592236,-202.05669)" />
  <polygon
     points="179.545,190.539 179.545,182.666 186.363,178.729 193.181,182.666 193.181,190.539 186.363,194.475 "
     id="polygon6453"
     transform="matrix(2.6243114,0,0,2.6243114,-2.592236,-202.05669)" />
  <polygon
     points="172.727,178.729 172.727,170.856 179.545,166.92 186.363,170.856 186.363,178.729 179.545,182.666 "
     id="polygon6455"
     transform="matrix(2.6243114,0,0,2.6243114,-2.592236,-202.05669)" />
  <polygon
     points="165.909,166.92 165.909,159.047 172.727,155.11 179.545,159.047 179.545,166.92 172.727,170.856 "
     id="polygon6457"
     transform="matrix(2.6243114,0,0,2.6243114,-2.592236,-202.05669)" />
  <polygon
     points="288.636,355.871 288.636,347.998 295.454,344.061 302.272,347.998 302.272,355.871 295.454,359.807 "
     id="polygon6459"
     transform="matrix(2.6243114,0,0,2.6243114,-2.592236,-202.05669)" />
  <polygon
     points="281.818,344.061 281.818,336.188 288.636,332.252 295.454,336.188 295.454,344.061 288.636,347.998 "
     id="polygon6461"
     transform="matrix(2.6243114,0,0,2.6243114,-2.592236,-202.05669)" />
  <polygon
     points="275,332.252 275,324.379 281.818,320.442 288.636,324.379 288.636,332.252 281.818,336.188 "
     id="polygon6463"
     transform="matrix(2.6243114,0,0,2.6243114,-2.592236,-202.05669)" />
  <polygon
     points="268.181,320.442 268.181,312.569 275,308.633 281.818,312.569 281.818,320.442 275,324.379 "
     id="polygon6465"
     transform="matrix(2.6243114,0,0,2.6243114,-2.592236,-202.05669)" />
  <polygon
     points="261.363,308.633 261.363,300.76 268.181,296.823 275,300.76 275,308.633 268.181,312.569 "
     id="polygon6467"
     transform="matrix(2.6243114,0,0,2.6243114,-2.592236,-202.05669)" />
  <polygon
     points="254.545,296.823 254.545,288.95 261.363,285.014 268.181,288.95 268.181,296.823 261.363,300.76 "
     id="polygon6469"
     transform="matrix(2.6243114,0,0,2.6243114,-2.592236,-202.05669)" />
  <polygon
     points="247.727,285.014 247.727,277.141 254.545,273.205 261.363,277.141 261.363,285.014 254.545,288.95 "
     id="polygon6471"
     transform="matrix(2.6243114,0,0,2.6243114,-2.592236,-202.05669)" />
  <polygon
     points="240.909,273.205 240.909,265.332 247.727,261.395 254.545,265.332 254.545,273.205 247.727,277.141 "
     id="polygon6473"
     transform="matrix(2.6243114,0,0,2.6243114,-2.592236,-202.05669)" />
  <polygon
     points="234.09,261.395 234.09,253.522 240.909,249.586 247.727,253.522 247.727,261.395 240.909,265.332 "
     id="polygon6475"
     transform="matrix(2.6243114,0,0,2.6243114,-2.592236,-202.05669)" />
  <polygon
     points="227.272,249.586 227.272,241.713 234.09,237.776 240.909,241.713 240.909,249.586 234.09,253.522 "
     id="polygon6477"
     transform="matrix(2.6243114,0,0,2.6243114,-2.592236,-202.05669)" />
  <polygon
     points="220.454,237.776 220.454,229.903 227.272,225.967 234.09,229.903 234.09,237.776 227.272,241.713 "
     id="polygon6479"
     transform="matrix(2.6243114,0,0,2.6243114,-2.592236,-202.05669)" />
  <polygon
     points="213.636,225.967 213.636,218.094 220.454,214.157 227.272,218.094 227.272,225.967 220.454,229.903 "
     id="polygon6481"
     transform="matrix(2.6243114,0,0,2.6243114,-2.592236,-202.05669)" />
  <polygon
     points="206.818,214.157 206.818,206.284 213.636,202.348 220.454,206.284 220.454,214.157 213.636,218.094 "
     id="polygon6483"
     transform="matrix(2.6243114,0,0,2.6243114,-2.592236,-202.05669)" />
  <polygon
     points="200,202.348 200,194.475 206.818,190.539 213.636,194.475 213.636,202.348 206.818,206.284 "
     id="polygon6485"
     transform="matrix(2.6243114,0,0,2.6243114,-2.592236,-202.05669)" />
  <polygon
     points="193.181,190.539 193.181,182.666 200,178.729 206.818,182.666 206.818,190.539 200,194.475 "
     id="polygon6487"
     transform="matrix(2.6243114,0,0,2.6243114,-2.592236,-202.05669)" />
  <polygon
     points="186.363,178.729 186.363,170.856 193.181,166.92 200,170.856 200,178.729 193.181,182.666 "
     id="polygon6489"
     transform="matrix(2.6243114,0,0,2.6243114,-2.592236,-202.05669)" />
  <polygon
     points="179.545,166.92 179.545,159.047 186.363,155.11 193.181,159.047 193.181,166.92 186.363,170.856 "
     id="polygon6491"
     transform="matrix(2.6243114,0,0,2.6243114,-2.592236,-202.05669)" />
  <polygon
     points="172.727,155.11 172.727,147.237 179.545,143.301 186.363,147.237 186.363,155.11 179.545,159.047 "
     id="polygon6493"
     transform="matrix(2.6243114,0,0,2.6243114,-2.592236,-202.05669)" />
  <polygon
     points="302.272,355.871 302.272,347.998 309.09,344.061 315.909,347.998 315.909,355.871 309.09,359.807 "
     id="polygon6495"
     transform="matrix(2.6243114,0,0,2.6243114,-2.592236,-202.05669)" />
  <polygon
     points="295.454,344.061 295.454,336.188 302.272,332.252 309.09,336.188 309.09,344.061 302.272,347.998 "
     id="polygon6497"
     transform="matrix(2.6243114,0,0,2.6243114,-2.592236,-202.05669)" />
  <polygon
     points="288.636,332.252 288.636,324.379 295.454,320.442 302.272,324.379 302.272,332.252 295.454,336.188 "
     id="polygon6499"
     transform="matrix(2.6243114,0,0,2.6243114,-2.592236,-202.05669)" />
  <polygon
     points="281.818,320.442 281.818,312.569 288.636,308.633 295.454,312.569 295.454,320.442 288.636,324.379 "
     id="polygon6501"
     transform="matrix(2.6243114,0,0,2.6243114,-2.592236,-202.05669)" />
  <polygon
     points="275,308.633 275,300.76 281.818,296.823 288.636,300.76 288.636,308.633 281.818,312.569 "
     id="polygon6503"
     transform="matrix(2.6243114,0,0,2.6243114,-2.592236,-202.05669)" />
  <polygon
     points="268.181,296.823 268.181,288.95 275,285.014 281.818,288.95 281.818,296.823 275,300.76 "
     id="polygon6505"
     transform="matrix(2.6243114,0,0,2.6243114,-2.592236,-202.05669)" />
  <polygon
     points="261.363,285.014 261.363,277.141 268.181,273.205 275,277.141 275,285.014 268.181,288.95 "
     id="polygon6507"
     transform="matrix(2.6243114,0,0,2.6243114,-2.592236,-202.05669)" />
  <polygon
     points="254.545,273.205 254.545,265.332 261.363,261.395 268.181,265.332 268.181,273.205 261.363,277.141 "
     id="polygon6509"
     transform="matrix(2.6243114,0,0,2.6243114,-2.592236,-202.05669)" />
  <polygon
     points="247.727,261.395 247.727,253.522 254.545,249.586 261.363,253.522 261.363,261.395 254.545,265.332 "
     id="polygon6511"
     transform="matrix(2.6243114,0,0,2.6243114,-2.592236,-202.05669)" />
  <polygon
     points="240.909,249.586 240.909,241.713 247.727,237.776 254.545,241.713 254.545,249.586 247.727,253.522 "
     id="polygon6513"
     transform="matrix(2.6243114,0,0,2.6243114,-2.592236,-202.05669)" />
  <polygon
     points="234.09,237.776 234.09,229.903 240.909,225.967 247.727,229.903 247.727,237.776 240.909,241.713 "
     id="polygon6515"
     transform="matrix(2.6243114,0,0,2.6243114,-2.592236,-202.05669)" />
  <polygon
     points="227.272,225.967 227.272,218.094 234.09,214.157 240.909,218.094 240.909,225.967 234.09,229.903 "
     id="polygon6517"
     transform="matrix(2.6243114,0,0,2.6243114,-2.592236,-202.05669)" />
  <polygon
     points="220.454,214.157 220.454,206.284 227.272,202.348 234.09,206.284 234.09,214.157 227.272,218.094 "
     id="polygon6519"
     transform="matrix(2.6243114,0,0,2.6243114,-2.592236,-202.05669)" />
  <polygon
     points="213.636,202.348 213.636,194.475 220.454,190.539 227.272,194.475 227.272,202.348 220.454,206.284 "
     id="polygon6521"
     transform="matrix(2.6243114,0,0,2.6243114,-2.592236,-202.05669)" />
  <polygon
     points="206.818,190.539 206.818,182.666 213.636,178.729 220.454,182.666 220.454,190.539 213.636,194.475 "
     id="polygon6523"
     transform="matrix(2.6243114,0,0,2.6243114,-2.592236,-202.05669)" />
  <polygon
     points="200,178.729 200,170.856 206.818,166.92 213.636,170.856 213.636,178.729 206.818,182.666 "
     id="polygon6525"
     transform="matrix(2.6243114,0,0,2.6243114,-2.592236,-202.05669)" />
  <polygon
     points="193.181,166.92 193.181,159.047 200,155.11 206.818,159.047 206.818,166.92 200,170.856 "
     id="polygon6527"
     transform="matrix(2.6243114,0,0,2.6243114,-2.592236,-202.05669)" />
  <polygon
     points="186.363,155.11 186.363,147.237 193.181,143.301 200,147.237 200,155.11 193.181,159.047 "
     id="polygon6529"
     transform="matrix(2.6243114,0,0,2.6243114,-2.592236,-202.05669)" />
  <polygon
     points="179.545,143.301 179.545,135.428 186.363,131.491 193.181,135.428 193.181,143.301 186.363,147.237 "
     id="polygon6531"
     transform="matrix(2.6243114,0,0,2.6243114,-2.592236,-202.05669)" />
  <polygon
     points="315.909,355.871 315.909,347.998 322.727,344.061 329.545,347.998 329.545,355.871 322.727,359.807 "
     id="polygon6533"
     transform="matrix(2.6243114,0,0,2.6243114,-2.592236,-202.05669)" />
  <polygon
     points="309.09,344.061 309.09,336.188 315.909,332.252 322.727,336.188 322.727,344.061 315.909,347.998 "
     id="polygon6535"
     transform="matrix(2.6243114,0,0,2.6243114,-2.592236,-202.05669)" />
  <polygon
     points="302.272,332.252 302.272,324.379 309.09,320.442 315.909,324.379 315.909,332.252 309.09,336.188 "
     id="polygon6537"
     transform="matrix(2.6243114,0,0,2.6243114,-2.592236,-202.05669)" />
  <polygon
     points="295.454,320.442 295.454,312.569 302.272,308.633 309.09,312.569 309.09,320.442 302.272,324.379 "
     id="polygon6539"
     transform="matrix(2.6243114,0,0,2.6243114,-2.592236,-202.05669)" />
  <polygon
     points="288.636,308.633 288.636,300.76 295.454,296.823 302.272,300.76 302.272,308.633 295.454,312.569 "
     id="polygon6541"
     transform="matrix(2.6243114,0,0,2.6243114,-2.592236,-202.05669)" />
  <polygon
     points="281.818,296.823 281.818,288.95 288.636,285.014 295.454,288.95 295.454,296.823 288.636,300.76 "
     id="polygon6543"
     transform="matrix(2.6243114,0,0,2.6243114,-2.592236,-202.05669)" />
  <polygon
     points="275,285.014 275,277.141 281.818,273.205 288.636,277.141 288.636,285.014 281.818,288.95 "
     id="polygon6545"
     transform="matrix(2.6243114,0,0,2.6243114,-2.592236,-202.05669)" />
  <polygon
     points="268.181,273.205 268.181,265.332 275,261.395 281.818,265.332 281.818,273.205 275,277.141 "
     id="polygon6547"
     transform="matrix(2.6243114,0,0,2.6243114,-2.592236,-202.05669)" />
  <polygon
     points="261.363,261.395 261.363,253.522 268.181,249.586 275,253.522 275,261.395 268.181,265.332 "
     id="polygon6549"
     transform="matrix(2.6243114,0,0,2.6243114,-2.592236,-202.05669)" />
  <polygon
     points="254.545,249.586 254.545,241.713 261.363,237.776 268.181,241.713 268.181,249.586 261.363,253.522 "
     id="polygon6551"
     transform="matrix(2.6243114,0,0,2.6243114,-2.592236,-202.05669)" />
  <polygon
     points="247.727,237.776 247.727,229.903 254.545,225.967 261.363,229.903 261.363,237.776 254.545,241.713 "
     id="polygon6553"
     transform="matrix(2.6243114,0,0,2.6243114,-2.592236,-202.05669)" />
  <polygon
     points="240.909,225.967 240.909,218.094 247.727,214.157 254.545,218.094 254.545,225.967 247.727,229.903 "
     id="polygon6555"
     transform="matrix(2.6243114,0,0,2.6243114,-2.592236,-202.05669)" />
  <polygon
     points="234.09,214.157 234.09,206.284 240.909,202.348 247.727,206.284 247.727,214.157 240.909,218.094 "
     id="polygon6557"
     transform="matrix(2.6243114,0,0,2.6243114,-2.592236,-202.05669)" />
  <polygon
     points="227.272,202.348 227.272,194.475 234.09,190.539 240.909,194.475 240.909,202.348 234.09,206.284 "
     id="polygon6559"
     transform="matrix(2.6243114,0,0,2.6243114,-2.592236,-202.05669)" />
  <polygon
     points="220.454,190.539 220.454,182.666 227.272,178.729 234.09,182.666 234.09,190.539 227.272,194.475 "
     id="polygon6561"
     transform="matrix(2.6243114,0,0,2.6243114,-2.592236,-202.05669)" />
  <polygon
     points="213.636,178.729 213.636,170.856 220.454,166.92 227.272,170.856 227.272,178.729 220.454,182.666 "
     id="polygon6563"
     transform="matrix(2.6243114,0,0,2.6243114,-2.592236,-202.05669)" />
  <polygon
     points="206.818,166.92 206.818,159.047 213.636,155.11 220.454,159.047 220.454,166.92 213.636,170.856 "
     id="polygon6565"
     transform="matrix(2.6243114,0,0,2.6243114,-2.592236,-202.05669)" />
  <polygon
     points="200,155.11 200,147.237 206.818,143.301 213.636,147.237 213.636,155.11 206.818,159.047 "
     id="polygon6567"
     transform="matrix(2.6243114,0,0,2.6243114,-2.592236,-202.05669)" />
  <polygon
     points="193.181,143.301 193.181,135.428 200,131.491 206.818,135.428 206.818,143.301 200,147.237 "
     id="polygon6569"
     transform="matrix(2.6243114,0,0,2.6243114,-2.592236,-202.05669)" />
  <polygon
     points="186.363,131.491 186.363,123.618 193.181,119.682 200,123.618 200,131.491 193.181,135.428 "
     id="polygon6571"
     transform="matrix(2.6243114,0,0,2.6243114,-2.592236,-202.05669)" />
  <polygon
     points="329.545,355.871 329.545,347.998 336.363,344.061 343.181,347.998 343.181,355.871 336.363,359.807 "
     id="polygon6573"
     transform="matrix(2.6243114,0,0,2.6243114,-2.592236,-202.05669)" />
  <polygon
     points="322.727,344.061 322.727,336.188 329.545,332.252 336.363,336.188 336.363,344.061 329.545,347.998 "
     id="polygon6575"
     transform="matrix(2.6243114,0,0,2.6243114,-2.592236,-202.05669)" />
  <polygon
     points="315.909,332.252 315.909,324.379 322.727,320.442 329.545,324.379 329.545,332.252 322.727,336.188 "
     id="polygon6577"
     transform="matrix(2.6243114,0,0,2.6243114,-2.592236,-202.05669)" />
  <polygon
     points="309.09,320.442 309.09,312.569 315.909,308.633 322.727,312.569 322.727,320.442 315.909,324.379 "
     id="polygon6579"
     transform="matrix(2.6243114,0,0,2.6243114,-2.592236,-202.05669)" />
  <polygon
     points="302.272,308.633 302.272,300.76 309.09,296.823 315.909,300.76 315.909,308.633 309.09,312.569 "
     id="polygon6581"
     transform="matrix(2.6243114,0,0,2.6243114,-2.592236,-202.05669)" />
  <polygon
     points="295.454,296.823 295.454,288.95 302.272,285.014 309.09,288.95 309.09,296.823 302.272,300.76 "
     id="polygon6583"
     transform="matrix(2.6243114,0,0,2.6243114,-2.592236,-202.05669)" />
  <polygon
     points="288.636,285.014 288.636,277.141 295.454,273.205 302.272,277.141 302.272,285.014 295.454,288.95 "
     id="polygon6585"
     transform="matrix(2.6243114,0,0,2.6243114,-2.592236,-202.05669)" />
  <polygon
     points="281.818,273.205 281.818,265.332 288.636,261.395 295.454,265.332 295.454,273.205 288.636,277.141 "
     id="polygon6587"
     transform="matrix(2.6243114,0,0,2.6243114,-2.592236,-202.05669)" />
  <polygon
     points="275,261.395 275,253.522 281.818,249.586 288.636,253.522 288.636,261.395 281.818,265.332 "
     id="polygon6589"
     transform="matrix(2.6243114,0,0,2.6243114,-2.592236,-202.05669)" />
  <polygon
     points="268.181,249.586 268.181,241.713 275,237.776 281.818,241.713 281.818,249.586 275,253.522 "
     id="polygon6591"
     transform="matrix(2.6243114,0,0,2.6243114,-2.592236,-202.05669)" />
  <polygon
     points="261.363,237.776 261.363,229.903 268.181,225.967 275,229.903 275,237.776 268.181,241.713 "
     id="polygon6593"
     transform="matrix(2.6243114,0,0,2.6243114,-2.592236,-202.05669)" />
  <polygon
     points="254.545,225.967 254.545,218.094 261.363,214.157 268.181,218.094 268.181,225.967 261.363,229.903 "
     id="polygon6595"
     transform="matrix(2.6243114,0,0,2.6243114,-2.592236,-202.05669)" />
  <polygon
     points="247.727,214.157 247.727,206.284 254.545,202.348 261.363,206.284 261.363,214.157 254.545,218.094 "
     id="polygon6597"
     transform="matrix(2.6243114,0,0,2.6243114,-2.592236,-202.05669)" />
  <polygon
     points="240.909,202.348 240.909,194.475 247.727,190.539 254.545,194.475 254.545,202.348 247.727,206.284 "
     id="polygon6599"
     transform="matrix(2.6243114,0,0,2.6243114,-2.592236,-202.05669)" />
  <polygon
     points="234.09,190.539 234.09,182.666 240.909,178.729 247.727,182.666 247.727,190.539 240.909,194.475 "
     id="polygon6601"
     transform="matrix(2.6243114,0,0,2.6243114,-2.592236,-202.05669)" />
  <polygon
     points="227.272,178.729 227.272,170.856 234.09,166.92 240.909,170.856 240.909,178.729 234.09,182.666 "
     id="polygon6603"
     transform="matrix(2.6243114,0,0,2.6243114,-2.592236,-202.05669)" />
  <polygon
     points="220.454,166.92 220.454,159.047 227.272,155.11 234.09,159.047 234.09,166.92 227.272,170.856 "
     id="polygon6605"
     transform="matrix(2.6243114,0,0,2.6243114,-2.592236,-202.05669)" />
  <polygon
     points="213.636,155.11 213.636,147.237 220.454,143.301 227.272,147.237 227.272,155.11 220.454,159.047 "
     id="polygon6607"
     transform="matrix(2.6243114,0,0,2.6243114,-2.592236,-202.05669)" />
  <polygon
     points="206.818,143.301 206.818,135.428 213.636,131.491 220.454,135.428 220.454,143.301 213.636,147.237 "
     id="polygon6609"
     transform="matrix(2.6243114,0,0,2.6243114,-2.592236,-202.05669)" />
  <polygon
     points="200,131.491 200,123.618 206.818,119.682 213.636,123.618 213.636,131.491 206.818,135.428 "
     id="polygon6611"
     transform="matrix(2.6243114,0,0,2.6243114,-2.592236,-202.05669)" />
  <polygon
     points="193.181,119.682 193.181,111.809 200,107.872 206.818,111.809 206.818,119.682 200,123.618 "
     id="polygon6613"
     transform="matrix(2.6243114,0,0,2.6243114,-2.592236,-202.05669)" />
</svg>
