<svg style="fill:none;stroke:#000000;" xmlns="http://www.w3.org/2000/svg" width="1000" height="1000">
<rect stroke="red" x="0" y="0" width="1000" height="1000" fill="none"/>
<polygon points="275.0 316.506 200.0 359.807 125.0 316.506 125.0 229.903 199.999 186.602 275.0 229.903"/>
<polygon points="162.5 338.156 125.0 359.807 87.5 338.156 87.5 294.855 124.999 273.205 162.5 294.855"/>
<polygon points="237.5 338.156 200.0 359.807 162.5 338.156 162.5 294.855 200.0 273.205 237.5 294.855"/>
<polygon points="200.0 273.205 162.5 294.855 125.0 273.205 125.0 229.903 162.5 208.253 200.0 229.903"/>
<polygon points="312.5 338.156 275.0 359.807 237.5 338.156 237.5 294.855 275.0 273.205 312.5 294.855"/>
<polygon points="275.0 273.205 237.5 294.855 200.0 273.205 200.0 229.903 237.5 208.253 275.0 229.903"/>
<polygon points="237.5 208.253 200.0 229.903 162.5 208.253 162.5 164.951 200.0 143.301 237.5 164.951"/>
<polygon points="114.285 347.435 92.857 359.807 71.428 347.435 71.428 322.692 92.857 310.320 114.285 322.692"/>
<polygon points="157.142 347.435 135.714 359.807 114.285 347.435 114.285 322.692 135.714 310.320 157.142 322.692"/>
<polygon points="135.714 310.320 114.285 322.692 92.857 310.320 92.857 285.576 114.285 273.205 135.714 285.576"/>
<polygon points="199.999 347.435 178.571 359.807 157.142 347.435 157.142 322.692 178.571 310.320 200.0 322.692"/>
<polygon points="178.571 310.320 157.142 322.692 135.714 310.320 135.714 285.576 157.142 273.205 178.571 285.576"/>
<polygon points="157.142 273.205 135.714 285.576 114.285 273.205 114.285 248.461 135.714 236.089 157.142 248.461"/>
<polygon points="242.857 347.435 221.428 359.807 200.0 347.435 200.0 322.692 221.428 310.320 242.857 322.692"/>
<polygon points="221.428 310.320 200.0 322.692 178.571 310.320 178.571 285.576 200.0 273.205 221.428 285.576"/>
<polygon points="199.999 273.205 178.571 285.576 157.142 273.205 157.142 248.461 178.571 236.089 200.0 248.461"/>
<polygon points="178.571 236.089 157.142 248.461 135.714 236.089 135.714 211.346 157.142 198.974 178.571 211.346"/>
<polygon points="285.714 347.435 264.285 359.807 242.857 347.435 242.857 322.692 264.285 310.320 285.714 322.692"/>
<polygon points="264.285 310.320 242.857 322.692 221.428 310.320 221.428 285.576 242.857 273.205 264.285 285.576"/>
<polygon points="242.857 273.205 221.428 285.576 200.0 273.205 200.0 248.461 221.428 236.089 242.857 248.461"/>
<polygon points="221.428 236.089 200.0 248.461 178.571 236.089 178.571 211.346 200.0 198.974 221.428 211.346"/>
<polygon points="199.999 198.974 178.571 211.346 157.142 198.974 157.142 174.230 178.571 161.858 200.0 174.230"/>
<polygon points="328.571 347.435 307.142 359.807 285.714 347.435 285.714 322.692 307.142 310.320 328.571 322.692"/>
<polygon points="307.142 310.320 285.714 322.692 264.285 310.320 264.285 285.576 285.714 273.205 307.142 285.576"/>
<polygon points="285.714 273.205 264.285 285.576 242.857 273.205 242.857 248.461 264.285 236.089 285.714 248.461"/>
<polygon points="264.285 236.089 242.857 248.461 221.428 236.089 221.428 211.346 242.857 198.974 264.285 211.346"/>
<polygon points="242.857 198.974 221.428 211.346 200.0 198.974 200.0 174.230 221.428 161.858 242.857 174.230"/>
<polygon points="221.428 161.858 200.0 174.230 178.571 161.858 178.571 137.115 200.0 124.743 221.428 137.115"/>
<polygon points="90.909 351.934 77.272 359.807 63.636 351.934 63.636 336.188 77.272 328.315 90.909 336.188"/>
<polygon points="118.181 351.934 104.545 359.807 90.909 351.934 90.909 336.188 104.545 328.315 118.181 336.188"/>
<polygon points="104.545 328.315 90.909 336.188 77.272 328.315 77.272 312.569 90.909 304.696 104.545 312.569"/>
<polygon points="145.454 351.934 131.818 359.807 118.181 351.934 118.181 336.188 131.818 328.315 145.454 336.188"/>
<polygon points="131.818 328.315 118.181 336.188 104.545 328.315 104.545 312.569 118.181 304.696 131.818 312.569"/>
<polygon points="118.181 304.696 104.545 312.569 90.909 304.696 90.909 288.950 104.545 281.078 118.181 288.950"/>
<polygon points="172.727 351.934 159.090 359.807 145.454 351.934 145.454 336.188 159.090 328.315 172.727 336.188"/>
<polygon points="159.090 328.315 145.454 336.188 131.818 328.315 131.818 312.569 145.454 304.696 159.090 312.569"/>
<polygon points="145.454 304.696 131.818 312.569 118.181 304.696 118.181 288.950 131.818 281.078 145.454 288.950"/>
<polygon points="131.818 281.078 118.181 288.950 104.545 281.078 104.545 265.332 118.181 257.459 131.818 265.332"/>
<polygon points="200.0 351.934 186.363 359.807 172.727 351.934 172.727 336.188 186.363 328.315 200.0 336.188"/>
<polygon points="186.363 328.315 172.727 336.188 159.090 328.315 159.090 312.569 172.727 304.696 186.363 312.569"/>
<polygon points="172.727 304.696 159.090 312.569 145.454 304.696 145.454 288.950 159.090 281.078 172.727 288.950"/>
<polygon points="159.090 281.078 145.454 288.950 131.818 281.078 131.818 265.332 145.454 257.459 159.090 265.332"/>
<polygon points="145.454 257.459 131.818 265.332 118.181 257.459 118.181 241.713 131.818 233.840 145.454 241.713"/>
<polygon points="227.272 351.934 213.636 359.807 200.0 351.934 200.0 336.188 213.636 328.315 227.272 336.188"/>
<polygon points="213.636 328.315 200.0 336.188 186.363 328.315 186.363 312.569 200.0 304.696 213.636 312.569"/>
<polygon points="200.0 304.696 186.363 312.569 172.727 304.696 172.727 288.950 186.363 281.078 200.0 288.950"/>
<polygon points="186.363 281.078 172.727 288.950 159.090 281.078 159.090 265.332 172.727 257.459 186.363 265.332"/>
<polygon points="172.727 257.459 159.090 265.332 145.454 257.459 145.454 241.713 159.090 233.840 172.727 241.713"/>
<polygon points="159.090 233.840 145.454 241.713 131.818 233.840 131.818 218.094 145.454 210.221 159.090 218.094"/>
<polygon points="254.545 351.934 240.909 359.807 227.272 351.934 227.272 336.188 240.909 328.315 254.545 336.188"/>
<polygon points="240.909 328.315 227.272 336.188 213.636 328.315 213.636 312.569 227.272 304.696 240.909 312.569"/>
<polygon points="227.272 304.696 213.636 312.569 200.0 304.696 200.0 288.950 213.636 281.078 227.272 288.950"/>
<polygon points="213.636 281.078 200.0 288.950 186.363 281.078 186.363 265.332 200.0 257.459 213.636 265.332"/>
<polygon points="200.0 257.459 186.363 265.332 172.727 257.459 172.727 241.713 186.363 233.840 200.0 241.713"/>
<polygon points="186.363 233.840 172.727 241.713 159.090 233.840 159.090 218.094 172.727 210.221 186.363 218.094"/>
<polygon points="172.727 210.221 159.090 218.094 145.454 210.221 145.454 194.475 159.090 186.602 172.727 194.475"/>
<polygon points="281.818 351.934 268.181 359.807 254.545 351.934 254.545 336.188 268.181 328.315 281.818 336.188"/>
<polygon points="268.181 328.315 254.545 336.188 240.909 328.315 240.909 312.569 254.545 304.696 268.181 312.569"/>
<polygon points="254.545 304.696 240.909 312.569 227.272 304.696 227.272 288.950 240.909 281.078 254.545 288.950"/>
<polygon points="240.909 281.078 227.272 288.950 213.636 281.078 213.636 265.332 227.272 257.459 240.909 265.332"/>
<polygon points="227.272 257.459 213.636 265.332 200.0 257.459 200.0 241.713 213.636 233.840 227.272 241.713"/>
<polygon points="213.636 233.840 200.0 241.713 186.363 233.840 186.363 218.094 200.0 210.221 213.636 218.094"/>
<polygon points="200.0 210.221 186.363 218.094 172.727 210.221 172.727 194.475 186.363 186.602 200.0 194.475"/>
<polygon points="186.363 186.602 172.727 194.475 159.090 186.602 159.090 170.856 172.727 162.983 186.363 170.856"/>
<polygon points="309.090 351.934 295.454 359.807 281.818 351.934 281.818 336.188 295.454 328.315 309.090 336.188"/>
<polygon points="295.454 328.315 281.818 336.188 268.181 328.315 268.181 312.569 281.818 304.696 295.454 312.569"/>
<polygon points="281.818 304.696 268.181 312.569 254.545 304.696 254.545 288.950 268.181 281.078 281.818 288.950"/>
<polygon points="268.181 281.078 254.545 288.950 240.909 281.078 240.909 265.332 254.545 257.459 268.181 265.332"/>
<polygon points="254.545 257.459 240.909 265.332 227.272 257.459 227.272 241.713 240.909 233.840 254.545 241.713"/>
<polygon points="240.909 233.840 227.272 241.713 213.636 233.840 213.636 218.094 227.272 210.221 240.909 218.094"/>
<polygon points="227.272 210.221 213.636 218.094 200.0 210.221 200.0 194.475 213.636 186.602 227.272 194.475"/>
<polygon points="213.636 186.602 200.0 194.475 186.363 186.602 186.363 170.856 200.0 162.983 213.636 170.856"/>
<polygon points="200.0 162.983 186.363 170.856 172.727 162.983 172.727 147.237 186.363 139.364 200.0 147.237"/>
<polygon points="336.363 351.934 322.727 359.807 309.090 351.934 309.090 336.188 322.727 328.315 336.363 336.188"/>
<polygon points="322.727 328.315 309.090 336.188 295.454 328.315 295.454 312.569 309.090 304.696 322.727 312.569"/>
<polygon points="309.090 304.696 295.454 312.569 281.818 304.696 281.818 288.950 295.454 281.078 309.090 288.950"/>
<polygon points="295.454 281.078 281.818 288.950 268.181 281.078 268.181 265.332 281.818 257.459 295.454 265.332"/>
<polygon points="281.818 257.459 268.181 265.332 254.545 257.459 254.545 241.713 268.181 233.840 281.818 241.713"/>
<polygon points="268.181 233.840 254.545 241.713 240.909 233.840 240.909 218.094 254.545 210.221 268.181 218.094"/>
<polygon points="254.545 210.221 240.909 218.094 227.272 210.221 227.272 194.475 240.909 186.602 254.545 194.475"/>
<polygon points="240.909 186.602 227.272 194.475 213.636 186.602 213.636 170.856 227.272 162.983 240.909 170.856"/>
<polygon points="227.272 162.983 213.636 170.856 200.0 162.983 200.0 147.237 213.636 139.364 227.272 147.237"/>
<polygon points="213.636 139.364 200.0 147.237 186.363 139.364 186.363 123.618 200.0 115.745 213.636 123.618"/>
<polygon points="78.125 354.394 68.75 359.807 59.375 354.394 59.375 343.569 68.75 338.156 78.125 343.569"/>
<polygon points="96.875 354.394 87.5 359.807 78.125 354.394 78.125 343.569 87.5 338.156 96.875 343.569"/>
<polygon points="87.5 338.156 78.125 343.569 68.75 338.156 68.75 327.331 78.125 321.919 87.5 327.331"/>
<polygon points="115.625 354.394 106.25 359.807 96.875 354.394 96.875 343.569 106.25 338.156 115.625 343.569"/>
<polygon points="106.25 338.156 96.875 343.569 87.5 338.156 87.5 327.331 96.875 321.919 106.25 327.331"/>
<polygon points="96.875 321.919 87.5 327.331 78.125 321.919 78.125 311.093 87.5 305.681 96.875 311.093"/>
<polygon points="134.375 354.394 125.0 359.807 115.625 354.394 115.625 343.569 125.0 338.156 134.375 343.569"/>
<polygon points="125.0 338.156 115.625 343.569 106.25 338.156 106.25 327.331 115.625 321.919 125.0 327.331"/>
<polygon points="115.625 321.919 106.25 327.331 96.875 321.919 96.875 311.093 106.25 305.681 115.625 311.093"/>
<polygon points="106.25 305.681 96.875 311.093 87.5 305.681 87.5 294.855 96.875 289.443 106.25 294.855"/>
<polygon points="153.125 354.394 143.75 359.807 134.375 354.394 134.375 343.569 143.75 338.156 153.125 343.569"/>
<polygon points="143.75 338.156 134.375 343.569 125.0 338.156 125.0 327.331 134.375 321.919 143.75 327.331"/>
<polygon points="134.375 321.919 125.0 327.331 115.625 321.919 115.625 311.093 125.0 305.681 134.375 311.093"/>
<polygon points="125.0 305.681 115.625 311.093 106.25 305.681 106.25 294.855 115.625 289.443 125.0 294.855"/>
<polygon points="115.625 289.443 106.25 294.855 96.875 289.443 96.875 278.617 106.25 273.205 115.625 278.617"/>
<polygon points="171.875 354.394 162.5 359.807 153.125 354.394 153.125 343.569 162.5 338.156 171.875 343.569"/>
<polygon points="162.5 338.156 153.125 343.569 143.75 338.156 143.75 327.331 153.125 321.919 162.5 327.331"/>
<polygon points="153.125 321.919 143.75 327.331 134.375 321.919 134.375 311.093 143.75 305.681 153.125 311.093"/>
<polygon points="143.75 305.681 134.375 311.093 125.0 305.681 125.0 294.855 134.375 289.443 143.75 294.855"/>
<polygon points="134.375 289.443 125.0 294.855 115.625 289.443 115.625 278.617 125.0 273.205 134.375 278.617"/>
<polygon points="125.0 273.205 115.625 278.617 106.25 273.205 106.25 262.379 115.625 256.967 125.0 262.379"/>
<polygon points="190.625 354.394 181.25 359.807 171.875 354.394 171.875 343.569 181.25 338.156 190.625 343.569"/>
<polygon points="181.25 338.156 171.875 343.569 162.5 338.156 162.5 327.331 171.875 321.919 181.25 327.331"/>
<polygon points="171.875 321.919 162.5 327.331 153.125 321.919 153.125 311.093 162.5 305.681 171.875 311.093"/>
<polygon points="162.5 305.681 153.125 311.093 143.75 305.681 143.75 294.855 153.125 289.443 162.5 294.855"/>
<polygon points="153.125 289.443 143.75 294.855 134.375 289.443 134.375 278.617 143.75 273.205 153.125 278.617"/>
<polygon points="143.75 273.205 134.375 278.617 125.0 273.205 125.0 262.379 134.375 256.967 143.75 262.379"/>
<polygon points="134.375 256.967 125.0 262.379 115.625 256.967 115.625 246.141 125.0 240.729 134.375 246.141"/>
<polygon points="209.375 354.394 200.0 359.807 190.625 354.394 190.625 343.569 200.0 338.156 209.375 343.569"/>
<polygon points="200.0 338.156 190.625 343.569 181.25 338.156 181.25 327.331 190.625 321.919 200.0 327.331"/>
<polygon points="190.625 321.919 181.25 327.331 171.875 321.919 171.875 311.093 181.25 305.681 190.625 311.093"/>
<polygon points="181.25 305.681 171.875 311.093 162.5 305.681 162.5 294.855 171.875 289.443 181.25 294.855"/>
<polygon points="171.875 289.443 162.5 294.855 153.125 289.443 153.125 278.617 162.5 273.205 171.875 278.617"/>
<polygon points="162.5 273.205 153.125 278.617 143.75 273.205 143.75 262.379 153.125 256.967 162.5 262.379"/>
<polygon points="153.125 256.967 143.75 262.379 134.375 256.967 134.375 246.141 143.75 240.729 153.125 246.141"/>
<polygon points="143.75 240.729 134.375 246.141 125.0 240.729 125.0 229.903 134.375 224.491 143.75 229.903"/>
<polygon points="228.125 354.394 218.75 359.807 209.375 354.394 209.375 343.569 218.75 338.156 228.125 343.569"/>
<polygon points="218.75 338.156 209.375 343.569 200.0 338.156 200.0 327.331 209.375 321.919 218.75 327.331"/>
<polygon points="209.375 321.919 200.0 327.331 190.625 321.919 190.625 311.093 200.0 305.681 209.375 311.093"/>
<polygon points="200.0 305.681 190.625 311.093 181.25 305.681 181.25 294.855 190.625 289.443 200.0 294.855"/>
<polygon points="190.625 289.443 181.25 294.855 171.875 289.443 171.875 278.617 181.25 273.205 190.625 278.617"/>
<polygon points="181.25 273.205 171.875 278.617 162.5 273.205 162.5 262.379 171.875 256.967 181.25 262.379"/>
<polygon points="171.875 256.967 162.5 262.379 153.125 256.967 153.125 246.141 162.5 240.729 171.875 246.141"/>
<polygon points="162.5 240.729 153.125 246.141 143.75 240.729 143.75 229.903 153.125 224.491 162.5 229.903"/>
<polygon points="153.125 224.491 143.75 229.903 134.375 224.491 134.375 213.665 143.75 208.253 153.125 213.665"/>
<polygon points="246.875 354.394 237.5 359.807 228.125 354.394 228.125 343.569 237.5 338.156 246.875 343.569"/>
<polygon points="237.5 338.156 228.125 343.569 218.75 338.156 218.75 327.331 228.125 321.919 237.5 327.331"/>
<polygon points="228.125 321.919 218.75 327.331 209.375 321.919 209.375 311.093 218.75 305.681 228.125 311.093"/>
<polygon points="218.75 305.681 209.375 311.093 200.0 305.681 200.0 294.855 209.375 289.443 218.75 294.855"/>
<polygon points="209.375 289.443 200.0 294.855 190.625 289.443 190.625 278.617 200.0 273.205 209.375 278.617"/>
<polygon points="200.0 273.205 190.625 278.617 181.25 273.205 181.25 262.379 190.625 256.967 200.0 262.379"/>
<polygon points="190.625 256.967 181.25 262.379 171.875 256.967 171.875 246.141 181.25 240.729 190.625 246.141"/>
<polygon points="181.25 240.729 171.875 246.141 162.5 240.729 162.5 229.903 171.875 224.491 181.25 229.903"/>
<polygon points="171.875 224.491 162.5 229.903 153.125 224.491 153.125 213.665 162.5 208.253 171.875 213.665"/>
<polygon points="162.5 208.253 153.125 213.665 143.75 208.253 143.75 197.427 153.125 192.015 162.5 197.427"/>
<polygon points="265.625 354.394 256.25 359.807 246.875 354.394 246.875 343.569 256.25 338.156 265.625 343.569"/>
<polygon points="256.25 338.156 246.875 343.569 237.5 338.156 237.5 327.331 246.875 321.919 256.25 327.331"/>
<polygon points="246.875 321.919 237.5 327.331 228.125 321.919 228.125 311.093 237.5 305.681 246.875 311.093"/>
<polygon points="237.5 305.681 228.125 311.093 218.75 305.681 218.75 294.855 228.125 289.443 237.5 294.855"/>
<polygon points="228.125 289.443 218.75 294.855 209.375 289.443 209.375 278.617 218.75 273.205 228.125 278.617"/>
<polygon points="218.75 273.205 209.375 278.617 200.0 273.205 200.0 262.379 209.375 256.967 218.75 262.379"/>
<polygon points="209.375 256.967 200.0 262.379 190.625 256.967 190.625 246.141 200.0 240.729 209.375 246.141"/>
<polygon points="200.0 240.729 190.625 246.141 181.25 240.729 181.25 229.903 190.625 224.491 200.0 229.903"/>
<polygon points="190.625 224.491 181.25 229.903 171.875 224.491 171.875 213.665 181.25 208.253 190.625 213.665"/>
<polygon points="181.25 208.253 171.875 213.665 162.5 208.253 162.5 197.427 171.875 192.015 181.25 197.427"/>
<polygon points="171.875 192.015 162.5 197.427 153.125 192.015 153.125 181.189 162.5 175.777 171.875 181.189"/>
<polygon points="284.375 354.394 275.0 359.807 265.625 354.394 265.625 343.569 275.0 338.156 284.375 343.569"/>
<polygon points="275.0 338.156 265.625 343.569 256.25 338.156 256.25 327.331 265.625 321.919 275.0 327.331"/>
<polygon points="265.625 321.919 256.25 327.331 246.875 321.919 246.875 311.093 256.25 305.681 265.625 311.093"/>
<polygon points="256.25 305.681 246.875 311.093 237.5 305.681 237.5 294.855 246.875 289.443 256.25 294.855"/>
<polygon points="246.875 289.443 237.5 294.855 228.125 289.443 228.125 278.617 237.5 273.205 246.875 278.617"/>
<polygon points="237.5 273.205 228.125 278.617 218.75 273.205 218.75 262.379 228.125 256.967 237.5 262.379"/>
<polygon points="228.125 256.967 218.75 262.379 209.375 256.967 209.375 246.141 218.75 240.729 228.125 246.141"/>
<polygon points="218.75 240.729 209.375 246.141 200.0 240.729 200.0 229.903 209.375 224.491 218.75 229.903"/>
<polygon points="209.375 224.491 200.0 229.903 190.625 224.491 190.625 213.665 200.0 208.253 209.375 213.665"/>
<polygon points="200.0 208.253 190.625 213.665 181.25 208.253 181.25 197.427 190.625 192.015 200.0 197.427"/>
<polygon points="190.625 192.015 181.25 197.427 171.875 192.015 171.875 181.189 181.25 175.777 190.625 181.189"/>
<polygon points="181.25 175.777 171.875 181.189 162.5 175.777 162.5 164.951 171.875 159.539 181.25 164.951"/>
<polygon points="303.125 354.394 293.75 359.807 284.375 354.394 284.375 343.569 293.75 338.156 303.125 343.569"/>
<polygon points="293.75 338.156 284.375 343.569 275.0 338.156 275.0 327.331 284.375 321.919 293.75 327.331"/>
<polygon points="284.375 321.919 275.0 327.331 265.625 321.919 265.625 311.093 275.0 305.681 284.375 311.093"/>
<polygon points="275.0 305.681 265.625 311.093 256.25 305.681 256.25 294.855 265.625 289.443 275.0 294.855"/>
<polygon points="265.625 289.443 256.25 294.855 246.875 289.443 246.875 278.617 256.25 273.205 265.625 278.617"/>
<polygon points="256.25 273.205 246.875 278.617 237.5 273.205 237.5 262.379 246.875 256.967 256.25 262.379"/>
<polygon points="246.875 256.967 237.5 262.379 228.125 256.967 228.125 246.141 237.5 240.729 246.875 246.141"/>
<polygon points="237.5 240.729 228.125 246.141 218.75 240.729 218.75 229.903 228.125 224.491 237.5 229.903"/>
<polygon points="228.125 224.491 218.75 229.903 209.375 224.491 209.375 213.665 218.75 208.253 228.125 213.665"/>
<polygon points="218.75 208.253 209.375 213.665 200.0 208.253 200.0 197.427 209.375 192.015 218.75 197.427"/>
<polygon points="209.375 192.015 200.0 197.427 190.625 192.015 190.625 181.189 200.0 175.777 209.375 181.189"/>
<polygon points="200.0 175.777 190.625 181.189 181.25 175.777 181.25 164.951 190.625 159.539 200.0 164.951"/>
<polygon points="190.625 159.539 181.25 164.951 171.875 159.539 171.875 148.713 181.25 143.301 190.625 148.713"/>
<polygon points="321.875 354.394 312.5 359.807 303.125 354.394 303.125 343.569 312.5 338.156 321.875 343.569"/>
<polygon points="312.5 338.156 303.125 343.569 293.75 338.156 293.75 327.331 303.125 321.919 312.5 327.331"/>
<polygon points="303.125 321.919 293.75 327.331 284.375 321.919 284.375 311.093 293.75 305.681 303.125 311.093"/>
<polygon points="293.75 305.681 284.375 311.093 275.0 305.681 275.0 294.855 284.375 289.443 293.75 294.855"/>
<polygon points="284.375 289.443 275.0 294.855 265.625 289.443 265.625 278.617 275.0 273.205 284.375 278.617"/>
<polygon points="275.0 273.205 265.625 278.617 256.25 273.205 256.25 262.379 265.625 256.967 275.0 262.379"/>
<polygon points="265.625 256.967 256.25 262.379 246.875 256.967 246.875 246.141 256.25 240.729 265.625 246.141"/>
<polygon points="256.25 240.729 246.875 246.141 237.5 240.729 237.5 229.903 246.875 224.491 256.25 229.903"/>
<polygon points="246.875 224.491 237.5 229.903 228.125 224.491 228.125 213.665 237.5 208.253 246.875 213.665"/>
<polygon points="237.5 208.253 228.125 213.665 218.75 208.253 218.75 197.427 228.125 192.015 237.5 197.427"/>
<polygon points="228.125 192.015 218.75 197.427 209.375 192.015 209.375 181.189 218.75 175.777 228.125 181.189"/>
<polygon points="218.75 175.777 209.375 181.189 200.0 175.777 200.0 164.951 209.375 159.539 218.75 164.951"/>
<polygon points="209.375 159.539 200.0 164.951 190.625 159.539 190.625 148.713 200.0 143.301 209.375 148.713"/>
<polygon points="200.0 143.301 190.625 148.713 181.25 143.301 181.25 132.475 190.625 127.063 200.0 132.475"/>
<polygon points="340.625 354.394 331.25 359.807 321.875 354.394 321.875 343.569 331.25 338.156 340.625 343.569"/>
<polygon points="331.25 338.156 321.875 343.569 312.5 338.156 312.5 327.331 321.875 321.919 331.25 327.331"/>
<polygon points="321.875 321.919 312.5 327.331 303.125 321.919 303.125 311.093 312.5 305.681 321.875 311.093"/>
<polygon points="312.5 305.681 303.125 311.093 293.75 305.681 293.75 294.855 303.125 289.443 312.5 294.855"/>
<polygon points="303.125 289.443 293.75 294.855 284.375 289.443 284.375 278.617 293.75 273.205 303.125 278.617"/>
<polygon points="293.75 273.205 284.375 278.617 275.0 273.205 275.0 262.379 284.375 256.967 293.75 262.379"/>
<polygon points="284.375 256.967 275.0 262.379 265.625 256.967 265.625 246.141 275.0 240.729 284.375 246.141"/>
<polygon points="275.0 240.729 265.625 246.141 256.25 240.729 256.25 229.903 265.625 224.491 275.0 229.903"/>
<polygon points="265.625 224.491 256.25 229.903 246.875 224.491 246.875 213.665 256.25 208.253 265.625 213.665"/>
<polygon points="256.25 208.253 246.875 213.665 237.5 208.253 237.5 197.427 246.875 192.015 256.25 197.427"/>
<polygon points="246.875 192.015 237.5 197.427 228.125 192.015 228.125 181.189 237.5 175.777 246.875 181.189"/>
<polygon points="237.5 175.777 228.125 181.189 218.75 175.777 218.75 164.951 228.125 159.539 237.5 164.951"/>
<polygon points="228.125 159.539 218.75 164.951 209.375 159.539 209.375 148.713 218.75 143.301 228.125 148.713"/>
<polygon points="218.75 143.301 209.375 148.713 200.0 143.301 200.0 132.475 209.375 127.063 218.75 132.475"/>
<polygon points="209.375 127.063 200.0 132.475 190.625 127.063 190.625 116.237 200.0 110.825 209.375 116.237"/>
<polygon points="70.454 355.871 63.636 359.807 56.818 355.871 56.818 347.998 63.636 344.061 70.454 347.998"/>
<polygon points="84.090 355.871 77.272 359.807 70.454 355.871 70.454 347.998 77.272 344.061 84.090 347.998"/>
<polygon points="77.272 344.061 70.454 347.998 63.636 344.061 63.636 336.188 70.454 332.252 77.272 336.188"/>
<polygon points="97.727 355.871 90.909 359.807 84.090 355.871 84.090 347.998 90.909 344.061 97.727 347.998"/>
<polygon points="90.909 344.061 84.090 347.998 77.272 344.061 77.272 336.188 84.090 332.252 90.909 336.188"/>
<polygon points="84.090 332.252 77.272 336.188 70.454 332.252 70.454 324.379 77.272 320.442 84.090 324.379"/>
<polygon points="111.363 355.871 104.545 359.807 97.727 355.871 97.727 347.998 104.545 344.061 111.363 347.998"/>
<polygon points="104.545 344.061 97.727 347.998 90.909 344.061 90.909 336.188 97.727 332.252 104.545 336.188"/>
<polygon points="97.727 332.252 90.909 336.188 84.090 332.252 84.090 324.379 90.909 320.442 97.727 324.379"/>
<polygon points="90.909 320.442 84.090 324.379 77.272 320.442 77.272 312.569 84.090 308.633 90.909 312.569"/>
<polygon points="125.0 355.871 118.181 359.807 111.363 355.871 111.363 347.998 118.181 344.061 125.0 347.998"/>
<polygon points="118.181 344.061 111.363 347.998 104.545 344.061 104.545 336.188 111.363 332.252 118.181 336.188"/>
<polygon points="111.363 332.252 104.545 336.188 97.727 332.252 97.727 324.379 104.545 320.442 111.363 324.379"/>
<polygon points="104.545 320.442 97.727 324.379 90.909 320.442 90.909 312.569 97.727 308.633 104.545 312.569"/>
<polygon points="97.727 308.633 90.909 312.569 84.090 308.633 84.090 300.760 90.909 296.823 97.727 300.760"/>
<polygon points="138.636 355.871 131.818 359.807 125.0 355.871 125.0 347.998 131.818 344.061 138.636 347.998"/>
<polygon points="131.818 344.061 125.0 347.998 118.181 344.061 118.181 336.188 125.0 332.252 131.818 336.188"/>
<polygon points="125.0 332.252 118.181 336.188 111.363 332.252 111.363 324.379 118.181 320.442 125.0 324.379"/>
<polygon points="118.181 320.442 111.363 324.379 104.545 320.442 104.545 312.569 111.363 308.633 118.181 312.569"/>
<polygon points="111.363 308.633 104.545 312.569 97.727 308.633 97.727 300.760 104.545 296.823 111.363 300.760"/>
<polygon points="104.545 296.823 97.727 300.760 90.909 296.823 90.909 288.950 97.727 285.014 104.545 288.950"/>
<polygon points="152.272 355.871 145.454 359.807 138.636 355.871 138.636 347.998 145.454 344.061 152.272 347.998"/>
<polygon points="145.454 344.061 138.636 347.998 131.818 344.061 131.818 336.188 138.636 332.252 145.454 336.188"/>
<polygon points="138.636 332.252 131.818 336.188 125.0 332.252 125.0 324.379 131.818 320.442 138.636 324.379"/>
<polygon points="131.818 320.442 125.0 324.379 118.181 320.442 118.181 312.569 125.0 308.633 131.818 312.569"/>
<polygon points="125.0 308.633 118.181 312.569 111.363 308.633 111.363 300.760 118.181 296.823 125.0 300.760"/>
<polygon points="118.181 296.823 111.363 300.760 104.545 296.823 104.545 288.950 111.363 285.014 118.181 288.950"/>
<polygon points="111.363 285.014 104.545 288.950 97.727 285.014 97.727 277.141 104.545 273.205 111.363 277.141"/>
<polygon points="165.909 355.871 159.090 359.807 152.272 355.871 152.272 347.998 159.090 344.061 165.909 347.998"/>
<polygon points="159.090 344.061 152.272 347.998 145.454 344.061 145.454 336.188 152.272 332.252 159.090 336.188"/>
<polygon points="152.272 332.252 145.454 336.188 138.636 332.252 138.636 324.379 145.454 320.442 152.272 324.379"/>
<polygon points="145.454 320.442 138.636 324.379 131.818 320.442 131.818 312.569 138.636 308.633 145.454 312.569"/>
<polygon points="138.636 308.633 131.818 312.569 125.0 308.633 125.0 300.760 131.818 296.823 138.636 300.760"/>
<polygon points="131.818 296.823 125.0 300.760 118.181 296.823 118.181 288.950 125.0 285.014 131.818 288.950"/>
<polygon points="125.0 285.014 118.181 288.950 111.363 285.014 111.363 277.141 118.181 273.205 125.0 277.141"/>
<polygon points="118.181 273.205 111.363 277.141 104.545 273.205 104.545 265.332 111.363 261.395 118.181 265.332"/>
<polygon points="179.545 355.871 172.727 359.807 165.909 355.871 165.909 347.998 172.727 344.061 179.545 347.998"/>
<polygon points="172.727 344.061 165.909 347.998 159.090 344.061 159.090 336.188 165.909 332.252 172.727 336.188"/>
<polygon points="165.909 332.252 159.090 336.188 152.272 332.252 152.272 324.379 159.090 320.442 165.909 324.379"/>
<polygon points="159.090 320.442 152.272 324.379 145.454 320.442 145.454 312.569 152.272 308.633 159.090 312.569"/>
<polygon points="152.272 308.633 145.454 312.569 138.636 308.633 138.636 300.760 145.454 296.823 152.272 300.760"/>
<polygon points="145.454 296.823 138.636 300.760 131.818 296.823 131.818 288.950 138.636 285.014 145.454 288.950"/>
<polygon points="138.636 285.014 131.818 288.950 125.0 285.014 125.0 277.141 131.818 273.205 138.636 277.141"/>
<polygon points="131.818 273.205 125.0 277.141 118.181 273.205 118.181 265.332 125.0 261.395 131.818 265.332"/>
<polygon points="125.0 261.395 118.181 265.332 111.363 261.395 111.363 253.522 118.181 249.586 125.0 253.522"/>
<polygon points="193.181 355.871 186.363 359.807 179.545 355.871 179.545 347.998 186.363 344.061 193.181 347.998"/>
<polygon points="186.363 344.061 179.545 347.998 172.727 344.061 172.727 336.188 179.545 332.252 186.363 336.188"/>
<polygon points="179.545 332.252 172.727 336.188 165.909 332.252 165.909 324.379 172.727 320.442 179.545 324.379"/>
<polygon points="172.727 320.442 165.909 324.379 159.090 320.442 159.090 312.569 165.909 308.633 172.727 312.569"/>
<polygon points="165.909 308.633 159.090 312.569 152.272 308.633 152.272 300.760 159.090 296.823 165.909 300.760"/>
<polygon points="159.090 296.823 152.272 300.760 145.454 296.823 145.454 288.950 152.272 285.014 159.090 288.950"/>
<polygon points="152.272 285.014 145.454 288.950 138.636 285.014 138.636 277.141 145.454 273.205 152.272 277.141"/>
<polygon points="145.454 273.205 138.636 277.141 131.818 273.205 131.818 265.332 138.636 261.395 145.454 265.332"/>
<polygon points="138.636 261.395 131.818 265.332 125.0 261.395 125.0 253.522 131.818 249.586 138.636 253.522"/>
<polygon points="131.818 249.586 125.0 253.522 118.181 249.586 118.181 241.713 125.0 237.776 131.818 241.713"/>
<polygon points="206.818 355.871 200.0 359.807 193.181 355.871 193.181 347.998 200.0 344.061 206.818 347.998"/>
<polygon points="200.0 344.061 193.181 347.998 186.363 344.061 186.363 336.188 193.181 332.252 200.0 336.188"/>
<polygon points="193.181 332.252 186.363 336.188 179.545 332.252 179.545 324.379 186.363 320.442 193.181 324.379"/>
<polygon points="186.363 320.442 179.545 324.379 172.727 320.442 172.727 312.569 179.545 308.633 186.363 312.569"/>
<polygon points="179.545 308.633 172.727 312.569 165.909 308.633 165.909 300.760 172.727 296.823 179.545 300.760"/>
<polygon points="172.727 296.823 165.909 300.760 159.090 296.823 159.090 288.950 165.909 285.014 172.727 288.950"/>
<polygon points="165.909 285.014 159.090 288.950 152.272 285.014 152.272 277.141 159.090 273.205 165.909 277.141"/>
<polygon points="159.090 273.205 152.272 277.141 145.454 273.205 145.454 265.332 152.272 261.395 159.090 265.332"/>
<polygon points="152.272 261.395 145.454 265.332 138.636 261.395 138.636 253.522 145.454 249.586 152.272 253.522"/>
<polygon points="145.454 249.586 138.636 253.522 131.818 249.586 131.818 241.713 138.636 237.776 145.454 241.713"/>
<polygon points="138.636 237.776 131.818 241.713 125.0 237.776 125.0 229.903 131.818 225.967 138.636 229.903"/>
<polygon points="220.454 355.871 213.636 359.807 206.818 355.871 206.818 347.998 213.636 344.061 220.454 347.998"/>
<polygon points="213.636 344.061 206.818 347.998 200.0 344.061 200.0 336.188 206.818 332.252 213.636 336.188"/>
<polygon points="206.818 332.252 200.0 336.188 193.181 332.252 193.181 324.379 200.0 320.442 206.818 324.379"/>
<polygon points="200.0 320.442 193.181 324.379 186.363 320.442 186.363 312.569 193.181 308.633 200.0 312.569"/>
<polygon points="193.181 308.633 186.363 312.569 179.545 308.633 179.545 300.760 186.363 296.823 193.181 300.760"/>
<polygon points="186.363 296.823 179.545 300.760 172.727 296.823 172.727 288.950 179.545 285.014 186.363 288.950"/>
<polygon points="179.545 285.014 172.727 288.950 165.909 285.014 165.909 277.141 172.727 273.205 179.545 277.141"/>
<polygon points="172.727 273.205 165.909 277.141 159.090 273.205 159.090 265.332 165.909 261.395 172.727 265.332"/>
<polygon points="165.909 261.395 159.090 265.332 152.272 261.395 152.272 253.522 159.090 249.586 165.909 253.522"/>
<polygon points="159.090 249.586 152.272 253.522 145.454 249.586 145.454 241.713 152.272 237.776 159.090 241.713"/>
<polygon points="152.272 237.776 145.454 241.713 138.636 237.776 138.636 229.903 145.454 225.967 152.272 229.903"/>
<polygon points="145.454 225.967 138.636 229.903 131.818 225.967 131.818 218.094 138.636 214.157 145.454 218.094"/>
<polygon points="234.090 355.871 227.272 359.807 220.454 355.871 220.454 347.998 227.272 344.061 234.090 347.998"/>
<polygon points="227.272 344.061 220.454 347.998 213.636 344.061 213.636 336.188 220.454 332.252 227.272 336.188"/>
<polygon points="220.454 332.252 213.636 336.188 206.818 332.252 206.818 324.379 213.636 320.442 220.454 324.379"/>
<polygon points="213.636 320.442 206.818 324.379 200.0 320.442 200.0 312.569 206.818 308.633 213.636 312.569"/>
<polygon points="206.818 308.633 200.0 312.569 193.181 308.633 193.181 300.760 200.0 296.823 206.818 300.760"/>
<polygon points="200.0 296.823 193.181 300.760 186.363 296.823 186.363 288.950 193.181 285.014 200.0 288.950"/>
<polygon points="193.181 285.014 186.363 288.950 179.545 285.014 179.545 277.141 186.363 273.205 193.181 277.141"/>
<polygon points="186.363 273.205 179.545 277.141 172.727 273.205 172.727 265.332 179.545 261.395 186.363 265.332"/>
<polygon points="179.545 261.395 172.727 265.332 165.909 261.395 165.909 253.522 172.727 249.586 179.545 253.522"/>
<polygon points="172.727 249.586 165.909 253.522 159.090 249.586 159.090 241.713 165.909 237.776 172.727 241.713"/>
<polygon points="165.909 237.776 159.090 241.713 152.272 237.776 152.272 229.903 159.090 225.967 165.909 229.903"/>
<polygon points="159.090 225.967 152.272 229.903 145.454 225.967 145.454 218.094 152.272 214.157 159.090 218.094"/>
<polygon points="152.272 214.157 145.454 218.094 138.636 214.157 138.636 206.284 145.454 202.348 152.272 206.284"/>
<polygon points="247.727 355.871 240.909 359.807 234.090 355.871 234.090 347.998 240.909 344.061 247.727 347.998"/>
<polygon points="240.909 344.061 234.090 347.998 227.272 344.061 227.272 336.188 234.090 332.252 240.909 336.188"/>
<polygon points="234.090 332.252 227.272 336.188 220.454 332.252 220.454 324.379 227.272 320.442 234.090 324.379"/>
<polygon points="227.272 320.442 220.454 324.379 213.636 320.442 213.636 312.569 220.454 308.633 227.272 312.569"/>
<polygon points="220.454 308.633 213.636 312.569 206.818 308.633 206.818 300.760 213.636 296.823 220.454 300.760"/>
<polygon points="213.636 296.823 206.818 300.760 200.0 296.823 200.0 288.950 206.818 285.014 213.636 288.950"/>
<polygon points="206.818 285.014 200.0 288.950 193.181 285.014 193.181 277.141 200.0 273.205 206.818 277.141"/>
<polygon points="200.0 273.205 193.181 277.141 186.363 273.205 186.363 265.332 193.181 261.395 200.0 265.332"/>
<polygon points="193.181 261.395 186.363 265.332 179.545 261.395 179.545 253.522 186.363 249.586 193.181 253.522"/>
<polygon points="186.363 249.586 179.545 253.522 172.727 249.586 172.727 241.713 179.545 237.776 186.363 241.713"/>
<polygon points="179.545 237.776 172.727 241.713 165.909 237.776 165.909 229.903 172.727 225.967 179.545 229.903"/>
<polygon points="172.727 225.967 165.909 229.903 159.090 225.967 159.090 218.094 165.909 214.157 172.727 218.094"/>
<polygon points="165.909 214.157 159.090 218.094 152.272 214.157 152.272 206.284 159.090 202.348 165.909 206.284"/>
<polygon points="159.090 202.348 152.272 206.284 145.454 202.348 145.454 194.475 152.272 190.539 159.090 194.475"/>
<polygon points="261.363 355.871 254.545 359.807 247.727 355.871 247.727 347.998 254.545 344.061 261.363 347.998"/>
<polygon points="254.545 344.061 247.727 347.998 240.909 344.061 240.909 336.188 247.727 332.252 254.545 336.188"/>
<polygon points="247.727 332.252 240.909 336.188 234.090 332.252 234.090 324.379 240.909 320.442 247.727 324.379"/>
<polygon points="240.909 320.442 234.090 324.379 227.272 320.442 227.272 312.569 234.090 308.633 240.909 312.569"/>
<polygon points="234.090 308.633 227.272 312.569 220.454 308.633 220.454 300.760 227.272 296.823 234.090 300.760"/>
<polygon points="227.272 296.823 220.454 300.760 213.636 296.823 213.636 288.950 220.454 285.014 227.272 288.950"/>
<polygon points="220.454 285.014 213.636 288.950 206.818 285.014 206.818 277.141 213.636 273.205 220.454 277.141"/>
<polygon points="213.636 273.205 206.818 277.141 200.0 273.205 200.0 265.332 206.818 261.395 213.636 265.332"/>
<polygon points="206.818 261.395 200.0 265.332 193.181 261.395 193.181 253.522 200.0 249.586 206.818 253.522"/>
<polygon points="200.0 249.586 193.181 253.522 186.363 249.586 186.363 241.713 193.181 237.776 200.0 241.713"/>
<polygon points="193.181 237.776 186.363 241.713 179.545 237.776 179.545 229.903 186.363 225.967 193.181 229.903"/>
<polygon points="186.363 225.967 179.545 229.903 172.727 225.967 172.727 218.094 179.545 214.157 186.363 218.094"/>
<polygon points="179.545 214.157 172.727 218.094 165.909 214.157 165.909 206.284 172.727 202.348 179.545 206.284"/>
<polygon points="172.727 202.348 165.909 206.284 159.090 202.348 159.090 194.475 165.909 190.539 172.727 194.475"/>
<polygon points="165.909 190.539 159.090 194.475 152.272 190.539 152.272 182.666 159.090 178.729 165.909 182.666"/>
<polygon points="275.0 355.871 268.181 359.807 261.363 355.871 261.363 347.998 268.181 344.061 275.0 347.998"/>
<polygon points="268.181 344.061 261.363 347.998 254.545 344.061 254.545 336.188 261.363 332.252 268.181 336.188"/>
<polygon points="261.363 332.252 254.545 336.188 247.727 332.252 247.727 324.379 254.545 320.442 261.363 324.379"/>
<polygon points="254.545 320.442 247.727 324.379 240.909 320.442 240.909 312.569 247.727 308.633 254.545 312.569"/>
<polygon points="247.727 308.633 240.909 312.569 234.090 308.633 234.090 300.760 240.909 296.823 247.727 300.760"/>
<polygon points="240.909 296.823 234.090 300.760 227.272 296.823 227.272 288.950 234.090 285.014 240.909 288.950"/>
<polygon points="234.090 285.014 227.272 288.950 220.454 285.014 220.454 277.141 227.272 273.205 234.090 277.141"/>
<polygon points="227.272 273.205 220.454 277.141 213.636 273.205 213.636 265.332 220.454 261.395 227.272 265.332"/>
<polygon points="220.454 261.395 213.636 265.332 206.818 261.395 206.818 253.522 213.636 249.586 220.454 253.522"/>
<polygon points="213.636 249.586 206.818 253.522 200.0 249.586 200.0 241.713 206.818 237.776 213.636 241.713"/>
<polygon points="206.818 237.776 200.0 241.713 193.181 237.776 193.181 229.903 200.0 225.967 206.818 229.903"/>
<polygon points="200.0 225.967 193.181 229.903 186.363 225.967 186.363 218.094 193.181 214.157 200.0 218.094"/>
<polygon points="193.181 214.157 186.363 218.094 179.545 214.157 179.545 206.284 186.363 202.348 193.181 206.284"/>
<polygon points="186.363 202.348 179.545 206.284 172.727 202.348 172.727 194.475 179.545 190.539 186.363 194.475"/>
<polygon points="179.545 190.539 172.727 194.475 165.909 190.539 165.909 182.666 172.727 178.729 179.545 182.666"/>
<polygon points="172.727 178.729 165.909 182.666 159.090 178.729 159.090 170.856 165.909 166.920 172.727 170.856"/>
<polygon points="288.636 355.871 281.818 359.807 275.0 355.871 275.0 347.998 281.818 344.061 288.636 347.998"/>
<polygon points="281.818 344.061 275.0 347.998 268.181 344.061 268.181 336.188 275.0 332.252 281.818 336.188"/>
<polygon points="275.0 332.252 268.181 336.188 261.363 332.252 261.363 324.379 268.181 320.442 275.0 324.379"/>
<polygon points="268.181 320.442 261.363 324.379 254.545 320.442 254.545 312.569 261.363 308.633 268.181 312.569"/>
<polygon points="261.363 308.633 254.545 312.569 247.727 308.633 247.727 300.760 254.545 296.823 261.363 300.760"/>
<polygon points="254.545 296.823 247.727 300.760 240.909 296.823 240.909 288.950 247.727 285.014 254.545 288.950"/>
<polygon points="247.727 285.014 240.909 288.950 234.090 285.014 234.090 277.141 240.909 273.205 247.727 277.141"/>
<polygon points="240.909 273.205 234.090 277.141 227.272 273.205 227.272 265.332 234.090 261.395 240.909 265.332"/>
<polygon points="234.090 261.395 227.272 265.332 220.454 261.395 220.454 253.522 227.272 249.586 234.090 253.522"/>
<polygon points="227.272 249.586 220.454 253.522 213.636 249.586 213.636 241.713 220.454 237.776 227.272 241.713"/>
<polygon points="220.454 237.776 213.636 241.713 206.818 237.776 206.818 229.903 213.636 225.967 220.454 229.903"/>
<polygon points="213.636 225.967 206.818 229.903 200.0 225.967 200.0 218.094 206.818 214.157 213.636 218.094"/>
<polygon points="206.818 214.157 200.0 218.094 193.181 214.157 193.181 206.284 200.0 202.348 206.818 206.284"/>
<polygon points="200.0 202.348 193.181 206.284 186.363 202.348 186.363 194.475 193.181 190.539 200.0 194.475"/>
<polygon points="193.181 190.539 186.363 194.475 179.545 190.539 179.545 182.666 186.363 178.729 193.181 182.666"/>
<polygon points="186.363 178.729 179.545 182.666 172.727 178.729 172.727 170.856 179.545 166.920 186.363 170.856"/>
<polygon points="179.545 166.920 172.727 170.856 165.909 166.920 165.909 159.047 172.727 155.110 179.545 159.047"/>
<polygon points="302.272 355.871 295.454 359.807 288.636 355.871 288.636 347.998 295.454 344.061 302.272 347.998"/>
<polygon points="295.454 344.061 288.636 347.998 281.818 344.061 281.818 336.188 288.636 332.252 295.454 336.188"/>
<polygon points="288.636 332.252 281.818 336.188 275.0 332.252 275.0 324.379 281.818 320.442 288.636 324.379"/>
<polygon points="281.818 320.442 275.0 324.379 268.181 320.442 268.181 312.569 275.0 308.633 281.818 312.569"/>
<polygon points="275.0 308.633 268.181 312.569 261.363 308.633 261.363 300.760 268.181 296.823 275.0 300.760"/>
<polygon points="268.181 296.823 261.363 300.760 254.545 296.823 254.545 288.950 261.363 285.014 268.181 288.950"/>
<polygon points="261.363 285.014 254.545 288.950 247.727 285.014 247.727 277.141 254.545 273.205 261.363 277.141"/>
<polygon points="254.545 273.205 247.727 277.141 240.909 273.205 240.909 265.332 247.727 261.395 254.545 265.332"/>
<polygon points="247.727 261.395 240.909 265.332 234.090 261.395 234.090 253.522 240.909 249.586 247.727 253.522"/>
<polygon points="240.909 249.586 234.090 253.522 227.272 249.586 227.272 241.713 234.090 237.776 240.909 241.713"/>
<polygon points="234.090 237.776 227.272 241.713 220.454 237.776 220.454 229.903 227.272 225.967 234.090 229.903"/>
<polygon points="227.272 225.967 220.454 229.903 213.636 225.967 213.636 218.094 220.454 214.157 227.272 218.094"/>
<polygon points="220.454 214.157 213.636 218.094 206.818 214.157 206.818 206.284 213.636 202.348 220.454 206.284"/>
<polygon points="213.636 202.348 206.818 206.284 200.0 202.348 200.0 194.475 206.818 190.539 213.636 194.475"/>
<polygon points="206.818 190.539 200.0 194.475 193.181 190.539 193.181 182.666 200.0 178.729 206.818 182.666"/>
<polygon points="200.0 178.729 193.181 182.666 186.363 178.729 186.363 170.856 193.181 166.920 200.0 170.856"/>
<polygon points="193.181 166.920 186.363 170.856 179.545 166.920 179.545 159.047 186.363 155.110 193.181 159.047"/>
<polygon points="186.363 155.110 179.545 159.047 172.727 155.110 172.727 147.237 179.545 143.301 186.363 147.237"/>
<polygon points="315.909 355.871 309.090 359.807 302.272 355.871 302.272 347.998 309.090 344.061 315.909 347.998"/>
<polygon points="309.090 344.061 302.272 347.998 295.454 344.061 295.454 336.188 302.272 332.252 309.090 336.188"/>
<polygon points="302.272 332.252 295.454 336.188 288.636 332.252 288.636 324.379 295.454 320.442 302.272 324.379"/>
<polygon points="295.454 320.442 288.636 324.379 281.818 320.442 281.818 312.569 288.636 308.633 295.454 312.569"/>
<polygon points="288.636 308.633 281.818 312.569 275.0 308.633 275.0 300.760 281.818 296.823 288.636 300.760"/>
<polygon points="281.818 296.823 275.0 300.760 268.181 296.823 268.181 288.950 275.0 285.014 281.818 288.950"/>
<polygon points="275.0 285.014 268.181 288.950 261.363 285.014 261.363 277.141 268.181 273.205 275.0 277.141"/>
<polygon points="268.181 273.205 261.363 277.141 254.545 273.205 254.545 265.332 261.363 261.395 268.181 265.332"/>
<polygon points="261.363 261.395 254.545 265.332 247.727 261.395 247.727 253.522 254.545 249.586 261.363 253.522"/>
<polygon points="254.545 249.586 247.727 253.522 240.909 249.586 240.909 241.713 247.727 237.776 254.545 241.713"/>
<polygon points="247.727 237.776 240.909 241.713 234.090 237.776 234.090 229.903 240.909 225.967 247.727 229.903"/>
<polygon points="240.909 225.967 234.090 229.903 227.272 225.967 227.272 218.094 234.090 214.157 240.909 218.094"/>
<polygon points="234.090 214.157 227.272 218.094 220.454 214.157 220.454 206.284 227.272 202.348 234.090 206.284"/>
<polygon points="227.272 202.348 220.454 206.284 213.636 202.348 213.636 194.475 220.454 190.539 227.272 194.475"/>
<polygon points="220.454 190.539 213.636 194.475 206.818 190.539 206.818 182.666 213.636 178.729 220.454 182.666"/>
<polygon points="213.636 178.729 206.818 182.666 200.0 178.729 200.0 170.856 206.818 166.920 213.636 170.856"/>
<polygon points="206.818 166.920 200.0 170.856 193.181 166.920 193.181 159.047 200.0 155.110 206.818 159.047"/>
<polygon points="200.0 155.110 193.181 159.047 186.363 155.110 186.363 147.237 193.181 143.301 200.0 147.237"/>
<polygon points="193.181 143.301 186.363 147.237 179.545 143.301 179.545 135.428 186.363 131.491 193.181 135.428"/>
<polygon points="329.545 355.871 322.727 359.807 315.909 355.871 315.909 347.998 322.727 344.061 329.545 347.998"/>
<polygon points="322.727 344.061 315.909 347.998 309.090 344.061 309.090 336.188 315.909 332.252 322.727 336.188"/>
<polygon points="315.909 332.252 309.090 336.188 302.272 332.252 302.272 324.379 309.090 320.442 315.909 324.379"/>
<polygon points="309.090 320.442 302.272 324.379 295.454 320.442 295.454 312.569 302.272 308.633 309.090 312.569"/>
<polygon points="302.272 308.633 295.454 312.569 288.636 308.633 288.636 300.760 295.454 296.823 302.272 300.760"/>
<polygon points="295.454 296.823 288.636 300.760 281.818 296.823 281.818 288.950 288.636 285.014 295.454 288.950"/>
<polygon points="288.636 285.014 281.818 288.950 275.0 285.014 275.0 277.141 281.818 273.205 288.636 277.141"/>
<polygon points="281.818 273.205 275.0 277.141 268.181 273.205 268.181 265.332 275.0 261.395 281.818 265.332"/>
<polygon points="275.0 261.395 268.181 265.332 261.363 261.395 261.363 253.522 268.181 249.586 275.0 253.522"/>
<polygon points="268.181 249.586 261.363 253.522 254.545 249.586 254.545 241.713 261.363 237.776 268.181 241.713"/>
<polygon points="261.363 237.776 254.545 241.713 247.727 237.776 247.727 229.903 254.545 225.967 261.363 229.903"/>
<polygon points="254.545 225.967 247.727 229.903 240.909 225.967 240.909 218.094 247.727 214.157 254.545 218.094"/>
<polygon points="247.727 214.157 240.909 218.094 234.090 214.157 234.090 206.284 240.909 202.348 247.727 206.284"/>
<polygon points="240.909 202.348 234.090 206.284 227.272 202.348 227.272 194.475 234.090 190.539 240.909 194.475"/>
<polygon points="234.090 190.539 227.272 194.475 220.454 190.539 220.454 182.666 227.272 178.729 234.090 182.666"/>
<polygon points="227.272 178.729 220.454 182.666 213.636 178.729 213.636 170.856 220.454 166.920 227.272 170.856"/>
<polygon points="220.454 166.920 213.636 170.856 206.818 166.920 206.818 159.047 213.636 155.110 220.454 159.047"/>
<polygon points="213.636 155.110 206.818 159.047 200.0 155.110 200.0 147.237 206.818 143.301 213.636 147.237"/>
<polygon points="206.818 143.301 200.0 147.237 193.181 143.301 193.181 135.428 200.0 131.491 206.818 135.428"/>
<polygon points="200.0 131.491 193.181 135.428 186.363 131.491 186.363 123.618 193.181 119.682 200.0 123.618"/>
<polygon points="343.181 355.871 336.363 359.807 329.545 355.871 329.545 347.998 336.363 344.061 343.181 347.998"/>
<polygon points="336.363 344.061 329.545 347.998 322.727 344.061 322.727 336.188 329.545 332.252 336.363 336.188"/>
<polygon points="329.545 332.252 322.727 336.188 315.909 332.252 315.909 324.379 322.727 320.442 329.545 324.379"/>
<polygon points="322.727 320.442 315.909 324.379 309.090 320.442 309.090 312.569 315.909 308.633 322.727 312.569"/>
<polygon points="315.909 308.633 309.090 312.569 302.272 308.633 302.272 300.760 309.090 296.823 315.909 300.760"/>
<polygon points="309.090 296.823 302.272 300.760 295.454 296.823 295.454 288.950 302.272 285.014 309.090 288.950"/>
<polygon points="302.272 285.014 295.454 288.950 288.636 285.014 288.636 277.141 295.454 273.205 302.272 277.141"/>
<polygon points="295.454 273.205 288.636 277.141 281.818 273.205 281.818 265.332 288.636 261.395 295.454 265.332"/>
<polygon points="288.636 261.395 281.818 265.332 275.0 261.395 275.0 253.522 281.818 249.586 288.636 253.522"/>
<polygon points="281.818 249.586 275.0 253.522 268.181 249.586 268.181 241.713 275.0 237.776 281.818 241.713"/>
<polygon points="275.0 237.776 268.181 241.713 261.363 237.776 261.363 229.903 268.181 225.967 275.0 229.903"/>
<polygon points="268.181 225.967 261.363 229.903 254.545 225.967 254.545 218.094 261.363 214.157 268.181 218.094"/>
<polygon points="261.363 214.157 254.545 218.094 247.727 214.157 247.727 206.284 254.545 202.348 261.363 206.284"/>
<polygon points="254.545 202.348 247.727 206.284 240.909 202.348 240.909 194.475 247.727 190.539 254.545 194.475"/>
<polygon points="247.727 190.539 240.909 194.475 234.090 190.539 234.090 182.666 240.909 178.729 247.727 182.666"/>
<polygon points="240.909 178.729 234.090 182.666 227.272 178.729 227.272 170.856 234.090 166.920 240.909 170.856"/>
<polygon points="234.090 166.920 227.272 170.856 220.454 166.920 220.454 159.047 227.272 155.110 234.090 159.047"/>
<polygon points="227.272 155.110 220.454 159.047 213.636 155.110 213.636 147.237 220.454 143.301 227.272 147.237"/>
<polygon points="220.454 143.301 213.636 147.237 206.818 143.301 206.818 135.428 213.636 131.491 220.454 135.428"/>
<polygon points="213.636 131.491 206.818 135.428 200.0 131.491 200.0 123.618 206.818 119.682 213.636 123.618"/>
<polygon points="206.818 119.682 200.0 123.618 193.181 119.682 193.181 111.809 200.0 107.872 206.818 111.809"/>
</svg>
