<svg xmlns="http://www.w3.org/2000/svg" width="80" height="80"><rect stroke="#000000" stroke-width="0.3" x="0.0" y="0.0" width="10.0" height="10.0" fill="none"/><rect stroke="#000000" stroke-width="0.3" x="0.0" y="10.0" width="10.0" height="10.0" fill="none"/><rect stroke="#000000" stroke-width="0.3" x="0.7692307692307693" y="10.769230769230768" width="8.461538461538462" height="8.461538461538462" fill="none"/><rect stroke="#000000" stroke-width="0.3" x="1.5384615384615385" y="11.538461538461537" width="6.923076923076923" height="6.923076923076923" fill="none"/><rect stroke="#000000" stroke-width="0.3" x="2.307692307692308" y="12.307692307692308" width="5.384615384615384" height="5.384615384615384" fill="none"/><rect stroke="#000000" stroke-width="0.3" x="3.076923076923077" y="13.076923076923077" width="3.846153846153846" height="3.846153846153846" fill="none"/><rect stroke="#000000" stroke-width="0.3" x="3.8461538461538463" y="13.846153846153847" width="2.3076923076923075" height="2.3076923076923075" fill="none"/><rect stroke="#000000" stroke-width="0.3" x="4.615384615384616" y="14.615384615384617" width="0.7692307692307687" height="0.7692307692307687" fill="none"/><rect stroke="#000000" stroke-width="0.3" x="0.0" y="20.0" width="10.0" height="10.0" fill="none"/><rect stroke="#000000" stroke-width="0.3" x="0.0" y="30.0" width="10.0" height="10.0" fill="none"/><rect stroke="#000000" stroke-width="0.3" x="0.7692307692307693" y="30.76923076923077" width="8.461538461538462" height="8.461538461538462" fill="none"/><rect stroke="#000000" stroke-width="0.3" x="1.5384615384615385" y="31.538461538461537" width="6.923076923076923" height="6.923076923076923" fill="none"/><rect stroke="#000000" stroke-width="0.3" x="2.307692307692308" y="32.30769230769231" width="5.384615384615384" height="5.384615384615384" fill="none"/><rect stroke="#000000" stroke-width="0.3" x="3.076923076923077" y="33.07692307692307" width="3.846153846153846" height="3.846153846153846" fill="none"/><rect stroke="#000000" stroke-width="0.3" x="3.8461538461538463" y="33.84615384615385" width="2.3076923076923075" height="2.3076923076923075" fill="none"/><rect stroke="#000000" stroke-width="0.3" x="4.615384615384616" y="34.61538461538461" width="0.7692307692307687" height="0.7692307692307687" fill="none"/><rect stroke="#000000" stroke-width="0.3" x="0.0" y="40.0" width="10.0" height="10.0" fill="none"/><rect stroke="#000000" stroke-width="0.3" x="0.0" y="50.0" width="10.0" height="10.0" fill="none"/><rect stroke="#000000" stroke-width="0.3" x="0.7692307692307693" y="50.76923076923077" width="8.461538461538462" height="8.461538461538462" fill="none"/><rect stroke="#000000" stroke-width="0.3" x="1.5384615384615385" y="51.53846153846154" width="6.923076923076923" height="6.923076923076923" fill="none"/><rect stroke="#000000" stroke-width="0.3" x="2.307692307692308" y="52.30769230769231" width="5.384615384615384" height="5.384615384615384" fill="none"/><rect stroke="#000000" stroke-width="0.3" x="3.076923076923077" y="53.07692307692307" width="3.846153846153846" height="3.846153846153846" fill="none"/><rect stroke="#000000" stroke-width="0.3" x="3.8461538461538463" y="53.846153846153854" width="2.3076923076923075" height="2.3076923076923075" fill="none"/><rect stroke="#000000" stroke-width="0.3" x="4.615384615384616" y="54.61538461538461" width="0.7692307692307687" height="0.7692307692307687" fill="none"/><rect stroke="#000000" stroke-width="0.3" x="0.0" y="60.0" width="10.0" height="10.0" fill="none"/><rect stroke="#000000" stroke-width="0.3" x="0.0" y="70.0" width="10.0" height="10.0" fill="none"/><rect stroke="#000000" stroke-width="0.3" x="0.7692307692307693" y="70.76923076923077" width="8.461538461538462" height="8.461538461538462" fill="none"/><rect stroke="#000000" stroke-width="0.3" x="1.5384615384615385" y="71.53846153846155" width="6.923076923076923" height="6.923076923076923" fill="none"/><rect stroke="#000000" stroke-width="0.3" x="2.307692307692308" y="72.3076923076923" width="5.384615384615384" height="5.384615384615384" fill="none"/><rect stroke="#000000" stroke-width="0.3" x="3.076923076923077" y="73.07692307692308" width="3.846153846153846" height="3.846153846153846" fill="none"/><rect stroke="#000000" stroke-width="0.3" x="3.8461538461538463" y="73.84615384615385" width="2.3076923076923075" height="2.3076923076923075" fill="none"/><rect stroke="#000000" stroke-width="0.3" x="4.615384615384616" y="74.61538461538461" width="0.7692307692307687" height="0.7692307692307687" fill="none"/><rect stroke="#000000" stroke-width="0.3" x="10.0" y="0.0" width="10.0" height="10.0" fill="none"/><rect stroke="#000000" stroke-width="0.3" x="10.769230769230768" y="0.7692307692307693" width="8.461538461538462" height="8.461538461538462" fill="none"/><rect stroke="#000000" stroke-width="0.3" x="11.538461538461537" y="1.5384615384615385" width="6.923076923076923" height="6.923076923076923" fill="none"/><rect stroke="#000000" stroke-width="0.3" x="12.307692307692308" y="2.307692307692308" width="5.384615384615384" height="5.384615384615384" fill="none"/><rect stroke="#000000" stroke-width="0.3" x="13.076923076923077" y="3.076923076923077" width="3.846153846153846" height="3.846153846153846" fill="none"/><rect stroke="#000000" stroke-width="0.3" x="13.846153846153847" y="3.8461538461538463" width="2.3076923076923075" height="2.3076923076923075" fill="none"/><rect stroke="#000000" stroke-width="0.3" x="14.615384615384617" y="4.615384615384616" width="0.7692307692307687" height="0.7692307692307687" fill="none"/><rect stroke="#000000" stroke-width="0.3" x="10.0" y="10.0" width="10.0" height="10.0" fill="none"/><rect stroke="#000000" stroke-width="0.3" x="10.0" y="20.0" width="10.0" height="10.0" fill="none"/><rect stroke="#000000" stroke-width="0.3" x="10.769230769230768" y="20.76923076923077" width="8.461538461538462" height="8.461538461538462" fill="none"/><rect stroke="#000000" stroke-width="0.3" x="11.538461538461537" y="21.538461538461537" width="6.923076923076923" height="6.923076923076923" fill="none"/><rect stroke="#000000" stroke-width="0.3" x="12.307692307692308" y="22.307692307692307" width="5.384615384615384" height="5.384615384615384" fill="none"/><rect stroke="#000000" stroke-width="0.3" x="13.076923076923077" y="23.076923076923073" width="3.846153846153846" height="3.846153846153846" fill="none"/><rect stroke="#000000" stroke-width="0.3" x="13.846153846153847" y="23.846153846153847" width="2.3076923076923075" height="2.3076923076923075" fill="none"/><rect stroke="#000000" stroke-width="0.3" x="14.615384615384617" y="24.615384615384617" width="0.7692307692307687" height="0.7692307692307687" fill="none"/><rect stroke="#000000" stroke-width="0.3" x="10.0" y="30.0" width="10.0" height="10.0" fill="none"/><rect stroke="#000000" stroke-width="0.3" x="10.0" y="40.0" width="10.0" height="10.0" fill="none"/><rect stroke="#000000" stroke-width="0.3" x="10.769230769230768" y="40.76923076923077" width="8.461538461538462" height="8.461538461538462" fill="none"/><rect stroke="#000000" stroke-width="0.3" x="11.538461538461537" y="41.53846153846154" width="6.923076923076923" height="6.923076923076923" fill="none"/><rect stroke="#000000" stroke-width="0.3" x="12.307692307692308" y="42.30769230769231" width="5.384615384615384" height="5.384615384615384" fill="none"/><rect stroke="#000000" stroke-width="0.3" x="13.076923076923077" y="43.07692307692307" width="3.846153846153846" height="3.846153846153846" fill="none"/><rect stroke="#000000" stroke-width="0.3" x="13.846153846153847" y="43.846153846153854" width="2.3076923076923075" height="2.3076923076923075" fill="none"/><rect stroke="#000000" stroke-width="0.3" x="14.615384615384617" y="44.61538461538461" width="0.7692307692307687" height="0.7692307692307687" fill="none"/><rect stroke="#000000" stroke-width="0.3" x="10.0" y="50.0" width="10.0" height="10.0" fill="none"/><rect stroke="#000000" stroke-width="0.3" x="10.0" y="60.0" width="10.0" height="10.0" fill="none"/><rect stroke="#000000" stroke-width="0.3" x="10.769230769230768" y="60.76923076923077" width="8.461538461538462" height="8.461538461538462" fill="none"/><rect stroke="#000000" stroke-width="0.3" x="11.538461538461537" y="61.53846153846154" width="6.923076923076923" height="6.923076923076923" fill="none"/><rect stroke="#000000" stroke-width="0.3" x="12.307692307692308" y="62.30769230769231" width="5.384615384615384" height="5.384615384615384" fill="none"/><rect stroke="#000000" stroke-width="0.3" x="13.076923076923077" y="63.07692307692307" width="3.846153846153846" height="3.846153846153846" fill="none"/><rect stroke="#000000" stroke-width="0.3" x="13.846153846153847" y="63.846153846153854" width="2.3076923076923075" height="2.3076923076923075" fill="none"/><rect stroke="#000000" stroke-width="0.3" x="14.615384615384617" y="64.61538461538461" width="0.7692307692307687" height="0.7692307692307687" fill="none"/><rect stroke="#000000" stroke-width="0.3" x="10.0" y="70.0" width="10.0" height="10.0" fill="none"/><rect stroke="#000000" stroke-width="0.3" x="20.0" y="0.0" width="10.0" height="10.0" fill="none"/><rect stroke="#000000" stroke-width="0.3" x="20.0" y="10.0" width="10.0" height="10.0" fill="none"/><rect stroke="#000000" stroke-width="0.3" x="20.76923076923077" y="10.769230769230768" width="8.461538461538462" height="8.461538461538462" fill="none"/><rect stroke="#000000" stroke-width="0.3" x="21.538461538461537" y="11.538461538461537" width="6.923076923076923" height="6.923076923076923" fill="none"/><rect stroke="#000000" stroke-width="0.3" x="22.307692307692307" y="12.307692307692308" width="5.384615384615384" height="5.384615384615384" fill="none"/><rect stroke="#000000" stroke-width="0.3" x="23.076923076923073" y="13.076923076923077" width="3.846153846153846" height="3.846153846153846" fill="none"/><rect stroke="#000000" stroke-width="0.3" x="23.846153846153847" y="13.846153846153847" width="2.3076923076923075" height="2.3076923076923075" fill="none"/><rect stroke="#000000" stroke-width="0.3" x="24.615384615384617" y="14.615384615384617" width="0.7692307692307687" height="0.7692307692307687" fill="none"/><rect stroke="#000000" stroke-width="0.3" x="20.0" y="20.0" width="10.0" height="10.0" fill="none"/><rect stroke="#000000" stroke-width="0.3" x="20.0" y="30.0" width="10.0" height="10.0" fill="none"/><rect stroke="#000000" stroke-width="0.3" x="20.76923076923077" y="30.76923076923077" width="8.461538461538462" height="8.461538461538462" fill="none"/><rect stroke="#000000" stroke-width="0.3" x="21.538461538461537" y="31.538461538461537" width="6.923076923076923" height="6.923076923076923" fill="none"/><rect stroke="#000000" stroke-width="0.3" x="22.307692307692307" y="32.30769230769231" width="5.384615384615384" height="5.384615384615384" fill="none"/><rect stroke="#000000" stroke-width="0.3" x="23.076923076923073" y="33.07692307692307" width="3.846153846153846" height="3.846153846153846" fill="none"/><rect stroke="#000000" stroke-width="0.3" x="23.846153846153847" y="33.84615384615385" width="2.3076923076923075" height="2.3076923076923075" fill="none"/><rect stroke="#000000" stroke-width="0.3" x="24.615384615384617" y="34.61538461538461" width="0.7692307692307687" height="0.7692307692307687" fill="none"/><rect stroke="#000000" stroke-width="0.3" x="20.0" y="40.0" width="10.0" height="10.0" fill="none"/><rect stroke="#000000" stroke-width="0.3" x="20.0" y="50.0" width="10.0" height="10.0" fill="none"/><rect stroke="#000000" stroke-width="0.3" x="20.76923076923077" y="50.76923076923077" width="8.461538461538462" height="8.461538461538462" fill="none"/><rect stroke="#000000" stroke-width="0.3" x="21.538461538461537" y="51.53846153846154" width="6.923076923076923" height="6.923076923076923" fill="none"/><rect stroke="#000000" stroke-width="0.3" x="22.307692307692307" y="52.30769230769231" width="5.384615384615384" height="5.384615384615384" fill="none"/><rect stroke="#000000" stroke-width="0.3" x="23.076923076923073" y="53.07692307692307" width="3.846153846153846" height="3.846153846153846" fill="none"/><rect stroke="#000000" stroke-width="0.3" x="23.846153846153847" y="53.846153846153854" width="2.3076923076923075" height="2.3076923076923075" fill="none"/><rect stroke="#000000" stroke-width="0.3" x="24.615384615384617" y="54.61538461538461" width="0.7692307692307687" height="0.7692307692307687" fill="none"/><rect stroke="#000000" stroke-width="0.3" x="20.0" y="60.0" width="10.0" height="10.0" fill="none"/><rect stroke="#000000" stroke-width="0.3" x="20.0" y="70.0" width="10.0" height="10.0" fill="none"/><rect stroke="#000000" stroke-width="0.3" x="20.76923076923077" y="70.76923076923077" width="8.461538461538462" height="8.461538461538462" fill="none"/><rect stroke="#000000" stroke-width="0.3" x="21.538461538461537" y="71.53846153846155" width="6.923076923076923" height="6.923076923076923" fill="none"/><rect stroke="#000000" stroke-width="0.3" x="22.307692307692307" y="72.3076923076923" width="5.384615384615384" height="5.384615384615384" fill="none"/><rect stroke="#000000" stroke-width="0.3" x="23.076923076923073" y="73.07692307692308" width="3.846153846153846" height="3.846153846153846" fill="none"/><rect stroke="#000000" stroke-width="0.3" x="23.846153846153847" y="73.84615384615385" width="2.3076923076923075" height="2.3076923076923075" fill="none"/><rect stroke="#000000" stroke-width="0.3" x="24.615384615384617" y="74.61538461538461" width="0.7692307692307687" height="0.7692307692307687" fill="none"/><rect stroke="#000000" stroke-width="0.3" x="30.0" y="0.0" width="10.0" height="10.0" fill="none"/><rect stroke="#000000" stroke-width="0.3" x="30.76923076923077" y="0.7692307692307693" width="8.461538461538462" height="8.461538461538462" fill="none"/><rect stroke="#000000" stroke-width="0.3" x="31.538461538461537" y="1.5384615384615385" width="6.923076923076923" height="6.923076923076923" fill="none"/><rect stroke="#000000" stroke-width="0.3" x="32.30769230769231" y="2.307692307692308" width="5.384615384615384" height="5.384615384615384" fill="none"/><rect stroke="#000000" stroke-width="0.3" x="33.07692307692307" y="3.076923076923077" width="3.846153846153846" height="3.846153846153846" fill="none"/><rect stroke="#000000" stroke-width="0.3" x="33.84615384615385" y="3.8461538461538463" width="2.3076923076923075" height="2.3076923076923075" fill="none"/><rect stroke="#000000" stroke-width="0.3" x="34.61538461538461" y="4.615384615384616" width="0.7692307692307687" height="0.7692307692307687" fill="none"/><rect stroke="#000000" stroke-width="0.3" x="30.0" y="10.0" width="10.0" height="10.0" fill="none"/><rect stroke="#000000" stroke-width="0.3" x="30.0" y="20.0" width="10.0" height="10.0" fill="none"/><rect stroke="#000000" stroke-width="0.3" x="30.76923076923077" y="20.76923076923077" width="8.461538461538462" height="8.461538461538462" fill="none"/><rect stroke="#000000" stroke-width="0.3" x="31.538461538461537" y="21.538461538461537" width="6.923076923076923" height="6.923076923076923" fill="none"/><rect stroke="#000000" stroke-width="0.3" x="32.30769230769231" y="22.307692307692307" width="5.384615384615384" height="5.384615384615384" fill="none"/><rect stroke="#000000" stroke-width="0.3" x="33.07692307692307" y="23.076923076923073" width="3.846153846153846" height="3.846153846153846" fill="none"/><rect stroke="#000000" stroke-width="0.3" x="33.84615384615385" y="23.846153846153847" width="2.3076923076923075" height="2.3076923076923075" fill="none"/><rect stroke="#000000" stroke-width="0.3" x="34.61538461538461" y="24.615384615384617" width="0.7692307692307687" height="0.7692307692307687" fill="none"/><rect stroke="#000000" stroke-width="0.3" x="30.0" y="30.0" width="10.0" height="10.0" fill="none"/><rect stroke="#000000" stroke-width="0.3" x="30.0" y="40.0" width="10.0" height="10.0" fill="none"/><rect stroke="#000000" stroke-width="0.3" x="30.76923076923077" y="40.76923076923077" width="8.461538461538462" height="8.461538461538462" fill="none"/><rect stroke="#000000" stroke-width="0.3" x="31.538461538461537" y="41.53846153846154" width="6.923076923076923" height="6.923076923076923" fill="none"/><rect stroke="#000000" stroke-width="0.3" x="32.30769230769231" y="42.30769230769231" width="5.384615384615384" height="5.384615384615384" fill="none"/><rect stroke="#000000" stroke-width="0.3" x="33.07692307692307" y="43.07692307692307" width="3.846153846153846" height="3.846153846153846" fill="none"/><rect stroke="#000000" stroke-width="0.3" x="33.84615384615385" y="43.846153846153854" width="2.3076923076923075" height="2.3076923076923075" fill="none"/><rect stroke="#000000" stroke-width="0.3" x="34.61538461538461" y="44.61538461538461" width="0.7692307692307687" height="0.7692307692307687" fill="none"/><rect stroke="#000000" stroke-width="0.3" x="30.0" y="50.0" width="10.0" height="10.0" fill="none"/><rect stroke="#000000" stroke-width="0.3" x="30.0" y="60.0" width="10.0" height="10.0" fill="none"/><rect stroke="#000000" stroke-width="0.3" x="30.76923076923077" y="60.76923076923077" width="8.461538461538462" height="8.461538461538462" fill="none"/><rect stroke="#000000" stroke-width="0.3" x="31.538461538461537" y="61.53846153846154" width="6.923076923076923" height="6.923076923076923" fill="none"/><rect stroke="#000000" stroke-width="0.3" x="32.30769230769231" y="62.30769230769231" width="5.384615384615384" height="5.384615384615384" fill="none"/><rect stroke="#000000" stroke-width="0.3" x="33.07692307692307" y="63.07692307692307" width="3.846153846153846" height="3.846153846153846" fill="none"/><rect stroke="#000000" stroke-width="0.3" x="33.84615384615385" y="63.846153846153854" width="2.3076923076923075" height="2.3076923076923075" fill="none"/><rect stroke="#000000" stroke-width="0.3" x="34.61538461538461" y="64.61538461538461" width="0.7692307692307687" height="0.7692307692307687" fill="none"/><rect stroke="#000000" stroke-width="0.3" x="30.0" y="70.0" width="10.0" height="10.0" fill="none"/><rect stroke="#000000" stroke-width="0.3" x="40.0" y="0.0" width="10.0" height="10.0" fill="none"/><rect stroke="#000000" stroke-width="0.3" x="40.0" y="10.0" width="10.0" height="10.0" fill="none"/><rect stroke="#000000" stroke-width="0.3" x="40.76923076923077" y="10.769230769230768" width="8.461538461538462" height="8.461538461538462" fill="none"/><rect stroke="#000000" stroke-width="0.3" x="41.53846153846154" y="11.538461538461537" width="6.923076923076923" height="6.923076923076923" fill="none"/><rect stroke="#000000" stroke-width="0.3" x="42.30769230769231" y="12.307692307692308" width="5.384615384615384" height="5.384615384615384" fill="none"/><rect stroke="#000000" stroke-width="0.3" x="43.07692307692307" y="13.076923076923077" width="3.846153846153846" height="3.846153846153846" fill="none"/><rect stroke="#000000" stroke-width="0.3" x="43.846153846153854" y="13.846153846153847" width="2.3076923076923075" height="2.3076923076923075" fill="none"/><rect stroke="#000000" stroke-width="0.3" x="44.61538461538461" y="14.615384615384617" width="0.7692307692307687" height="0.7692307692307687" fill="none"/><rect stroke="#000000" stroke-width="0.3" x="40.0" y="20.0" width="10.0" height="10.0" fill="none"/><rect stroke="#000000" stroke-width="0.3" x="40.0" y="30.0" width="10.0" height="10.0" fill="none"/><rect stroke="#000000" stroke-width="0.3" x="40.76923076923077" y="30.76923076923077" width="8.461538461538462" height="8.461538461538462" fill="none"/><rect stroke="#000000" stroke-width="0.3" x="41.53846153846154" y="31.538461538461537" width="6.923076923076923" height="6.923076923076923" fill="none"/><rect stroke="#000000" stroke-width="0.3" x="42.30769230769231" y="32.30769230769231" width="5.384615384615384" height="5.384615384615384" fill="none"/><rect stroke="#000000" stroke-width="0.3" x="43.07692307692307" y="33.07692307692307" width="3.846153846153846" height="3.846153846153846" fill="none"/><rect stroke="#000000" stroke-width="0.3" x="43.846153846153854" y="33.84615384615385" width="2.3076923076923075" height="2.3076923076923075" fill="none"/><rect stroke="#000000" stroke-width="0.3" x="44.61538461538461" y="34.61538461538461" width="0.7692307692307687" height="0.7692307692307687" fill="none"/><rect stroke="#000000" stroke-width="0.3" x="40.0" y="40.0" width="10.0" height="10.0" fill="none"/><rect stroke="#000000" stroke-width="0.3" x="40.0" y="50.0" width="10.0" height="10.0" fill="none"/><rect stroke="#000000" stroke-width="0.3" x="40.76923076923077" y="50.76923076923077" width="8.461538461538462" height="8.461538461538462" fill="none"/><rect stroke="#000000" stroke-width="0.3" x="41.53846153846154" y="51.53846153846154" width="6.923076923076923" height="6.923076923076923" fill="none"/><rect stroke="#000000" stroke-width="0.3" x="42.30769230769231" y="52.30769230769231" width="5.384615384615384" height="5.384615384615384" fill="none"/><rect stroke="#000000" stroke-width="0.3" x="43.07692307692307" y="53.07692307692307" width="3.846153846153846" height="3.846153846153846" fill="none"/><rect stroke="#000000" stroke-width="0.3" x="43.846153846153854" y="53.846153846153854" width="2.3076923076923075" height="2.3076923076923075" fill="none"/><rect stroke="#000000" stroke-width="0.3" x="44.61538461538461" y="54.61538461538461" width="0.7692307692307687" height="0.7692307692307687" fill="none"/><rect stroke="#000000" stroke-width="0.3" x="40.0" y="60.0" width="10.0" height="10.0" fill="none"/><rect stroke="#000000" stroke-width="0.3" x="40.0" y="70.0" width="10.0" height="10.0" fill="none"/><rect stroke="#000000" stroke-width="0.3" x="40.76923076923077" y="70.76923076923077" width="8.461538461538462" height="8.461538461538462" fill="none"/><rect stroke="#000000" stroke-width="0.3" x="41.53846153846154" y="71.53846153846155" width="6.923076923076923" height="6.923076923076923" fill="none"/><rect stroke="#000000" stroke-width="0.3" x="42.30769230769231" y="72.3076923076923" width="5.384615384615384" height="5.384615384615384" fill="none"/><rect stroke="#000000" stroke-width="0.3" x="43.07692307692307" y="73.07692307692308" width="3.846153846153846" height="3.846153846153846" fill="none"/><rect stroke="#000000" stroke-width="0.3" x="43.846153846153854" y="73.84615384615385" width="2.3076923076923075" height="2.3076923076923075" fill="none"/><rect stroke="#000000" stroke-width="0.3" x="44.61538461538461" y="74.61538461538461" width="0.7692307692307687" height="0.7692307692307687" fill="none"/><rect stroke="#000000" stroke-width="0.3" x="50.0" y="0.0" width="10.0" height="10.0" fill="none"/><rect stroke="#000000" stroke-width="0.3" x="50.76923076923077" y="0.7692307692307693" width="8.461538461538462" height="8.461538461538462" fill="none"/><rect stroke="#000000" stroke-width="0.3" x="51.53846153846154" y="1.5384615384615385" width="6.923076923076923" height="6.923076923076923" fill="none"/><rect stroke="#000000" stroke-width="0.3" x="52.30769230769231" y="2.307692307692308" width="5.384615384615384" height="5.384615384615384" fill="none"/><rect stroke="#000000" stroke-width="0.3" x="53.07692307692307" y="3.076923076923077" width="3.846153846153846" height="3.846153846153846" fill="none"/><rect stroke="#000000" stroke-width="0.3" x="53.846153846153854" y="3.8461538461538463" width="2.3076923076923075" height="2.3076923076923075" fill="none"/><rect stroke="#000000" stroke-width="0.3" x="54.61538461538461" y="4.615384615384616" width="0.7692307692307687" height="0.7692307692307687" fill="none"/><rect stroke="#000000" stroke-width="0.3" x="50.0" y="10.0" width="10.0" height="10.0" fill="none"/><rect stroke="#000000" stroke-width="0.3" x="50.0" y="20.0" width="10.0" height="10.0" fill="none"/><rect stroke="#000000" stroke-width="0.3" x="50.76923076923077" y="20.76923076923077" width="8.461538461538462" height="8.461538461538462" fill="none"/><rect stroke="#000000" stroke-width="0.3" x="51.53846153846154" y="21.538461538461537" width="6.923076923076923" height="6.923076923076923" fill="none"/><rect stroke="#000000" stroke-width="0.3" x="52.30769230769231" y="22.307692307692307" width="5.384615384615384" height="5.384615384615384" fill="none"/><rect stroke="#000000" stroke-width="0.3" x="53.07692307692307" y="23.076923076923073" width="3.846153846153846" height="3.846153846153846" fill="none"/><rect stroke="#000000" stroke-width="0.3" x="53.846153846153854" y="23.846153846153847" width="2.3076923076923075" height="2.3076923076923075" fill="none"/><rect stroke="#000000" stroke-width="0.3" x="54.61538461538461" y="24.615384615384617" width="0.7692307692307687" height="0.7692307692307687" fill="none"/><rect stroke="#000000" stroke-width="0.3" x="50.0" y="30.0" width="10.0" height="10.0" fill="none"/><rect stroke="#000000" stroke-width="0.3" x="50.0" y="40.0" width="10.0" height="10.0" fill="none"/><rect stroke="#000000" stroke-width="0.3" x="50.76923076923077" y="40.76923076923077" width="8.461538461538462" height="8.461538461538462" fill="none"/><rect stroke="#000000" stroke-width="0.3" x="51.53846153846154" y="41.53846153846154" width="6.923076923076923" height="6.923076923076923" fill="none"/><rect stroke="#000000" stroke-width="0.3" x="52.30769230769231" y="42.30769230769231" width="5.384615384615384" height="5.384615384615384" fill="none"/><rect stroke="#000000" stroke-width="0.3" x="53.07692307692307" y="43.07692307692307" width="3.846153846153846" height="3.846153846153846" fill="none"/><rect stroke="#000000" stroke-width="0.3" x="53.846153846153854" y="43.846153846153854" width="2.3076923076923075" height="2.3076923076923075" fill="none"/><rect stroke="#000000" stroke-width="0.3" x="54.61538461538461" y="44.61538461538461" width="0.7692307692307687" height="0.7692307692307687" fill="none"/><rect stroke="#000000" stroke-width="0.3" x="50.0" y="50.0" width="10.0" height="10.0" fill="none"/><rect stroke="#000000" stroke-width="0.3" x="50.0" y="60.0" width="10.0" height="10.0" fill="none"/><rect stroke="#000000" stroke-width="0.3" x="50.76923076923077" y="60.76923076923077" width="8.461538461538462" height="8.461538461538462" fill="none"/><rect stroke="#000000" stroke-width="0.3" x="51.53846153846154" y="61.53846153846154" width="6.923076923076923" height="6.923076923076923" fill="none"/><rect stroke="#000000" stroke-width="0.3" x="52.30769230769231" y="62.30769230769231" width="5.384615384615384" height="5.384615384615384" fill="none"/><rect stroke="#000000" stroke-width="0.3" x="53.07692307692307" y="63.07692307692307" width="3.846153846153846" height="3.846153846153846" fill="none"/><rect stroke="#000000" stroke-width="0.3" x="53.846153846153854" y="63.846153846153854" width="2.3076923076923075" height="2.3076923076923075" fill="none"/><rect stroke="#000000" stroke-width="0.3" x="54.61538461538461" y="64.61538461538461" width="0.7692307692307687" height="0.7692307692307687" fill="none"/><rect stroke="#000000" stroke-width="0.3" x="50.0" y="70.0" width="10.0" height="10.0" fill="none"/><rect stroke="#000000" stroke-width="0.3" x="60.0" y="0.0" width="10.0" height="10.0" fill="none"/><rect stroke="#000000" stroke-width="0.3" x="60.0" y="10.0" width="10.0" height="10.0" fill="none"/><rect stroke="#000000" stroke-width="0.3" x="60.76923076923077" y="10.769230769230768" width="8.461538461538462" height="8.461538461538462" fill="none"/><rect stroke="#000000" stroke-width="0.3" x="61.53846153846154" y="11.538461538461537" width="6.923076923076923" height="6.923076923076923" fill="none"/><rect stroke="#000000" stroke-width="0.3" x="62.30769230769231" y="12.307692307692308" width="5.384615384615384" height="5.384615384615384" fill="none"/><rect stroke="#000000" stroke-width="0.3" x="63.07692307692307" y="13.076923076923077" width="3.846153846153846" height="3.846153846153846" fill="none"/><rect stroke="#000000" stroke-width="0.3" x="63.846153846153854" y="13.846153846153847" width="2.3076923076923075" height="2.3076923076923075" fill="none"/><rect stroke="#000000" stroke-width="0.3" x="64.61538461538461" y="14.615384615384617" width="0.7692307692307687" height="0.7692307692307687" fill="none"/><rect stroke="#000000" stroke-width="0.3" x="60.0" y="20.0" width="10.0" height="10.0" fill="none"/><rect stroke="#000000" stroke-width="0.3" x="60.0" y="30.0" width="10.0" height="10.0" fill="none"/><rect stroke="#000000" stroke-width="0.3" x="60.76923076923077" y="30.76923076923077" width="8.461538461538462" height="8.461538461538462" fill="none"/><rect stroke="#000000" stroke-width="0.3" x="61.53846153846154" y="31.538461538461537" width="6.923076923076923" height="6.923076923076923" fill="none"/><rect stroke="#000000" stroke-width="0.3" x="62.30769230769231" y="32.30769230769231" width="5.384615384615384" height="5.384615384615384" fill="none"/><rect stroke="#000000" stroke-width="0.3" x="63.07692307692307" y="33.07692307692307" width="3.846153846153846" height="3.846153846153846" fill="none"/><rect stroke="#000000" stroke-width="0.3" x="63.846153846153854" y="33.84615384615385" width="2.3076923076923075" height="2.3076923076923075" fill="none"/><rect stroke="#000000" stroke-width="0.3" x="64.61538461538461" y="34.61538461538461" width="0.7692307692307687" height="0.7692307692307687" fill="none"/><rect stroke="#000000" stroke-width="0.3" x="60.0" y="40.0" width="10.0" height="10.0" fill="none"/><rect stroke="#000000" stroke-width="0.3" x="60.0" y="50.0" width="10.0" height="10.0" fill="none"/><rect stroke="#000000" stroke-width="0.3" x="60.76923076923077" y="50.76923076923077" width="8.461538461538462" height="8.461538461538462" fill="none"/><rect stroke="#000000" stroke-width="0.3" x="61.53846153846154" y="51.53846153846154" width="6.923076923076923" height="6.923076923076923" fill="none"/><rect stroke="#000000" stroke-width="0.3" x="62.30769230769231" y="52.30769230769231" width="5.384615384615384" height="5.384615384615384" fill="none"/><rect stroke="#000000" stroke-width="0.3" x="63.07692307692307" y="53.07692307692307" width="3.846153846153846" height="3.846153846153846" fill="none"/><rect stroke="#000000" stroke-width="0.3" x="63.846153846153854" y="53.846153846153854" width="2.3076923076923075" height="2.3076923076923075" fill="none"/><rect stroke="#000000" stroke-width="0.3" x="64.61538461538461" y="54.61538461538461" width="0.7692307692307687" height="0.7692307692307687" fill="none"/><rect stroke="#000000" stroke-width="0.3" x="60.0" y="60.0" width="10.0" height="10.0" fill="none"/><rect stroke="#000000" stroke-width="0.3" x="60.0" y="70.0" width="10.0" height="10.0" fill="none"/><rect stroke="#000000" stroke-width="0.3" x="60.76923076923077" y="70.76923076923077" width="8.461538461538462" height="8.461538461538462" fill="none"/><rect stroke="#000000" stroke-width="0.3" x="61.53846153846154" y="71.53846153846155" width="6.923076923076923" height="6.923076923076923" fill="none"/><rect stroke="#000000" stroke-width="0.3" x="62.30769230769231" y="72.3076923076923" width="5.384615384615384" height="5.384615384615384" fill="none"/><rect stroke="#000000" stroke-width="0.3" x="63.07692307692307" y="73.07692307692308" width="3.846153846153846" height="3.846153846153846" fill="none"/><rect stroke="#000000" stroke-width="0.3" x="63.846153846153854" y="73.84615384615385" width="2.3076923076923075" height="2.3076923076923075" fill="none"/><rect stroke="#000000" stroke-width="0.3" x="64.61538461538461" y="74.61538461538461" width="0.7692307692307687" height="0.7692307692307687" fill="none"/><rect stroke="#000000" stroke-width="0.3" x="70.0" y="0.0" width="10.0" height="10.0" fill="none"/><rect stroke="#000000" stroke-width="0.3" x="70.76923076923077" y="0.7692307692307693" width="8.461538461538462" height="8.461538461538462" fill="none"/><rect stroke="#000000" stroke-width="0.3" x="71.53846153846155" y="1.5384615384615385" width="6.923076923076923" height="6.923076923076923" fill="none"/><rect stroke="#000000" stroke-width="0.3" x="72.3076923076923" y="2.307692307692308" width="5.384615384615384" height="5.384615384615384" fill="none"/><rect stroke="#000000" stroke-width="0.3" x="73.07692307692308" y="3.076923076923077" width="3.846153846153846" height="3.846153846153846" fill="none"/><rect stroke="#000000" stroke-width="0.3" x="73.84615384615385" y="3.8461538461538463" width="2.3076923076923075" height="2.3076923076923075" fill="none"/><rect stroke="#000000" stroke-width="0.3" x="74.61538461538461" y="4.615384615384616" width="0.7692307692307687" height="0.7692307692307687" fill="none"/><rect stroke="#000000" stroke-width="0.3" x="70.0" y="10.0" width="10.0" height="10.0" fill="none"/><rect stroke="#000000" stroke-width="0.3" x="70.0" y="20.0" width="10.0" height="10.0" fill="none"/><rect stroke="#000000" stroke-width="0.3" x="70.76923076923077" y="20.76923076923077" width="8.461538461538462" height="8.461538461538462" fill="none"/><rect stroke="#000000" stroke-width="0.3" x="71.53846153846155" y="21.538461538461537" width="6.923076923076923" height="6.923076923076923" fill="none"/><rect stroke="#000000" stroke-width="0.3" x="72.3076923076923" y="22.307692307692307" width="5.384615384615384" height="5.384615384615384" fill="none"/><rect stroke="#000000" stroke-width="0.3" x="73.07692307692308" y="23.076923076923073" width="3.846153846153846" height="3.846153846153846" fill="none"/><rect stroke="#000000" stroke-width="0.3" x="73.84615384615385" y="23.846153846153847" width="2.3076923076923075" height="2.3076923076923075" fill="none"/><rect stroke="#000000" stroke-width="0.3" x="74.61538461538461" y="24.615384615384617" width="0.7692307692307687" height="0.7692307692307687" fill="none"/><rect stroke="#000000" stroke-width="0.3" x="70.0" y="30.0" width="10.0" height="10.0" fill="none"/><rect stroke="#000000" stroke-width="0.3" x="70.0" y="40.0" width="10.0" height="10.0" fill="none"/><rect stroke="#000000" stroke-width="0.3" x="70.76923076923077" y="40.76923076923077" width="8.461538461538462" height="8.461538461538462" fill="none"/><rect stroke="#000000" stroke-width="0.3" x="71.53846153846155" y="41.53846153846154" width="6.923076923076923" height="6.923076923076923" fill="none"/><rect stroke="#000000" stroke-width="0.3" x="72.3076923076923" y="42.30769230769231" width="5.384615384615384" height="5.384615384615384" fill="none"/><rect stroke="#000000" stroke-width="0.3" x="73.07692307692308" y="43.07692307692307" width="3.846153846153846" height="3.846153846153846" fill="none"/><rect stroke="#000000" stroke-width="0.3" x="73.84615384615385" y="43.846153846153854" width="2.3076923076923075" height="2.3076923076923075" fill="none"/><rect stroke="#000000" stroke-width="0.3" x="74.61538461538461" y="44.61538461538461" width="0.7692307692307687" height="0.7692307692307687" fill="none"/><rect stroke="#000000" stroke-width="0.3" x="70.0" y="50.0" width="10.0" height="10.0" fill="none"/><rect stroke="#000000" stroke-width="0.3" x="70.0" y="60.0" width="10.0" height="10.0" fill="none"/><rect stroke="#000000" stroke-width="0.3" x="70.76923076923077" y="60.76923076923077" width="8.461538461538462" height="8.461538461538462" fill="none"/><rect stroke="#000000" stroke-width="0.3" x="71.53846153846155" y="61.53846153846154" width="6.923076923076923" height="6.923076923076923" fill="none"/><rect stroke="#000000" stroke-width="0.3" x="72.3076923076923" y="62.30769230769231" width="5.384615384615384" height="5.384615384615384" fill="none"/><rect stroke="#000000" stroke-width="0.3" x="73.07692307692308" y="63.07692307692307" width="3.846153846153846" height="3.846153846153846" fill="none"/><rect stroke="#000000" stroke-width="0.3" x="73.84615384615385" y="63.846153846153854" width="2.3076923076923075" height="2.3076923076923075" fill="none"/><rect stroke="#000000" stroke-width="0.3" x="74.61538461538461" y="64.61538461538461" width="0.7692307692307687" height="0.7692307692307687" fill="none"/><rect stroke="#000000" stroke-width="0.3" x="70.0" y="70.0" width="10.0" height="10.0" fill="none"/></svg>