<svg style="fill:none;stroke:#000000;" xmlns="http://www.w3.org/2000/svg" width="1056" height="816"><line stroke="blue" x1="0" y1="0" x2="500" y2="0"/><line stroke="blue" x1="0" y1="0" x2="0" y2="500"/><path stroke="red" stroke-width="2" d="M 29.999999999999993 337.8460969082653 L 246.0 337.8460969082653 Q 258 337.8460969082653 258.0 321.8460969082653 L 258.0 261.8460969082653 Q 258 257.8460969082653 252.0 247.45379206285202 L 144.0 60.392304845413264 Q 138.0 50 132.0 60.392304845413264 L 23.999999999999996 247.45379206285202 Q 18 257.8460969082653 17.999999999999996 261.8460969082653 L 17.999999999999996 321.8460969082653 Q 18 337.8460969082653 29.999999999999993 337.8460969082653 Z " fill="none"/> <polygon points="138.0 230.13328398716322 102.0 250.91789367798975 66.0 230.13328398716325 66.0 188.56406460551017 101.99999999999999 167.77945491468364 138.0 188.56406460551017"/> <polygon points="210.0 230.13328398716322 174.0 250.91789367798975 138.0 230.13328398716325 138.0 188.56406460551017 174.0 167.77945491468364 210.0 188.56406460551017"/> <polygon points="174.0 167.77945491468364 138.0 188.56406460551017 102.0 167.77945491468367 102.0 126.21023553303058 138.0 105.42562584220406 174.0 126.2102355330306"/><path stroke="red" stroke-width="2" d="M 289.99999999999994 337.8460969082653 L 505.99999999999994 337.8460969082653 Q 518 337.8460969082653 518.0 321.8460969082653 L 518.0 261.8460969082653 Q 518 257.8460969082653 511.99999999999994 247.45379206285202 L 403.99999999999994 60.392304845413264 Q 398.0 50 391.99999999999994 60.392304845413264 L 283.99999999999994 247.45379206285202 Q 278 257.8460969082653 277.99999999999994 261.8460969082653 L 277.99999999999994 321.8460969082653 Q 278 337.8460969082653 289.99999999999994 337.8460969082653 Z " fill="none"/> <polygon points="371.0 235.32943640986986 344.0 250.91789367798975 317.0 235.32943640986986 317.0 204.15252187363006 344.0 188.56406460551017 371.0 204.15252187363006"/> <polygon points="425.0 235.32943640986986 398.0 250.91789367798975 371.0 235.32943640986986 371.0 204.15252187363006 398.0 188.56406460551017 425.0 204.15252187363006"/> <polygon points="398.0 188.56406460551017 371.0 204.15252187363006 344.0 188.56406460551017 344.0 157.38715006927038 371.0 141.79869280115048 398.0 157.38715006927038"/> <polygon points="479.0 235.32943640986986 452.0 250.91789367798975 425.0 235.32943640986986 425.0 204.15252187363006 452.0 188.56406460551017 479.0 204.15252187363006"/> <polygon points="452.0 188.56406460551017 425.0 204.15252187363006 398.0 188.56406460551017 398.0 157.38715006927038 425.0 141.79869280115048 452.0 157.38715006927038"/> <polygon points="425.0 141.79869280115048 398.0 157.3871500692704 371.0 141.7986928011505 371.0 110.6217782649107 398.0 95.0333209967908 425.0 110.62177826491072"/></svg>