<svg xmlns="http://www.w3.org/2000/svg" width="1000" height="1000"><rect stroke="red" x="0" y="0" width="1000" height="1000" fill="none"/><rect x="50" y="100" width="300" height="265.22027990898437" fill="#DDEEDD"/><polygon stroke="#000000" stroke-width="0.3" points="68.75 359.8076211353316 59.375 365.2202799089843 50.0 359.8076211353316 50.0 348.98230358802607 59.375 343.56964481437336 68.75 348.98230358802607" fill="none"/><polygon stroke="#000000" stroke-width="0.3" points="87.5 359.8076211353316 78.125 365.2202799089843 68.75 359.8076211353316 68.75 348.98230358802607 78.125 343.56964481437336 87.5 348.98230358802607" fill="none"/><polygon stroke="#000000" stroke-width="0.3" points="78.125 343.5696448143734 68.75 348.9823035880261 59.375 343.5696448143734 59.375 332.7443272670679 68.75 327.3316684934152 78.125 332.7443272670679" fill="none"/><polygon stroke="#000000" stroke-width="0.3" points="106.25 359.8076211353316 96.875 365.2202799089843 87.5 359.8076211353316 87.5 348.98230358802607 96.875 343.56964481437336 106.25 348.98230358802607" fill="none"/><polygon stroke="#000000" stroke-width="0.3" points="96.875 343.5696448143734 87.5 348.9823035880261 78.125 343.5696448143734 78.125 332.7443272670679 87.5 327.3316684934152 96.875 332.7443272670679" fill="none"/><polygon stroke="#000000" stroke-width="0.3" points="87.5 327.3316684934152 78.125 332.7443272670679 68.75 327.3316684934152 68.75 316.50635094610965 78.125 311.09369217245694 87.5 316.50635094610965" fill="none"/><polygon stroke="#000000" stroke-width="0.3" points="125.0 359.8076211353316 115.625 365.2202799089843 106.25 359.8076211353316 106.25 348.98230358802607 115.625 343.56964481437336 125.0 348.98230358802607" fill="none"/><polygon stroke="#000000" stroke-width="0.3" points="115.625 343.5696448143734 106.25 348.9823035880261 96.875 343.5696448143734 96.875 332.7443272670679 106.25 327.3316684934152 115.625 332.7443272670679" fill="none"/><polygon stroke="#000000" stroke-width="0.3" points="106.25 327.3316684934152 96.875 332.7443272670679 87.5 327.3316684934152 87.5 316.50635094610965 96.875 311.09369217245694 106.25 316.50635094610965" fill="none"/><polygon stroke="#000000" stroke-width="0.3" points="96.875 311.09369217245694 87.5 316.50635094610965 78.125 311.09369217245694 78.125 300.2683746251514 87.5 294.8557158514987 96.875 300.2683746251514" fill="none"/><polygon stroke="#000000" stroke-width="0.3" points="143.75 359.8076211353316 134.375 365.2202799089843 125.0 359.8076211353316 125.0 348.98230358802607 134.375 343.56964481437336 143.75 348.98230358802607" fill="none"/><polygon stroke="#000000" stroke-width="0.3" points="134.375 343.5696448143734 125.0 348.9823035880261 115.625 343.5696448143734 115.625 332.7443272670679 125.0 327.3316684934152 134.375 332.7443272670679" fill="none"/><polygon stroke="#000000" stroke-width="0.3" points="125.0 327.3316684934152 115.625 332.7443272670679 106.25 327.3316684934152 106.25 316.50635094610965 115.625 311.09369217245694 125.0 316.50635094610965" fill="none"/><polygon stroke="#000000" stroke-width="0.3" points="115.625 311.09369217245694 106.25 316.50635094610965 96.875 311.09369217245694 96.875 300.2683746251514 106.25 294.8557158514987 115.625 300.2683746251514" fill="none"/><polygon stroke="#000000" stroke-width="0.3" points="106.25 294.8557158514987 96.875 300.2683746251514 87.5 294.8557158514987 87.5 284.03039830419317 96.875 278.61773953054046 106.25 284.03039830419317" fill="none"/><polygon stroke="#000000" stroke-width="0.3" points="162.5 359.8076211353316 153.125 365.2202799089843 143.75 359.8076211353316 143.75 348.98230358802607 153.125 343.56964481437336 162.5 348.98230358802607" fill="none"/><polygon stroke="#000000" stroke-width="0.3" points="153.125 343.5696448143734 143.75 348.9823035880261 134.375 343.5696448143734 134.375 332.7443272670679 143.75 327.3316684934152 153.125 332.7443272670679" fill="none"/><polygon stroke="#000000" stroke-width="0.3" points="143.75 327.3316684934152 134.375 332.7443272670679 125.0 327.3316684934152 125.0 316.50635094610965 134.375 311.09369217245694 143.75 316.50635094610965" fill="none"/><polygon stroke="#000000" stroke-width="0.3" points="134.375 311.09369217245694 125.0 316.50635094610965 115.625 311.09369217245694 115.625 300.2683746251514 125.0 294.8557158514987 134.375 300.2683746251514" fill="none"/><polygon stroke="#000000" stroke-width="0.3" points="125.0 294.8557158514987 115.625 300.2683746251514 106.25 294.8557158514987 106.25 284.03039830419317 115.625 278.61773953054046 125.0 284.03039830419317" fill="none"/><polygon stroke="#000000" stroke-width="0.3" points="115.625 278.61773953054046 106.25 284.03039830419317 96.875 278.61773953054046 96.875 267.79242198323493 106.25 262.3797632095822 115.625 267.79242198323493" fill="none"/><polygon stroke="#000000" stroke-width="0.3" points="181.25 359.8076211353316 171.875 365.2202799089843 162.5 359.8076211353316 162.5 348.98230358802607 171.875 343.56964481437336 181.25 348.98230358802607" fill="none"/><polygon stroke="#000000" stroke-width="0.3" points="171.875 343.5696448143734 162.5 348.9823035880261 153.125 343.5696448143734 153.125 332.7443272670679 162.5 327.3316684934152 171.875 332.7443272670679" fill="none"/><polygon stroke="#000000" stroke-width="0.3" points="162.5 327.3316684934152 153.125 332.7443272670679 143.75 327.3316684934152 143.75 316.50635094610965 153.125 311.09369217245694 162.5 316.50635094610965" fill="none"/><polygon stroke="#000000" stroke-width="0.3" points="153.125 311.09369217245694 143.75 316.50635094610965 134.375 311.09369217245694 134.375 300.2683746251514 143.75 294.8557158514987 153.125 300.2683746251514" fill="none"/><polygon stroke="#000000" stroke-width="0.3" points="143.75 294.8557158514987 134.375 300.2683746251514 125.0 294.8557158514987 125.0 284.03039830419317 134.375 278.61773953054046 143.75 284.03039830419317" fill="none"/><polygon stroke="#000000" stroke-width="0.3" points="134.375 278.61773953054046 125.0 284.03039830419317 115.625 278.61773953054046 115.625 267.79242198323493 125.0 262.3797632095822 134.375 267.79242198323493" fill="none"/><polygon stroke="#000000" stroke-width="0.3" points="125.0 262.3797632095823 115.625 267.792421983235 106.25 262.3797632095823 106.25 251.55444566227678 115.625 246.14178688862404 125.0 251.55444566227678" fill="none"/><polygon stroke="#000000" stroke-width="0.3" points="200.0 359.8076211353316 190.625 365.2202799089843 181.25 359.8076211353316 181.25 348.98230358802607 190.625 343.56964481437336 200.0 348.98230358802607" fill="none"/><polygon stroke="#000000" stroke-width="0.3" points="190.625 343.5696448143734 181.25 348.9823035880261 171.875 343.5696448143734 171.875 332.7443272670679 181.25 327.3316684934152 190.625 332.7443272670679" fill="none"/><polygon stroke="#000000" stroke-width="0.3" points="181.25 327.3316684934152 171.875 332.7443272670679 162.5 327.3316684934152 162.5 316.50635094610965 171.875 311.09369217245694 181.25 316.50635094610965" fill="none"/><polygon stroke="#000000" stroke-width="0.3" points="171.875 311.09369217245694 162.5 316.50635094610965 153.125 311.09369217245694 153.125 300.2683746251514 162.5 294.8557158514987 171.875 300.2683746251514" fill="none"/><polygon stroke="#000000" stroke-width="0.3" points="162.5 294.8557158514987 153.125 300.2683746251514 143.75 294.8557158514987 143.75 284.03039830419317 153.125 278.61773953054046 162.5 284.03039830419317" fill="none"/><polygon stroke="#000000" stroke-width="0.3" points="153.125 278.61773953054046 143.75 284.03039830419317 134.375 278.61773953054046 134.375 267.79242198323493 143.75 262.3797632095822 153.125 267.79242198323493" fill="none"/><polygon stroke="#000000" stroke-width="0.3" points="143.75 262.3797632095823 134.375 267.792421983235 125.0 262.3797632095823 125.0 251.55444566227678 134.375 246.14178688862404 143.75 251.55444566227678" fill="none"/><polygon stroke="#000000" stroke-width="0.3" points="134.375 246.141786888624 125.0 251.55444566227675 115.625 246.141786888624 115.625 235.31646934131854 125.0 229.9038105676658 134.375 235.31646934131854" fill="none"/><polygon stroke="#000000" stroke-width="0.3" points="218.75 359.8076211353316 209.375 365.2202799089843 200.0 359.8076211353316 200.0 348.98230358802607 209.375 343.56964481437336 218.75 348.98230358802607" fill="none"/><polygon stroke="#000000" stroke-width="0.3" points="209.375 343.5696448143734 200.0 348.9823035880261 190.625 343.5696448143734 190.625 332.7443272670679 200.0 327.3316684934152 209.375 332.7443272670679" fill="none"/><polygon stroke="#000000" stroke-width="0.3" points="200.0 327.3316684934152 190.625 332.7443272670679 181.25 327.3316684934152 181.25 316.50635094610965 190.625 311.09369217245694 200.0 316.50635094610965" fill="none"/><polygon stroke="#000000" stroke-width="0.3" points="190.625 311.09369217245694 181.25 316.50635094610965 171.875 311.09369217245694 171.875 300.2683746251514 181.25 294.8557158514987 190.625 300.2683746251514" fill="none"/><polygon stroke="#000000" stroke-width="0.3" points="181.25 294.8557158514987 171.875 300.2683746251514 162.5 294.8557158514987 162.5 284.03039830419317 171.875 278.61773953054046 181.25 284.03039830419317" fill="none"/><polygon stroke="#000000" stroke-width="0.3" points="171.875 278.61773953054046 162.5 284.03039830419317 153.125 278.61773953054046 153.125 267.79242198323493 162.5 262.3797632095822 171.875 267.79242198323493" fill="none"/><polygon stroke="#000000" stroke-width="0.3" points="162.5 262.3797632095823 153.125 267.792421983235 143.75 262.3797632095823 143.75 251.55444566227678 153.125 246.14178688862404 162.5 251.55444566227678" fill="none"/><polygon stroke="#000000" stroke-width="0.3" points="153.125 246.141786888624 143.75 251.55444566227675 134.375 246.141786888624 134.375 235.31646934131854 143.75 229.9038105676658 153.125 235.31646934131854" fill="none"/><polygon stroke="#000000" stroke-width="0.3" points="143.75 229.90381056766577 134.375 235.3164693413185 125.0 229.90381056766577 125.0 219.0784930203603 134.375 213.66583424670756 143.75 219.0784930203603" fill="none"/><polygon stroke="#000000" stroke-width="0.3" points="237.5 359.8076211353316 228.125 365.2202799089843 218.75 359.8076211353316 218.75 348.98230358802607 228.125 343.56964481437336 237.5 348.98230358802607" fill="none"/><polygon stroke="#000000" stroke-width="0.3" points="228.125 343.5696448143734 218.75 348.9823035880261 209.375 343.5696448143734 209.375 332.7443272670679 218.75 327.3316684934152 228.125 332.7443272670679" fill="none"/><polygon stroke="#000000" stroke-width="0.3" points="218.75 327.3316684934152 209.375 332.7443272670679 200.0 327.3316684934152 200.0 316.50635094610965 209.375 311.09369217245694 218.75 316.50635094610965" fill="none"/><polygon stroke="#000000" stroke-width="0.3" points="209.375 311.09369217245694 200.0 316.50635094610965 190.625 311.09369217245694 190.625 300.2683746251514 200.0 294.8557158514987 209.375 300.2683746251514" fill="none"/><polygon stroke="#000000" stroke-width="0.3" points="200.0 294.8557158514987 190.625 300.2683746251514 181.25 294.8557158514987 181.25 284.03039830419317 190.625 278.61773953054046 200.0 284.03039830419317" fill="none"/><polygon stroke="#000000" stroke-width="0.3" points="190.625 278.61773953054046 181.25 284.03039830419317 171.875 278.61773953054046 171.875 267.79242198323493 181.25 262.3797632095822 190.625 267.79242198323493" fill="none"/><polygon stroke="#000000" stroke-width="0.3" points="181.25 262.3797632095823 171.875 267.792421983235 162.5 262.3797632095823 162.5 251.55444566227678 171.875 246.14178688862404 181.25 251.55444566227678" fill="none"/><polygon stroke="#000000" stroke-width="0.3" points="171.875 246.141786888624 162.5 251.55444566227675 153.125 246.141786888624 153.125 235.31646934131854 162.5 229.9038105676658 171.875 235.31646934131854" fill="none"/><polygon stroke="#000000" stroke-width="0.3" points="162.5 229.90381056766577 153.125 235.3164693413185 143.75 229.90381056766577 143.75 219.0784930203603 153.125 213.66583424670756 162.5 219.0784930203603" fill="none"/><polygon stroke="#000000" stroke-width="0.3" points="153.125 213.66583424670756 143.75 219.0784930203603 134.375 213.66583424670756 134.375 202.8405166994021 143.75 197.42785792574935 153.125 202.8405166994021" fill="none"/><polygon stroke="#000000" stroke-width="0.3" points="256.25 359.8076211353316 246.875 365.2202799089843 237.5 359.8076211353316 237.5 348.98230358802607 246.875 343.56964481437336 256.25 348.98230358802607" fill="none"/><polygon stroke="#000000" stroke-width="0.3" points="246.875 343.5696448143734 237.5 348.9823035880261 228.125 343.5696448143734 228.125 332.7443272670679 237.5 327.3316684934152 246.875 332.7443272670679" fill="none"/><polygon stroke="#000000" stroke-width="0.3" points="237.5 327.3316684934152 228.125 332.7443272670679 218.75 327.3316684934152 218.75 316.50635094610965 228.125 311.09369217245694 237.5 316.50635094610965" fill="none"/><polygon stroke="#000000" stroke-width="0.3" points="228.125 311.09369217245694 218.75 316.50635094610965 209.375 311.09369217245694 209.375 300.2683746251514 218.75 294.8557158514987 228.125 300.2683746251514" fill="none"/><polygon stroke="#000000" stroke-width="0.3" points="218.75 294.8557158514987 209.375 300.2683746251514 200.0 294.8557158514987 200.0 284.03039830419317 209.375 278.61773953054046 218.75 284.03039830419317" fill="none"/><polygon stroke="#000000" stroke-width="0.3" points="209.375 278.61773953054046 200.0 284.03039830419317 190.625 278.61773953054046 190.625 267.79242198323493 200.0 262.3797632095822 209.375 267.79242198323493" fill="none"/><polygon stroke="#000000" stroke-width="0.3" points="200.0 262.3797632095823 190.625 267.792421983235 181.25 262.3797632095823 181.25 251.55444566227678 190.625 246.14178688862404 200.0 251.55444566227678" fill="none"/><polygon stroke="#000000" stroke-width="0.3" points="190.625 246.141786888624 181.25 251.55444566227675 171.875 246.141786888624 171.875 235.31646934131854 181.25 229.9038105676658 190.625 235.31646934131854" fill="none"/><polygon stroke="#000000" stroke-width="0.3" points="181.25 229.90381056766577 171.875 235.3164693413185 162.5 229.90381056766577 162.5 219.0784930203603 171.875 213.66583424670756 181.25 219.0784930203603" fill="none"/><polygon stroke="#000000" stroke-width="0.3" points="171.875 213.66583424670756 162.5 219.0784930203603 153.125 213.66583424670756 153.125 202.8405166994021 162.5 197.42785792574935 171.875 202.8405166994021" fill="none"/><polygon stroke="#000000" stroke-width="0.3" points="162.5 197.42785792574932 153.125 202.84051669940206 143.75 197.42785792574932 143.75 186.60254037844385 153.125 181.1898816047911 162.5 186.60254037844385" fill="none"/><polygon stroke="#000000" stroke-width="0.3" points="275.0 359.8076211353316 265.625 365.2202799089843 256.25 359.8076211353316 256.25 348.98230358802607 265.625 343.56964481437336 275.0 348.98230358802607" fill="none"/><polygon stroke="#000000" stroke-width="0.3" points="265.625 343.5696448143734 256.25 348.9823035880261 246.875 343.5696448143734 246.875 332.7443272670679 256.25 327.3316684934152 265.625 332.7443272670679" fill="none"/><polygon stroke="#000000" stroke-width="0.3" points="256.25 327.3316684934152 246.875 332.7443272670679 237.5 327.3316684934152 237.5 316.50635094610965 246.875 311.09369217245694 256.25 316.50635094610965" fill="none"/><polygon stroke="#000000" stroke-width="0.3" points="246.875 311.09369217245694 237.5 316.50635094610965 228.125 311.09369217245694 228.125 300.2683746251514 237.5 294.8557158514987 246.875 300.2683746251514" fill="none"/><polygon stroke="#000000" stroke-width="0.3" points="237.5 294.8557158514987 228.125 300.2683746251514 218.75 294.8557158514987 218.75 284.03039830419317 228.125 278.61773953054046 237.5 284.03039830419317" fill="none"/><polygon stroke="#000000" stroke-width="0.3" points="228.125 278.61773953054046 218.75 284.03039830419317 209.375 278.61773953054046 209.375 267.79242198323493 218.75 262.3797632095822 228.125 267.79242198323493" fill="none"/><polygon stroke="#000000" stroke-width="0.3" points="218.75 262.3797632095823 209.375 267.792421983235 200.0 262.3797632095823 200.0 251.55444566227678 209.375 246.14178688862404 218.75 251.55444566227678" fill="none"/><polygon stroke="#000000" stroke-width="0.3" points="209.375 246.141786888624 200.0 251.55444566227675 190.625 246.141786888624 190.625 235.31646934131854 200.0 229.9038105676658 209.375 235.31646934131854" fill="none"/><polygon stroke="#000000" stroke-width="0.3" points="200.0 229.90381056766577 190.625 235.3164693413185 181.25 229.90381056766577 181.25 219.0784930203603 190.625 213.66583424670756 200.0 219.0784930203603" fill="none"/><polygon stroke="#000000" stroke-width="0.3" points="190.625 213.66583424670756 181.25 219.0784930203603 171.875 213.66583424670756 171.875 202.8405166994021 181.25 197.42785792574935 190.625 202.8405166994021" fill="none"/><polygon stroke="#000000" stroke-width="0.3" points="181.25 197.42785792574932 171.875 202.84051669940206 162.5 197.42785792574932 162.5 186.60254037844385 171.875 181.1898816047911 181.25 186.60254037844385" fill="none"/><polygon stroke="#000000" stroke-width="0.3" points="171.875 181.1898816047911 162.5 186.60254037844385 153.125 181.1898816047911 153.125 170.36456405748564 162.5 164.9519052838329 171.875 170.36456405748564" fill="none"/><polygon stroke="#000000" stroke-width="0.3" points="293.75 359.8076211353316 284.375 365.2202799089843 275.0 359.8076211353316 275.0 348.98230358802607 284.375 343.56964481437336 293.75 348.98230358802607" fill="none"/><polygon stroke="#000000" stroke-width="0.3" points="284.375 343.5696448143734 275.0 348.9823035880261 265.625 343.5696448143734 265.625 332.7443272670679 275.0 327.3316684934152 284.375 332.7443272670679" fill="none"/><polygon stroke="#000000" stroke-width="0.3" points="275.0 327.3316684934152 265.625 332.7443272670679 256.25 327.3316684934152 256.25 316.50635094610965 265.625 311.09369217245694 275.0 316.50635094610965" fill="none"/><polygon stroke="#000000" stroke-width="0.3" points="265.625 311.09369217245694 256.25 316.50635094610965 246.875 311.09369217245694 246.875 300.2683746251514 256.25 294.8557158514987 265.625 300.2683746251514" fill="none"/><polygon stroke="#000000" stroke-width="0.3" points="256.25 294.8557158514987 246.875 300.2683746251514 237.5 294.8557158514987 237.5 284.03039830419317 246.875 278.61773953054046 256.25 284.03039830419317" fill="none"/><polygon stroke="#000000" stroke-width="0.3" points="246.875 278.61773953054046 237.5 284.03039830419317 228.125 278.61773953054046 228.125 267.79242198323493 237.5 262.3797632095822 246.875 267.79242198323493" fill="none"/><polygon stroke="#000000" stroke-width="0.3" points="237.5 262.3797632095823 228.125 267.792421983235 218.75 262.3797632095823 218.75 251.55444566227678 228.125 246.14178688862404 237.5 251.55444566227678" fill="none"/><polygon stroke="#000000" stroke-width="0.3" points="228.125 246.141786888624 218.75 251.55444566227675 209.375 246.141786888624 209.375 235.31646934131854 218.75 229.9038105676658 228.125 235.31646934131854" fill="none"/><polygon stroke="#000000" stroke-width="0.3" points="218.75 229.90381056766577 209.375 235.3164693413185 200.0 229.90381056766577 200.0 219.0784930203603 209.375 213.66583424670756 218.75 219.0784930203603" fill="none"/><polygon stroke="#000000" stroke-width="0.3" points="209.375 213.66583424670756 200.0 219.0784930203603 190.625 213.66583424670756 190.625 202.8405166994021 200.0 197.42785792574935 209.375 202.8405166994021" fill="none"/><polygon stroke="#000000" stroke-width="0.3" points="200.0 197.42785792574932 190.625 202.84051669940206 181.25 197.42785792574932 181.25 186.60254037844385 190.625 181.1898816047911 200.0 186.60254037844385" fill="none"/><polygon stroke="#000000" stroke-width="0.3" points="190.625 181.1898816047911 181.25 186.60254037844385 171.875 181.1898816047911 171.875 170.36456405748564 181.25 164.9519052838329 190.625 170.36456405748564" fill="none"/><polygon stroke="#000000" stroke-width="0.3" points="181.25 164.95190528383287 171.875 170.3645640574856 162.5 164.95190528383287 162.5 154.1265877365274 171.875 148.71392896287466 181.25 154.1265877365274" fill="none"/><polygon stroke="#000000" stroke-width="0.3" points="312.5 359.8076211353316 303.125 365.2202799089843 293.75 359.8076211353316 293.75 348.98230358802607 303.125 343.56964481437336 312.5 348.98230358802607" fill="none"/><polygon stroke="#000000" stroke-width="0.3" points="303.125 343.5696448143734 293.75 348.9823035880261 284.375 343.5696448143734 284.375 332.7443272670679 293.75 327.3316684934152 303.125 332.7443272670679" fill="none"/><polygon stroke="#000000" stroke-width="0.3" points="293.75 327.3316684934152 284.375 332.7443272670679 275.0 327.3316684934152 275.0 316.50635094610965 284.375 311.09369217245694 293.75 316.50635094610965" fill="none"/><polygon stroke="#000000" stroke-width="0.3" points="284.375 311.09369217245694 275.0 316.50635094610965 265.625 311.09369217245694 265.625 300.2683746251514 275.0 294.8557158514987 284.375 300.2683746251514" fill="none"/><polygon stroke="#000000" stroke-width="0.3" points="275.0 294.8557158514987 265.625 300.2683746251514 256.25 294.8557158514987 256.25 284.03039830419317 265.625 278.61773953054046 275.0 284.03039830419317" fill="none"/><polygon stroke="#000000" stroke-width="0.3" points="265.625 278.61773953054046 256.25 284.03039830419317 246.875 278.61773953054046 246.875 267.79242198323493 256.25 262.3797632095822 265.625 267.79242198323493" fill="none"/><polygon stroke="#000000" stroke-width="0.3" points="256.25 262.3797632095823 246.875 267.792421983235 237.5 262.3797632095823 237.5 251.55444566227678 246.875 246.14178688862404 256.25 251.55444566227678" fill="none"/><polygon stroke="#000000" stroke-width="0.3" points="246.875 246.141786888624 237.5 251.55444566227675 228.125 246.141786888624 228.125 235.31646934131854 237.5 229.9038105676658 246.875 235.31646934131854" fill="none"/><polygon stroke="#000000" stroke-width="0.3" points="237.5 229.90381056766577 228.125 235.3164693413185 218.75 229.90381056766577 218.75 219.0784930203603 228.125 213.66583424670756 237.5 219.0784930203603" fill="none"/><polygon stroke="#000000" stroke-width="0.3" points="228.125 213.66583424670756 218.75 219.0784930203603 209.375 213.66583424670756 209.375 202.8405166994021 218.75 197.42785792574935 228.125 202.8405166994021" fill="none"/><polygon stroke="#000000" stroke-width="0.3" points="218.75 197.42785792574932 209.375 202.84051669940206 200.0 197.42785792574932 200.0 186.60254037844385 209.375 181.1898816047911 218.75 186.60254037844385" fill="none"/><polygon stroke="#000000" stroke-width="0.3" points="209.375 181.1898816047911 200.0 186.60254037844385 190.625 181.1898816047911 190.625 170.36456405748564 200.0 164.9519052838329 209.375 170.36456405748564" fill="none"/><polygon stroke="#000000" stroke-width="0.3" points="200.0 164.95190528383287 190.625 170.3645640574856 181.25 164.95190528383287 181.25 154.1265877365274 190.625 148.71392896287466 200.0 154.1265877365274" fill="none"/><polygon stroke="#000000" stroke-width="0.3" points="190.625 148.71392896287463 181.25 154.12658773652737 171.875 148.71392896287463 171.875 137.88861141556916 181.25 132.47595264191642 190.625 137.88861141556916" fill="none"/><polygon stroke="#000000" stroke-width="0.3" points="331.25 359.8076211353316 321.875 365.2202799089843 312.5 359.8076211353316 312.5 348.98230358802607 321.875 343.56964481437336 331.25 348.98230358802607" fill="none"/><polygon stroke="#000000" stroke-width="0.3" points="321.875 343.5696448143734 312.5 348.9823035880261 303.125 343.5696448143734 303.125 332.7443272670679 312.5 327.3316684934152 321.875 332.7443272670679" fill="none"/><polygon stroke="#000000" stroke-width="0.3" points="312.5 327.3316684934152 303.125 332.7443272670679 293.75 327.3316684934152 293.75 316.50635094610965 303.125 311.09369217245694 312.5 316.50635094610965" fill="none"/><polygon stroke="#000000" stroke-width="0.3" points="303.125 311.09369217245694 293.75 316.50635094610965 284.375 311.09369217245694 284.375 300.2683746251514 293.75 294.8557158514987 303.125 300.2683746251514" fill="none"/><polygon stroke="#000000" stroke-width="0.3" points="293.75 294.8557158514987 284.375 300.2683746251514 275.0 294.8557158514987 275.0 284.03039830419317 284.375 278.61773953054046 293.75 284.03039830419317" fill="none"/><polygon stroke="#000000" stroke-width="0.3" points="284.375 278.61773953054046 275.0 284.03039830419317 265.625 278.61773953054046 265.625 267.79242198323493 275.0 262.3797632095822 284.375 267.79242198323493" fill="none"/><polygon stroke="#000000" stroke-width="0.3" points="275.0 262.3797632095823 265.625 267.792421983235 256.25 262.3797632095823 256.25 251.55444566227678 265.625 246.14178688862404 275.0 251.55444566227678" fill="none"/><polygon stroke="#000000" stroke-width="0.3" points="265.625 246.141786888624 256.25 251.55444566227675 246.875 246.141786888624 246.875 235.31646934131854 256.25 229.9038105676658 265.625 235.31646934131854" fill="none"/><polygon stroke="#000000" stroke-width="0.3" points="256.25 229.90381056766577 246.875 235.3164693413185 237.5 229.90381056766577 237.5 219.0784930203603 246.875 213.66583424670756 256.25 219.0784930203603" fill="none"/><polygon stroke="#000000" stroke-width="0.3" points="246.875 213.66583424670756 237.5 219.0784930203603 228.125 213.66583424670756 228.125 202.8405166994021 237.5 197.42785792574935 246.875 202.8405166994021" fill="none"/><polygon stroke="#000000" stroke-width="0.3" points="237.5 197.42785792574932 228.125 202.84051669940206 218.75 197.42785792574932 218.75 186.60254037844385 228.125 181.1898816047911 237.5 186.60254037844385" fill="none"/><polygon stroke="#000000" stroke-width="0.3" points="228.125 181.1898816047911 218.75 186.60254037844385 209.375 181.1898816047911 209.375 170.36456405748564 218.75 164.9519052838329 228.125 170.36456405748564" fill="none"/><polygon stroke="#000000" stroke-width="0.3" points="218.75 164.95190528383287 209.375 170.3645640574856 200.0 164.95190528383287 200.0 154.1265877365274 209.375 148.71392896287466 218.75 154.1265877365274" fill="none"/><polygon stroke="#000000" stroke-width="0.3" points="209.375 148.71392896287463 200.0 154.12658773652737 190.625 148.71392896287463 190.625 137.88861141556916 200.0 132.47595264191642 209.375 137.88861141556916" fill="none"/><polygon stroke="#000000" stroke-width="0.3" points="200.0 132.47595264191642 190.625 137.88861141556916 181.25 132.47595264191642 181.25 121.65063509461095 190.625 116.2379763209582 200.0 121.65063509461095" fill="none"/><polygon stroke="#000000" stroke-width="0.3" points="350.0 359.8076211353316 340.625 365.2202799089843 331.25 359.8076211353316 331.25 348.98230358802607 340.625 343.56964481437336 350.0 348.98230358802607" fill="none"/><polygon stroke="#000000" stroke-width="0.3" points="340.625 343.5696448143734 331.25 348.9823035880261 321.875 343.5696448143734 321.875 332.7443272670679 331.25 327.3316684934152 340.625 332.7443272670679" fill="none"/><polygon stroke="#000000" stroke-width="0.3" points="331.25 327.3316684934152 321.875 332.7443272670679 312.5 327.3316684934152 312.5 316.50635094610965 321.875 311.09369217245694 331.25 316.50635094610965" fill="none"/><polygon stroke="#000000" stroke-width="0.3" points="321.875 311.09369217245694 312.5 316.50635094610965 303.125 311.09369217245694 303.125 300.2683746251514 312.5 294.8557158514987 321.875 300.2683746251514" fill="none"/><polygon stroke="#000000" stroke-width="0.3" points="312.5 294.8557158514987 303.125 300.2683746251514 293.75 294.8557158514987 293.75 284.03039830419317 303.125 278.61773953054046 312.5 284.03039830419317" fill="none"/><polygon stroke="#000000" stroke-width="0.3" points="303.125 278.61773953054046 293.75 284.03039830419317 284.375 278.61773953054046 284.375 267.79242198323493 293.75 262.3797632095822 303.125 267.79242198323493" fill="none"/><polygon stroke="#000000" stroke-width="0.3" points="293.75 262.3797632095823 284.375 267.792421983235 275.0 262.3797632095823 275.0 251.55444566227678 284.375 246.14178688862404 293.75 251.55444566227678" fill="none"/><polygon stroke="#000000" stroke-width="0.3" points="284.375 246.141786888624 275.0 251.55444566227675 265.625 246.141786888624 265.625 235.31646934131854 275.0 229.9038105676658 284.375 235.31646934131854" fill="none"/><polygon stroke="#000000" stroke-width="0.3" points="275.0 229.90381056766577 265.625 235.3164693413185 256.25 229.90381056766577 256.25 219.0784930203603 265.625 213.66583424670756 275.0 219.0784930203603" fill="none"/><polygon stroke="#000000" stroke-width="0.3" points="265.625 213.66583424670756 256.25 219.0784930203603 246.875 213.66583424670756 246.875 202.8405166994021 256.25 197.42785792574935 265.625 202.8405166994021" fill="none"/><polygon stroke="#000000" stroke-width="0.3" points="256.25 197.42785792574932 246.875 202.84051669940206 237.5 197.42785792574932 237.5 186.60254037844385 246.875 181.1898816047911 256.25 186.60254037844385" fill="none"/><polygon stroke="#000000" stroke-width="0.3" points="246.875 181.1898816047911 237.5 186.60254037844385 228.125 181.1898816047911 228.125 170.36456405748564 237.5 164.9519052838329 246.875 170.36456405748564" fill="none"/><polygon stroke="#000000" stroke-width="0.3" points="237.5 164.95190528383287 228.125 170.3645640574856 218.75 164.95190528383287 218.75 154.1265877365274 228.125 148.71392896287466 237.5 154.1265877365274" fill="none"/><polygon stroke="#000000" stroke-width="0.3" points="228.125 148.71392896287463 218.75 154.12658773652737 209.375 148.71392896287463 209.375 137.88861141556916 218.75 132.47595264191642 228.125 137.88861141556916" fill="none"/><polygon stroke="#000000" stroke-width="0.3" points="218.75 132.47595264191642 209.375 137.88861141556916 200.0 132.47595264191642 200.0 121.65063509461095 209.375 116.2379763209582 218.75 121.65063509461095" fill="none"/><polygon stroke="#000000" stroke-width="0.3" points="209.375 116.23797632095818 200.0 121.65063509461093 190.625 116.2379763209582 190.625 105.41265877365271 200.0 99.99999999999996 209.375 105.41265877365271" fill="none"/></svg>